<svg width="214" height="186" viewBox="0 0 214 186" fill="none" xmlns="http://www.w3.org/2000/svg">
<rect width="214" height="186" fill="#F5F5F5"/>
<path d="M50.0159 128.14C47.5939 128.14 46.2779 126.796 46.2779 124.458V118.004H48.4339V124.598C48.4339 125.732 48.9659 126.404 50.0019 126.404C50.9959 126.404 51.4999 125.676 51.4999 124.864C51.4999 124.01 51.1639 123.52 50.7999 123.002C50.4079 122.442 50.0719 121.798 50.1559 120.762H52.3259C52.2979 121.462 52.5779 121.882 52.9559 122.456C53.3339 123.03 53.7119 123.66 53.7119 124.752C53.7119 126.768 52.2699 128.14 50.0159 128.14ZM58.7567 128.14C56.5727 128.14 55.0747 126.866 55.0747 124.78C55.0747 124.276 55.1167 123.8 55.3827 123.072H57.5387C57.3287 123.73 57.2867 124.262 57.2867 124.654C57.2867 125.662 57.7627 126.39 58.7567 126.39C59.8207 126.39 60.2407 125.648 60.2407 124.584C60.2407 123.366 59.6667 122.54 59.0647 121.756C58.2527 120.706 57.4127 119.712 57.6507 118.004H59.8067C59.6807 119.082 60.3247 119.866 60.9967 120.776C61.6967 121.714 62.4527 122.792 62.4527 124.528C62.4527 126.726 61.0667 128.14 58.7567 128.14ZM67.4227 128.14C65.1407 128.14 63.7547 126.824 63.7547 125.242C63.7547 124.864 63.7967 124.57 63.9227 124.22H66.0227C65.9527 124.514 65.9247 124.766 65.9247 125.004C65.9247 125.844 66.4427 126.474 67.4367 126.474C68.5427 126.474 69.0047 125.816 69.0047 124.878C69.0047 123.842 68.4307 123.282 67.4647 123.282H66.8767V121.672H67.4647C68.4167 121.672 68.7527 121.126 68.7527 120.594C68.7527 120.006 68.3467 119.502 67.5767 119.502V117.836C69.6907 117.836 70.9227 118.886 70.9227 120.258C70.9227 121.434 70.2787 122.134 69.3687 122.4V122.442C70.2507 122.624 71.2027 123.436 71.2027 125.018C71.2027 126.866 69.7467 128.14 67.4227 128.14ZM73.6546 128C73.0526 126.418 72.6326 124.85 72.6326 122.414C72.6326 119.152 74.1726 117.864 76.0206 117.864C76.9166 117.864 77.9246 118.228 78.3726 119.348H78.4286C78.8906 118.214 79.8846 117.864 80.8506 117.864C82.6146 117.864 84.1546 119.166 84.1546 122.414C84.1546 124.892 83.7346 126.418 83.1326 128H80.9346C81.4946 126.404 81.9006 124.682 81.9006 122.372C81.9006 120.342 81.4106 119.642 80.6406 119.642C79.8146 119.642 79.5206 120.37 79.5206 121.574V125.074H77.2806V121.574C77.2806 120.398 76.9726 119.642 76.1466 119.642C75.3906 119.642 74.8866 120.342 74.8866 122.372C74.8866 124.71 75.3066 126.404 75.8526 128H73.6546ZM89.5106 128.14C87.1866 128.14 85.9126 126.81 85.9126 124.43V120.86C85.9126 118.76 87.3126 118.004 88.8246 118.004H92.5906V119.74H89.0346C88.4186 119.74 88.0546 120.006 88.0546 120.678V121.014C88.0546 121.308 88.0126 121.658 87.9426 121.924H88.0126C88.4746 121.322 89.1466 120.93 90.2246 120.93C92.0586 120.93 93.2906 122.316 93.2906 124.486C93.2906 126.782 91.8626 128.14 89.5106 128.14ZM89.5386 126.418C90.6586 126.418 91.1346 125.592 91.1346 124.528C91.1346 123.394 90.5466 122.68 89.5806 122.68C88.3626 122.68 87.9426 123.534 87.9426 124.5V124.724C87.9426 125.718 88.4606 126.418 89.5386 126.418ZM101.483 128.14C98.8226 128.14 97.1146 127.23 97.1146 125.676C97.1146 125.494 97.1426 125.312 97.1706 125.172H99.2986C99.2986 125.242 99.2846 125.326 99.2846 125.382C99.2846 126.138 100.209 126.474 101.553 126.474C102.981 126.474 103.653 125.816 103.653 125.074C103.653 124.416 103.219 123.968 102.393 123.968H102.169V122.344H102.603C103.513 122.344 103.947 121.686 103.947 120.916C103.947 120.132 103.611 119.516 102.799 119.516C102.001 119.516 101.609 120.09 101.609 120.916V121.308C101.609 123.184 100.223 124.5 97.9546 124.5C95.8546 124.5 94.3286 123.184 94.3286 121.224C94.3286 119.194 95.7426 117.864 97.9126 117.864C99.0886 117.864 100.111 118.326 100.503 119.18H100.559C100.951 118.326 101.875 117.864 103.051 117.864C105.025 117.864 106.159 119.096 106.159 120.608C106.159 122.092 105.417 122.806 104.437 123.086V123.128C105.375 123.394 105.907 124.178 105.907 125.13C105.907 126.824 104.395 128.14 101.483 128.14ZM97.9826 122.862C98.9626 122.862 99.4106 122.12 99.4106 121.196C99.4106 120.23 98.9626 119.516 97.9686 119.516C96.9886 119.516 96.5406 120.23 96.5406 121.196C96.5406 122.134 96.9886 122.862 97.9826 122.862ZM111.038 128.14C108.784 128.14 107.37 126.81 107.37 125.004C107.37 124.528 107.44 124.15 107.552 123.758H109.708C109.624 124.08 109.582 124.472 109.582 124.808C109.582 125.69 110.058 126.39 111.066 126.39C112.158 126.39 112.55 125.718 112.55 124.724V120.986C112.55 120.076 112.018 119.614 111.248 119.614C110.45 119.614 109.946 120.048 109.946 120.874C109.946 121.126 109.974 121.42 110.03 121.714H107.874C107.79 121.406 107.734 121.07 107.734 120.622C107.734 118.844 109.246 117.864 111.206 117.864C113.32 117.864 114.706 119.026 114.706 120.93V124.752C114.706 126.866 113.376 128.14 111.038 128.14ZM117.137 128C116.563 126.502 116.395 125.55 116.395 123.94C116.395 120.692 117.445 118.802 120.861 118.27C121.855 118.116 123.017 117.976 124.235 117.85L124.473 119.628C123.003 119.796 121.841 119.922 121.029 120.034C119.923 120.188 118.607 120.482 118.159 121.434H118.201C118.621 120.986 119.195 120.846 119.783 120.846C120.791 120.846 121.561 121.406 121.897 122.358H121.939C122.289 121.406 123.073 120.846 124.347 120.846C126.349 120.846 127.441 122.372 127.441 124.388C127.441 125.704 127.175 126.782 126.685 128H124.515C124.977 126.866 125.257 125.76 125.257 124.43C125.257 123.394 124.935 122.484 124.039 122.484C123.269 122.484 122.947 123.198 122.947 124.122V125.844H120.875V124.122C120.875 123.044 120.511 122.484 119.783 122.484C118.985 122.484 118.565 123.086 118.565 124.472C118.565 125.704 118.831 126.838 119.307 128H117.137ZM132.311 128.14C130.057 128.14 128.643 126.81 128.643 125.004C128.643 124.528 128.713 124.15 128.825 123.758H130.981C130.897 124.08 130.855 124.472 130.855 124.808C130.855 125.69 131.331 126.39 132.339 126.39C133.431 126.39 133.823 125.718 133.823 124.724V120.986C133.823 120.076 133.291 119.614 132.521 119.614C131.723 119.614 131.219 120.048 131.219 120.874C131.219 121.126 131.247 121.42 131.303 121.714H129.147C129.063 121.406 129.007 121.07 129.007 120.622C129.007 118.844 130.519 117.864 132.479 117.864C134.593 117.864 135.979 119.026 135.979 120.93V124.752C135.979 126.866 134.649 128.14 132.311 128.14ZM141.518 128.14C139.194 128.14 137.92 126.81 137.92 124.43V120.86C137.92 118.76 139.32 118.004 140.832 118.004H144.598V119.74H141.042C140.426 119.74 140.062 120.006 140.062 120.678V121.014C140.062 121.308 140.02 121.658 139.95 121.924H140.02C140.482 121.322 141.154 120.93 142.232 120.93C144.066 120.93 145.298 122.316 145.298 124.486C145.298 126.782 143.87 128.14 141.518 128.14ZM141.546 126.418C142.666 126.418 143.142 125.592 143.142 124.528C143.142 123.394 142.554 122.68 141.588 122.68C140.37 122.68 139.95 123.534 139.95 124.5V124.724C139.95 125.718 140.468 126.418 141.546 126.418ZM151.408 128.14C148.51 128.14 146.76 126.53 146.76 122.694C146.76 121 147.152 119.404 147.796 118.004H149.938C149.336 119.502 149 120.86 149 122.694C149 125.228 149.728 126.362 151.408 126.362C152.752 126.362 153.452 125.788 153.452 124.822C153.452 123.982 152.836 123.366 151.646 123.366H151.156L151.17 121.658H152.066C152.85 121.658 153.27 121.392 153.27 120.93C153.27 120.538 152.948 120.258 152.598 120.006C152.108 119.614 151.548 119.138 151.632 118.004H153.774C153.788 118.48 154.138 118.76 154.502 119.054C154.964 119.418 155.482 119.866 155.482 120.762C155.482 121.728 154.81 122.302 153.872 122.456V122.498C154.81 122.694 155.65 123.464 155.65 124.976C155.65 126.964 153.886 128.14 151.408 128.14ZM157.757 128C157.323 126.684 157.015 125.172 157.015 122.526C157.015 119.208 158.653 117.864 160.809 117.864C162.951 117.864 164.589 119.208 164.589 122.526C164.589 125.172 164.281 126.684 163.847 128H161.649C162.027 126.684 162.335 125.032 162.335 122.484C162.335 120.398 161.775 119.642 160.809 119.642C159.829 119.642 159.269 120.398 159.269 122.484C159.269 125.032 159.577 126.684 159.955 128H157.757ZM167.184 128C166.582 126.418 166.162 124.85 166.162 122.414C166.162 119.152 167.702 117.864 169.55 117.864C170.446 117.864 171.454 118.228 171.902 119.348H171.958C172.42 118.214 173.414 117.864 174.38 117.864C176.144 117.864 177.684 119.166 177.684 122.414C177.684 124.892 177.264 126.418 176.662 128H174.464C175.024 126.404 175.43 124.682 175.43 122.372C175.43 120.342 174.94 119.642 174.17 119.642C173.344 119.642 173.05 120.37 173.05 121.574V125.074H170.81V121.574C170.81 120.398 170.502 119.642 169.676 119.642C168.92 119.642 168.416 120.342 168.416 122.372C168.416 124.71 168.836 126.404 169.382 128H167.184ZM79.6703 141C79.0683 139.418 78.6483 137.85 78.6483 135.414C78.6483 132.152 80.1883 130.864 82.0363 130.864C82.9323 130.864 83.9403 131.228 84.3883 132.348H84.4443C84.9063 131.214 85.9003 130.864 86.8663 130.864C88.6303 130.864 90.1703 132.166 90.1703 135.414C90.1703 137.892 89.7503 139.418 89.1483 141H86.9503C87.5103 139.404 87.9163 137.682 87.9163 135.372C87.9163 133.342 87.4263 132.642 86.6563 132.642C85.8303 132.642 85.5363 133.37 85.5363 134.574V138.074H83.2963V134.574C83.2963 133.398 82.9883 132.642 82.1623 132.642C81.4063 132.642 80.9023 133.342 80.9023 135.372C80.9023 137.71 81.3223 139.404 81.8683 141H79.6703ZM100.608 130.864C102.47 130.864 103.94 132.166 103.94 135.414C103.94 137.892 103.52 139.418 102.918 141H100.72C101.28 139.404 101.686 137.682 101.686 135.372C101.686 133.342 101.224 132.642 100.37 132.642C99.5582 132.642 99.2082 133.286 99.2082 134.14C99.2082 134.798 99.3062 135.344 99.3062 136.1C99.3062 139.432 98.0882 141.14 95.5262 141.14C92.9362 141.14 91.7322 139.418 91.7322 136.002C91.7322 132.572 92.9782 130.864 95.4702 130.864C96.6042 130.864 97.6122 131.228 98.0882 132.236H98.1302C98.5782 131.2 99.6982 130.864 100.608 130.864ZM95.5262 139.362C96.6602 139.362 97.0522 138.368 97.0522 135.988C97.0522 133.58 96.6462 132.642 95.5262 132.642C94.3782 132.642 93.9862 133.622 93.9862 136.002C93.9862 138.424 94.3922 139.362 95.5262 139.362ZM108.987 141.14C106.803 141.14 105.305 139.866 105.305 137.78C105.305 137.276 105.347 136.8 105.613 136.072H107.769C107.559 136.73 107.517 137.262 107.517 137.654C107.517 138.662 107.993 139.39 108.987 139.39C110.051 139.39 110.471 138.648 110.471 137.584C110.471 136.366 109.897 135.54 109.295 134.756C108.483 133.706 107.643 132.712 107.881 131.004H110.037C109.911 132.082 110.555 132.866 111.227 133.776C111.927 134.714 112.683 135.792 112.683 137.528C112.683 139.726 111.297 141.14 108.987 141.14ZM117.921 141.14C115.611 141.14 114.309 139.81 114.309 137.43V131.004H116.451V133.16C116.451 133.636 116.395 134.364 116.339 134.7H116.409C116.857 134.084 117.543 133.622 118.621 133.622C120.441 133.622 121.701 134.91 121.701 137.388C121.701 139.782 120.245 141.14 117.921 141.14ZM117.949 139.404C119.069 139.404 119.531 138.578 119.531 137.43C119.531 136.17 118.929 135.456 118.005 135.456C116.605 135.456 116.325 136.394 116.325 137.36V137.584C116.325 138.704 116.871 139.404 117.949 139.404ZM126.583 141.14C124.329 141.14 122.915 139.81 122.915 138.004C122.915 137.528 122.985 137.15 123.097 136.758H125.253C125.169 137.08 125.127 137.472 125.127 137.808C125.127 138.69 125.603 139.39 126.611 139.39C127.703 139.39 128.095 138.718 128.095 137.724V133.986C128.095 133.076 127.563 132.614 126.793 132.614C125.995 132.614 125.491 133.048 125.491 133.874C125.491 134.126 125.519 134.42 125.575 134.714H123.419C123.335 134.406 123.279 134.07 123.279 133.622C123.279 131.844 124.791 130.864 126.751 130.864C128.865 130.864 130.251 132.026 130.251 133.93V137.752C130.251 139.866 128.921 141.14 126.583 141.14ZM135.624 141.126C133.524 141.126 131.858 139.782 131.858 137.36C131.858 135.232 133.076 133.93 134.924 133.664C134.966 133.552 134.994 133.44 134.994 133.314C134.994 132.992 134.742 132.782 134.462 132.614C134.028 132.334 133.594 131.788 133.706 131.004H135.736C135.736 131.354 135.974 131.564 136.338 131.816C136.744 132.096 137.08 132.502 137.08 133.062C137.08 133.314 137.024 133.552 136.898 133.79C138.368 134.224 139.418 135.456 139.418 137.36C139.418 139.782 137.864 141.126 135.624 141.126ZM135.652 139.376C136.618 139.376 137.164 138.606 137.164 137.36C137.164 136.114 136.618 135.372 135.638 135.372C134.672 135.372 134.098 136.114 134.098 137.36C134.098 138.606 134.658 139.376 135.652 139.376ZM141.515 141C141.081 139.684 140.773 138.172 140.773 135.526C140.773 132.208 142.411 130.864 144.567 130.864C146.709 130.864 148.347 132.208 148.347 135.526C148.347 138.172 148.039 139.684 147.605 141H145.407C145.785 139.684 146.093 138.032 146.093 135.484C146.093 133.398 145.533 132.642 144.567 132.642C143.587 132.642 143.027 133.398 143.027 135.484C143.027 138.032 143.335 139.684 143.713 141H141.515Z" fill="#413D3D"/>
<g clip-path="url(#clip0_274_628)">
<path d="M102.145 88.9999H96.9307V85.3057H102.145V88.9999ZM98.1013 87.8605H100.975V86.4105H98.1013V87.8605Z" fill="#ED2328"/>
<path d="M128.892 88.9999H123.677V85.3057H128.892V88.9999ZM124.848 87.8605H127.721V86.4105H124.848V87.8605Z" fill="#ED2328"/>
<path d="M128.821 86.3416H97.2145C94.3412 86.3416 92 84.0629 92 81.2664V72.7041C92 69.9076 94.3412 67.6289 97.2145 67.6289H103.99V68.6992H97.2145C94.9443 68.6992 93.0997 70.4945 93.0997 72.7041V81.2664C93.0997 83.476 94.9443 85.2713 97.2145 85.2713H128.821C131.091 85.2713 132.936 83.476 132.936 81.2664V72.7041C132.936 70.4945 131.091 68.6992 128.821 68.6992H121.797V67.6289H128.821C131.694 67.6289 134.035 69.9076 134.035 72.7041V81.2664C134.035 84.0629 131.694 86.3416 128.821 86.3416Z" fill="#ED2328"/>
<path d="M113 76.2948C109.807 76.2948 107.218 73.7744 107.218 70.6672C107.218 67.5599 109.807 65.0396 113 65.0396C116.192 65.0396 118.782 67.5599 118.782 70.6672C118.782 73.7744 116.192 76.2948 113 76.2948ZM113 66.2479C110.481 66.2479 108.459 68.2504 108.459 70.7017C108.459 73.153 110.517 75.1209 113 75.1209C115.483 75.1209 117.54 73.1185 117.54 70.7017C117.54 68.2849 115.483 66.2479 113 66.2479Z" fill="#ED2328"/>
<path d="M113 80.3687C107.502 80.3687 103.067 76.0185 103.067 70.7016C103.067 65.3847 107.537 61 113 61C118.463 61 122.968 65.3502 122.968 70.6671C122.968 75.984 118.498 80.3342 113 80.3342V80.3687ZM113 62.1739C108.175 62.1739 104.273 66.0062 104.273 70.6671C104.273 75.328 108.175 79.1603 113 79.1603C117.824 79.1603 121.726 75.328 121.726 70.6671C121.726 66.0062 117.824 62.1739 113 62.1739Z" fill="#ED2328"/>
</g>
<defs>
<clipPath id="clip0_274_628">
<rect width="42" height="28" fill="white" transform="translate(92 61)"/>
</clipPath>
</defs>
</svg>
