<svg width="128" height="20" viewBox="0 0 128 20" fill="none" xmlns="http://www.w3.org/2000/svg">
<rect width="128" height="20" fill="#8C8C8C"/>
<path d="M23.864 14.12C21.848 14.12 20.624 12.956 20.624 11.06C20.624 9.104 21.68 8.06 23.252 8.06C24.188 8.06 24.764 8.408 25.136 8.864H25.196C25.148 8.588 25.112 8.3 25.112 8.024V7.64C25.112 7.064 24.68 6.704 23.948 6.704C23.312 6.704 22.832 6.98 22.832 7.496V7.592H20.972C20.96 7.448 20.96 7.412 20.96 7.328C20.96 6.068 22.352 5.312 23.936 5.312C25.784 5.312 26.96 6.332 26.96 7.784V11.024C26.96 12.98 25.856 14.12 23.864 14.12ZM23.864 12.644C24.8 12.644 25.232 12.044 25.232 11.204V11.012C25.232 10.292 25.004 9.536 23.816 9.536C23 9.536 22.508 10.136 22.508 11.084C22.508 11.984 22.94 12.644 23.864 12.644ZM29.101 14C28.729 12.872 28.465 11.576 28.465 9.308C28.465 6.464 29.869 5.312 31.717 5.312C33.553 5.312 34.957 6.464 34.957 9.308C34.957 11.576 34.693 12.872 34.321 14H32.437C32.761 12.872 33.025 11.456 33.025 9.272C33.025 7.484 32.545 6.836 31.717 6.836C30.877 6.836 30.397 7.484 30.397 9.272C30.397 11.456 30.661 12.872 30.985 14H29.101ZM39.5568 14.12C37.5648 14.12 36.4728 12.98 36.4728 10.94V7.88C36.4728 6.08 37.6728 5.432 38.9688 5.432H42.1968V6.92H39.1488C38.6208 6.92 38.3088 7.148 38.3088 7.724V8.012C38.3088 8.264 38.2728 8.564 38.2128 8.792H38.2728C38.6688 8.276 39.2448 7.94 40.1688 7.94C41.7408 7.94 42.7968 9.128 42.7968 10.988C42.7968 12.956 41.5728 14.12 39.5568 14.12ZM39.5808 12.644C40.5408 12.644 40.9488 11.936 40.9488 11.024C40.9488 10.052 40.4448 9.44 39.6168 9.44C38.5728 9.44 38.2128 10.172 38.2128 11V11.192C38.2128 12.044 38.6568 12.644 39.5808 12.644ZM44.6635 14C44.2915 12.872 44.0275 11.576 44.0275 9.308C44.0275 6.464 45.4315 5.312 47.2795 5.312C49.1155 5.312 50.5195 6.464 50.5195 9.308C50.5195 11.576 50.2555 12.872 49.8835 14H47.9995C48.3235 12.872 48.5875 11.456 48.5875 9.272C48.5875 7.484 48.1075 6.836 47.2795 6.836C46.4395 6.836 45.9595 7.484 45.9595 9.272C45.9595 11.456 46.2235 12.872 46.5475 14H44.6635ZM55.0593 14.12C53.0433 14.12 51.8193 12.956 51.8193 11.06C51.8193 9.104 52.8753 8.06 54.4473 8.06C55.3833 8.06 55.9593 8.408 56.3313 8.864H56.3913C56.3433 8.588 56.3073 8.3 56.3073 8.024V7.64C56.3073 7.064 55.8753 6.704 55.1433 6.704C54.5073 6.704 54.0273 6.98 54.0273 7.496V7.592H52.1673C52.1553 7.448 52.1553 7.412 52.1553 7.328C52.1553 6.068 53.5473 5.312 55.1313 5.312C56.9793 5.312 58.1553 6.332 58.1553 7.784V11.024C58.1553 12.98 57.0513 14.12 55.0593 14.12ZM55.0593 12.644C55.9953 12.644 56.4273 12.044 56.4273 11.204V11.012C56.4273 10.292 56.1993 9.536 55.0113 9.536C54.1953 9.536 53.7033 10.136 53.7033 11.084C53.7033 11.984 54.1353 12.644 55.0593 12.644ZM62.4619 14.12C60.5899 14.12 59.3059 13.028 59.3059 11.24C59.3059 10.808 59.3419 10.4 59.5699 9.776H61.4179C61.2379 10.34 61.2019 10.796 61.2019 11.132C61.2019 11.996 61.6099 12.62 62.4619 12.62C63.3739 12.62 63.7339 11.984 63.7339 11.072C63.7339 10.028 63.2419 9.32 62.7259 8.648C62.0299 7.748 61.3099 6.896 61.5139 5.432H63.3619C63.2539 6.356 63.8059 7.028 64.3819 7.808C64.9819 8.612 65.6299 9.536 65.6299 11.024C65.6299 12.908 64.4419 14.12 62.4619 14.12ZM74.3866 14C74.2906 13.088 72.8386 12.584 71.4826 12.584C70.3066 12.584 69.4546 12.92 68.7946 13.268L68.0986 12.152C68.4226 11.936 68.8546 11.756 69.2986 11.672V11.636C67.4746 11.12 66.5146 9.908 66.5146 8.168C66.5146 6.584 67.4026 5.312 69.1426 5.312C70.1506 5.312 70.8706 5.78 71.1586 6.584H71.2306C71.5066 5.756 72.1186 5.312 73.0426 5.312C73.9426 5.312 74.6146 5.792 74.8546 6.584H74.9266C75.2146 5.78 75.8746 5.312 76.8706 5.312C78.5986 5.312 79.5946 6.584 79.5946 8.36C79.5946 9.392 79.3666 10.232 78.8866 11.156L77.1946 10.58C77.5666 9.824 77.7226 9.092 77.7226 8.336C77.7226 7.28 77.3266 6.8 76.7146 6.8C76.0786 6.8 75.8026 7.4 75.8026 8.216V9.536H73.9786V8.108C73.9786 7.388 73.7266 6.8 73.0426 6.8C72.3826 6.8 72.1066 7.352 72.1066 8.108V9.536H70.2946V8.216C70.2946 7.436 70.0666 6.8 69.3946 6.8C68.7706 6.8 68.3746 7.244 68.3746 8.3C68.3746 10.052 69.6946 10.844 71.9026 11.072C74.3266 11.3 75.9706 12.152 76.1866 14H74.3866ZM83.8883 14.12C81.9563 14.12 80.7443 12.98 80.7443 11.432C80.7443 11.024 80.8043 10.7 80.9003 10.364H82.7483C82.6763 10.64 82.6403 10.976 82.6403 11.264C82.6403 12.02 83.0483 12.62 83.9123 12.62C84.8483 12.62 85.1843 12.044 85.1843 11.192V7.7C85.1843 7.088 84.9323 6.788 84.4403 6.788C83.9843 6.788 83.6843 7.052 83.6843 7.676V8.84H81.9083V7.664C81.9083 7.148 81.6323 6.872 81.1403 6.872H80.4323V5.372H81.1883C81.9563 5.372 82.5443 5.66 82.8323 6.368H82.8683C83.1683 5.684 83.8523 5.312 84.6923 5.312C86.1803 5.312 87.0323 6.2 87.0323 7.568V11.228C87.0323 13.04 85.8923 14.12 83.8883 14.12ZM89.1233 14C88.6313 12.716 88.4873 11.9 88.4873 10.52C88.4873 7.736 89.3873 6.116 92.3153 5.66C93.1673 5.528 94.1633 5.408 95.2073 5.3L95.4113 6.824C94.1513 6.968 93.1553 7.076 92.4593 7.172C91.5113 7.304 90.3833 7.556 89.9993 8.372H90.0353C90.3953 7.988 90.8873 7.868 91.3913 7.868C92.2553 7.868 92.9153 8.348 93.2033 9.164H93.2393C93.5393 8.348 94.2113 7.868 95.3033 7.868C97.0193 7.868 97.9553 9.176 97.9553 10.904C97.9553 12.032 97.7273 12.956 97.3073 14H95.4473C95.8433 13.028 96.0833 12.08 96.0833 10.94C96.0833 10.052 95.8073 9.272 95.0393 9.272C94.3793 9.272 94.1033 9.884 94.1033 10.676V12.152H92.3273V10.676C92.3273 9.752 92.0153 9.272 91.3913 9.272C90.7073 9.272 90.3473 9.788 90.3473 10.976C90.3473 12.032 90.5753 13.004 90.9833 14H89.1233ZM99.765 14C99.393 12.872 99.129 11.576 99.129 9.308C99.129 6.464 100.533 5.312 102.381 5.312C104.217 5.312 105.621 6.464 105.621 9.308C105.621 11.576 105.357 12.872 104.985 14H103.101C103.425 12.872 103.689 11.456 103.689 9.272C103.689 7.484 103.209 6.836 102.381 6.836C101.541 6.836 101.061 7.484 101.061 9.272C101.061 11.456 101.325 12.872 101.649 14H99.765Z" fill="white"/>
</svg>
