<svg width="219" height="80" viewBox="0 0 219 80" fill="none" xmlns="http://www.w3.org/2000/svg">
<rect y="16" width="128" height="20" fill="#ED2328"/>
<path d="M17.044 30.12C14.968 30.12 13.84 28.968 13.84 26.964V21.432H15.688V27.084C15.688 28.056 16.144 28.632 17.032 28.632C17.884 28.632 18.316 28.008 18.316 27.312C18.316 26.58 18.028 26.16 17.716 25.716C17.38 25.236 17.092 24.684 17.164 23.796H19.024C19 24.396 19.24 24.756 19.564 25.248C19.888 25.74 20.212 26.28 20.212 27.216C20.212 28.944 18.976 30.12 17.044 30.12ZM25.6669 30.12C22.9189 30.12 21.3349 28.416 21.3349 25.752C21.3349 23.424 22.5589 21.876 24.7789 21.576C24.7429 21.396 24.7309 21.252 24.7309 21.084V20.94H26.5909V21.084C26.5909 21.252 26.5789 21.396 26.5549 21.564C28.7749 21.864 30.0109 23.4 30.0109 25.764C30.0109 28.368 28.4269 30.12 25.6669 30.12ZM25.6669 28.596C27.2269 28.596 28.0669 27.66 28.0669 25.752C28.0669 24.084 27.5029 23.22 26.4589 22.98C26.5069 23.208 26.5429 23.52 26.5429 24.072V25.908H24.7669V24.072C24.7669 23.544 24.8029 23.256 24.8509 22.992C23.7829 23.232 23.2669 24.18 23.2669 25.752C23.2669 27.648 24.1309 28.596 25.6669 28.596ZM34.2627 30.12C32.3907 30.12 31.1067 29.028 31.1067 27.24C31.1067 26.808 31.1427 26.4 31.3707 25.776H33.2187C33.0387 26.34 33.0027 26.796 33.0027 27.132C33.0027 27.996 33.4107 28.62 34.2627 28.62C35.1747 28.62 35.5347 27.984 35.5347 27.072C35.5347 26.028 35.0427 25.32 34.5267 24.648C33.8307 23.748 33.1107 22.896 33.3147 21.432H35.1627C35.0547 22.356 35.6067 23.028 36.1827 23.808C36.7827 24.612 37.4307 25.536 37.4307 27.024C37.4307 28.908 36.2427 30.12 34.2627 30.12ZM41.9084 30.12C39.9164 30.12 38.8244 28.98 38.8244 26.94V23.88C38.8244 22.08 40.0244 21.432 41.3204 21.432H44.5484V22.92H41.5004C40.9724 22.92 40.6604 23.148 40.6604 23.724V24.012C40.6604 24.264 40.6244 24.564 40.5644 24.792H40.6244C41.0204 24.276 41.5964 23.94 42.5204 23.94C44.0924 23.94 45.1484 25.128 45.1484 26.988C45.1484 28.956 43.9244 30.12 41.9084 30.12ZM41.9324 28.644C42.8924 28.644 43.3004 27.936 43.3004 27.024C43.3004 26.052 42.7964 25.44 41.9684 25.44C40.9244 25.44 40.5644 26.172 40.5644 27V27.192C40.5644 28.044 41.0084 28.644 41.9324 28.644ZM52.2541 30C52.1341 29.28 51.0541 28.956 50.0461 28.956C49.2901 28.956 48.5101 29.136 47.9101 29.448L47.2861 28.296C47.5861 28.104 47.9941 27.924 48.4501 27.888V27.84C47.0101 27.276 46.0381 25.98 46.0381 24.312C46.0381 22.608 46.9981 21.312 48.8101 21.312C49.8181 21.312 50.5861 21.732 50.9221 22.464H50.9821C51.3301 21.744 52.1941 21.312 53.2261 21.312C55.0621 21.312 56.2861 22.452 56.2861 24.252C56.2861 26.004 54.9781 27.132 53.1781 27.132C51.2341 27.132 50.0461 26.004 50.0461 24.312V24.036C50.0461 23.28 49.7101 22.728 49.0141 22.728C48.2461 22.728 47.9101 23.448 47.9101 24.312C47.9101 26.436 49.4941 27.144 51.1141 27.54C52.5061 27.888 53.8981 28.356 54.0421 30H52.2541ZM53.1541 25.728C54.0061 25.728 54.3901 25.104 54.3901 24.228C54.3901 23.34 53.9941 22.728 53.1661 22.728C52.3141 22.728 51.9301 23.34 51.9301 24.228C51.9301 25.092 52.3141 25.728 53.1541 25.728ZM59.9502 30.12C58.0782 30.12 56.7942 29.028 56.7942 27.24C56.7942 26.808 56.8302 26.4 57.0582 25.776H58.9062C58.7262 26.34 58.6902 26.796 58.6902 27.132C58.6902 27.996 59.0982 28.62 59.9502 28.62C60.8622 28.62 61.2222 27.984 61.2222 27.072C61.2222 26.028 60.7302 25.32 60.2142 24.648C59.5182 23.748 58.7982 22.896 59.0022 21.432H60.8502C60.7422 22.356 61.2942 23.028 61.8702 23.808C62.4702 24.612 63.1182 25.536 63.1182 27.024C63.1182 28.908 61.9302 30.12 59.9502 30.12ZM65.0022 30C64.5102 28.716 64.3662 27.9 64.3662 26.52C64.3662 23.736 65.2662 22.116 68.1942 21.66C69.0462 21.528 70.0422 21.408 71.0862 21.3L71.2902 22.824C70.0302 22.968 69.0342 23.076 68.3382 23.172C67.3902 23.304 66.2622 23.556 65.8782 24.372H65.9142C66.2742 23.988 66.7662 23.868 67.2702 23.868C68.1342 23.868 68.7942 24.348 69.0822 25.164H69.1182C69.4182 24.348 70.0902 23.868 71.1822 23.868C72.8982 23.868 73.8342 25.176 73.8342 26.904C73.8342 28.032 73.6062 28.956 73.1862 30H71.3262C71.7222 29.028 71.9622 28.08 71.9622 26.94C71.9622 26.052 71.6862 25.272 70.9182 25.272C70.2582 25.272 69.9822 25.884 69.9822 26.676V28.152H68.2062V26.676C68.2062 25.752 67.8942 25.272 67.2702 25.272C66.5862 25.272 66.2262 25.788 66.2262 26.976C66.2262 28.032 66.4542 29.004 66.8622 30H65.0022ZM79.2919 30.12C76.5439 30.12 74.9599 28.416 74.9599 25.752C74.9599 23.424 76.1839 21.876 78.4039 21.576C78.3679 21.396 78.3559 21.252 78.3559 21.084V20.94H80.2159V21.084C80.2159 21.252 80.2039 21.396 80.1799 21.564C82.3999 21.864 83.6359 23.4 83.6359 25.764C83.6359 28.368 82.0519 30.12 79.2919 30.12ZM79.2919 28.596C80.8519 28.596 81.6919 27.66 81.6919 25.752C81.6919 24.084 81.1279 23.22 80.0839 22.98C80.1319 23.208 80.1679 23.52 80.1679 24.072V25.908H78.3919V24.072C78.3919 23.544 78.4279 23.256 78.4759 22.992C77.4079 23.232 76.8919 24.18 76.8919 25.752C76.8919 27.648 77.7559 28.596 79.2919 28.596ZM87.9625 30.12C86.0305 30.12 84.8185 28.98 84.8185 27.432C84.8185 27.024 84.8785 26.7 84.9745 26.364H86.8225C86.7505 26.64 86.7145 26.976 86.7145 27.264C86.7145 28.02 87.1225 28.62 87.9865 28.62C88.9225 28.62 89.2585 28.044 89.2585 27.192V23.7C89.2585 23.088 89.0065 22.788 88.5145 22.788C88.0585 22.788 87.7585 23.052 87.7585 23.676V24.84H85.9825V23.664C85.9825 23.148 85.7065 22.872 85.2145 22.872H84.5065V21.372H85.2625C86.0305 21.372 86.6185 21.66 86.9065 22.368H86.9425C87.2425 21.684 87.9265 21.312 88.7665 21.312C90.2545 21.312 91.1065 22.2 91.1065 23.568V27.228C91.1065 29.04 89.9665 30.12 87.9625 30.12ZM100.269 30C100.173 29.088 98.7214 28.584 97.3654 28.584C96.1894 28.584 95.3374 28.92 94.6774 29.268L93.9814 28.152C94.3054 27.936 94.7374 27.756 95.1814 27.672V27.636C93.3574 27.12 92.3974 25.908 92.3974 24.168C92.3974 22.584 93.2854 21.312 95.0254 21.312C96.0334 21.312 96.7534 21.78 97.0414 22.584H97.1134C97.3894 21.756 98.0014 21.312 98.9254 21.312C99.8254 21.312 100.497 21.792 100.737 22.584H100.809C101.097 21.78 101.757 21.312 102.753 21.312C104.481 21.312 105.477 22.584 105.477 24.36C105.477 25.392 105.249 26.232 104.769 27.156L103.077 26.58C103.449 25.824 103.605 25.092 103.605 24.336C103.605 23.28 103.209 22.8 102.597 22.8C101.961 22.8 101.685 23.4 101.685 24.216V25.536H99.8614V24.108C99.8614 23.388 99.6094 22.8 98.9254 22.8C98.2654 22.8 97.9894 23.352 97.9894 24.108V25.536H96.1774V24.216C96.1774 23.436 95.9494 22.8 95.2774 22.8C94.6534 22.8 94.2574 23.244 94.2574 24.3C94.2574 26.052 95.5774 26.844 97.7854 27.072C100.209 27.3 101.853 28.152 102.069 30H100.269ZM107.413 30C107.041 28.872 106.777 27.576 106.777 25.308C106.777 22.464 108.181 21.312 110.029 21.312C111.865 21.312 113.269 22.464 113.269 25.308C113.269 27.576 113.005 28.872 112.633 30H110.749C111.073 28.872 111.337 27.456 111.337 25.272C111.337 23.484 110.857 22.836 110.029 22.836C109.189 22.836 108.709 23.484 108.709 25.272C108.709 27.456 108.973 28.872 109.297 30H107.413Z" fill="white"/>
<path d="M217.1 76.88C217.1 78.54 216.16 79.54 215.03 79.54C214.76 79.54 214.55 79.5 214.3 79.42L214.3 77.91C214.51 77.96 214.69 77.98 214.86 77.98C215.46 77.98 215.91 77.61 215.91 76.88C215.91 76.12 215.39 75.79 214.78 75.79C214.05 75.79 213.71 76.28 213.71 77.02L213.71 77.44L212.53 77.44L212.53 76.9C212.53 76.27 212.32 76.03 212.03 76.03C211.68 76.03 211.53 76.34 211.38 76.7C211.16 77.27 210.73 77.82 209.86 77.75L209.86 76.16C210.18 76.14 210.35 75.86 210.56 75.43C210.78 74.96 211.14 74.42 211.95 74.42C212.58 74.42 212.97 74.88 213.12 75.5L213.15 75.5C213.3 74.88 213.9 74.21 214.9 74.21C216.17 74.21 217.1 75.23 217.1 76.88ZM217 72.46C215.87 72.89 214.75 73.19 213.01 73.19C210.68 73.19 209.76 72.09 209.76 70.77C209.76 70.13 210.02 69.41 210.82 69.09L210.82 69.05C210.01 68.72 209.76 68.01 209.76 67.32C209.76 66.06 210.69 64.96 213.01 64.96C214.78 64.96 215.87 65.26 217 65.69L217 67.26C215.86 66.86 214.63 66.57 212.98 66.57C211.53 66.57 211.03 66.92 211.03 67.47C211.03 68.06 211.55 68.27 212.41 68.27L214.91 68.27L214.91 69.87L212.41 69.87C211.57 69.87 211.03 70.09 211.03 70.68C211.03 71.22 211.53 71.58 212.98 71.58C214.65 71.58 215.86 71.28 217 70.89L217 72.46ZM217.1 61.4015C217.1 63.0615 216.16 64.0615 215.03 64.0615C214.76 64.0615 214.55 64.0215 214.3 63.9415L214.3 62.4315C214.51 62.4815 214.69 62.5015 214.86 62.5015C215.46 62.5015 215.91 62.1315 215.91 61.4015C215.91 60.6415 215.39 60.3115 214.78 60.3115C214.05 60.3115 213.71 60.8015 213.71 61.5415L213.71 61.9615L212.53 61.9615L212.53 61.4215C212.53 60.7915 212.32 60.5515 212.03 60.5515C211.68 60.5515 211.53 60.8615 211.38 61.2215C211.16 61.7915 210.73 62.3415 209.86 62.2715L209.86 60.6815C210.18 60.6615 210.35 60.3815 210.56 59.9515C210.78 59.4815 211.14 58.9415 211.95 58.9415C212.58 58.9415 212.97 59.4015 213.12 60.0215L213.15 60.0215C213.3 59.4015 213.9 58.7315 214.9 58.7315C216.17 58.7315 217.1 59.7515 217.1 61.4015ZM217.1 54.9629C217.1 56.5729 216.15 57.5829 214.86 57.5829C214.52 57.5829 214.25 57.5329 213.97 57.4529L213.97 55.9129C214.2 55.9729 214.48 56.0029 214.72 56.0029C215.35 56.0029 215.85 55.6629 215.85 54.9429C215.85 54.1629 215.37 53.8829 214.66 53.8829L211.75 53.8829C211.24 53.8829 210.99 54.0929 210.99 54.5029C210.99 54.8829 211.21 55.1329 211.73 55.1329L212.7 55.1329L212.7 56.6129L211.72 56.6129C211.29 56.6129 211.06 56.8429 211.06 57.2529L211.06 57.8429L209.81 57.8429L209.81 57.2129C209.81 56.5729 210.05 56.0829 210.64 55.8429L210.64 55.8129C210.07 55.5629 209.76 54.9929 209.76 54.2929C209.76 53.0529 210.5 52.3429 211.64 52.3429L214.69 52.3429C216.2 52.3429 217.1 53.2929 217.1 54.9629ZM217 44.7071C216.24 44.7871 215.82 45.9971 215.82 47.1271C215.82 48.1071 216.1 48.8171 216.39 49.3671L215.46 49.9471C215.28 49.6771 215.13 49.3171 215.06 48.9471L215.03 48.9471C214.6 50.4671 213.59 51.2671 212.14 51.2671C210.82 51.2671 209.76 50.5271 209.76 49.0771C209.76 48.2371 210.15 47.6371 210.82 47.3971L210.82 47.3371C210.13 47.1071 209.76 46.5971 209.76 45.8271C209.76 45.0771 210.16 44.5171 210.82 44.3171L210.82 44.2571C210.15 44.0171 209.76 43.4671 209.76 42.6371C209.76 41.1971 210.82 40.3671 212.3 40.3671C213.16 40.3671 213.86 40.5571 214.63 40.9571L214.15 42.3671C213.52 42.0571 212.91 41.9271 212.28 41.9271C211.4 41.9271 211 42.2571 211 42.7671C211 43.2971 211.5 43.5271 212.18 43.5271L213.28 43.5271L213.28 45.0471L212.09 45.0471C211.49 45.0471 211 45.2571 211 45.8271C211 46.3771 211.46 46.6071 212.09 46.6071L213.28 46.6071L213.28 48.1171L212.18 48.1171C211.53 48.1171 211 48.3071 211 48.8671C211 49.3871 211.37 49.7171 212.25 49.7171C213.71 49.7171 214.37 48.6171 214.56 46.7771C214.75 44.7571 215.46 43.3871 217 43.2071L217 44.7071ZM217.1 37.0565C217.1 38.6165 216.19 39.6865 214.7 39.6865C214.34 39.6865 214 39.6565 213.48 39.4665L213.48 37.9265C213.95 38.0765 214.33 38.1065 214.61 38.1065C215.33 38.1065 215.85 37.7665 215.85 37.0565C215.85 36.2965 215.32 35.9965 214.56 35.9965C213.69 35.9965 213.1 36.4065 212.54 36.8365C211.79 37.4165 211.08 38.0165 209.86 37.8465L209.86 36.3065C210.63 36.3965 211.19 35.9365 211.84 35.4565C212.51 34.9565 213.28 34.4165 214.52 34.4165C216.09 34.4165 217.1 35.4065 217.1 37.0565ZM217 32.8465C215.93 33.2565 215.25 33.3765 214.1 33.3765C211.78 33.3765 210.43 32.6265 210.05 30.1865C209.94 29.4765 209.84 28.6465 209.75 27.7765L211.02 27.6065C211.14 28.6565 211.23 29.4865 211.31 30.0665C211.42 30.8565 211.63 31.7965 212.31 32.1165L212.31 32.0865C211.99 31.7865 211.89 31.3765 211.89 30.9565C211.89 30.2365 212.29 29.6865 212.97 29.4465L212.97 29.4165C212.29 29.1665 211.89 28.6065 211.89 27.6965C211.89 26.2665 212.98 25.4865 214.42 25.4865C215.36 25.4865 216.13 25.6765 217 26.0265L217 27.5765C216.19 27.2465 215.4 27.0465 214.45 27.0465C213.71 27.0465 213.06 27.2765 213.06 27.9165C213.06 28.4665 213.57 28.6965 214.23 28.6965L215.46 28.6965L215.46 30.1765L214.23 30.1765C213.46 30.1765 213.06 30.4365 213.06 30.9565C213.06 31.5265 213.49 31.8265 214.48 31.8265C215.36 31.8265 216.17 31.6365 217 31.2965L217 32.8465ZM217.1 21.877C217.1 23.487 216.15 24.497 214.86 24.497C214.52 24.497 214.25 24.447 213.97 24.367L213.97 22.827C214.2 22.887 214.48 22.917 214.72 22.917C215.35 22.917 215.85 22.577 215.85 21.857C215.85 21.077 215.37 20.797 214.66 20.797L211.75 20.797C211.24 20.797 210.99 21.007 210.99 21.417C210.99 21.797 211.21 22.047 211.73 22.047L212.7 22.047L212.7 23.527L211.72 23.527C211.29 23.527 211.06 23.757 211.06 24.167L211.06 24.757L209.81 24.757L209.81 24.127C209.81 23.487 210.05 22.997 210.64 22.757L210.64 22.727C210.07 22.477 209.76 21.907 209.76 21.207C209.76 19.967 210.5 19.257 211.64 19.257L214.69 19.257C216.2 19.257 217.1 20.207 217.1 21.877ZM217 11.6212C216.24 11.7012 215.82 12.9112 215.82 14.0412C215.82 15.0212 216.1 15.7312 216.39 16.2812L215.46 16.8612C215.28 16.5912 215.13 16.2312 215.06 15.8612L215.03 15.8612C214.6 17.3812 213.59 18.1812 212.14 18.1812C210.82 18.1812 209.76 17.4412 209.76 15.9912C209.76 15.1512 210.15 14.5512 210.82 14.3112L210.82 14.2512C210.13 14.0212 209.76 13.5112 209.76 12.7412C209.76 11.9912 210.16 11.4312 210.82 11.2312L210.82 11.1712C210.15 10.9312 209.76 10.3812 209.76 9.55117C209.76 8.11117 210.82 7.28117 212.3 7.28117C213.16 7.28117 213.86 7.47117 214.63 7.87117L214.15 9.28117C213.52 8.97117 212.91 8.84117 212.28 8.84117C211.4 8.84117 211 9.17117 211 9.68117C211 10.2112 211.5 10.4412 212.18 10.4412L213.28 10.4412L213.28 11.9612L212.09 11.9612C211.49 11.9612 211 12.1712 211 12.7412C211 13.2912 211.46 13.5212 212.09 13.5212L213.28 13.5212L213.28 15.0312L212.18 15.0312C211.53 15.0312 211 15.2212 211 15.7812C211 16.3012 211.37 16.6312 212.25 16.6312C213.71 16.6312 214.37 15.5312 214.56 13.6912C214.75 11.6712 215.46 10.3012 217 10.1212L217 11.6212ZM217 5.66781C216.06 5.97781 214.98 6.19781 213.09 6.19781C210.72 6.19781 209.76 5.02781 209.76 3.48781C209.76 1.95781 210.72 0.787812 213.09 0.787812C214.98 0.787812 216.06 1.00781 217 1.31781L217 2.88781C216.06 2.61781 214.88 2.39781 213.06 2.39781C211.57 2.39781 211.03 2.79781 211.03 3.48781C211.03 4.18781 211.57 4.58781 213.06 4.58781C214.88 4.58781 216.06 4.36781 217 4.09781L217 5.66781Z" fill="white"/>
</svg>
