<svg width="34" height="36" viewBox="0 0 34 36" fill="none" xmlns="http://www.w3.org/2000/svg">
<g clip-path="url(#clip0_576_317)">
<path d="M18.9572 0H3.53058C1.65022 0 0.115234 1.58881 0.115234 3.48762V6.16146C0.115234 7.44026 0.805979 8.5253 1.80372 9.14532C2.22584 9.45533 2.76309 9.57158 3.30034 9.57158C3.37709 9.57158 3.45384 9.57158 3.53058 9.57158H18.9572C18.9572 9.57158 19.1107 9.57158 19.1875 9.57158C19.7247 9.57158 20.2236 9.41658 20.6841 9.14532C21.6818 8.56405 22.3726 7.44026 22.3726 6.16146V3.48762C22.3726 1.58881 20.8376 0 18.9572 0ZM21.4516 6.16146C21.4516 7.47901 20.4538 8.56405 19.1491 8.6803H3.30034C2.03397 8.56405 0.997853 7.47901 0.997853 6.16146V3.48762C0.997853 2.09257 2.14909 0.930032 3.53058 0.930032H18.9572C20.3387 0.930032 21.4516 2.09257 21.4516 3.48762V6.16146Z" fill="#ED2328"/>
<path d="M20.6457 9.1455C20.2236 8.87424 19.6863 8.71924 19.1491 8.71924C19.0723 8.71924 18.9956 8.71924 18.9188 8.71924H3.53058C3.53058 8.71924 3.37709 8.71924 3.30034 8.71924C2.76309 8.71924 2.26422 8.91299 1.80372 9.1455C0.805979 9.72677 0.115234 10.8506 0.115234 12.1681V14.842C0.115234 16.082 0.767605 17.2058 1.76535 17.7871C2.22584 18.0971 2.76309 18.2521 3.30034 18.2521C3.37709 18.2521 3.49221 18.2521 3.56896 18.2521H17.3455C17.6909 17.9033 18.113 17.5933 18.5351 17.322H3.53058C3.53058 17.322 3.33871 17.322 3.26196 17.322C1.9956 17.2058 0.997853 16.1595 0.997853 14.842V12.1681C0.997853 10.8506 1.9956 9.72677 3.30034 9.61052H19.1491C20.4155 9.72677 21.4516 10.8506 21.4516 12.1681V14.842C21.4516 14.842 21.4516 15.0745 21.4516 15.1907C21.4516 15.5395 21.2597 15.927 21.1062 16.237C21.4516 16.1207 21.8737 16.0432 22.2191 15.9657C22.3342 15.6557 22.3726 15.3457 22.3726 14.997C22.3726 14.9195 22.3726 14.8807 22.3726 14.8032V12.1294C22.3726 10.8506 21.6818 9.72677 20.6841 9.10675L20.6457 9.1455Z" fill="#ED2328"/>
<path d="M16.8081 26.0021H15.8871C15.8871 26.3121 15.8871 26.6221 15.9639 26.9321H16.9233C16.8465 26.6221 16.8081 26.3508 16.8081 26.0021ZM21.0293 18.1356C20.684 18.2131 20.377 18.3681 20.0316 18.5231C20.3386 18.6781 20.5688 18.9106 20.7991 19.1818C21.1061 19.0268 21.3747 18.9106 21.7201 18.8331C21.4898 18.5231 21.298 18.2906 21.0293 18.0968V18.1356ZM3.26185 17.3218C2.72461 17.3218 2.22573 17.5155 1.72686 17.748C0.690745 18.3293 0 19.4919 0 20.8094V23.4832C0 24.762 0.690745 25.8471 1.68849 26.5058C2.18736 26.7771 2.76298 26.9321 3.37698 26.9321H14.1219C14.1219 26.6221 14.0451 26.3508 14.0451 26.0021H3.41535C2.03386 26.0021 0.920993 24.8783 0.920993 23.4832V20.8094C0.920993 19.4531 1.95711 18.3293 3.26185 18.2518H17.307C17.6524 17.903 18.0745 17.6318 18.4966 17.3605H3.22348L3.26185 17.3218Z" fill="#ED2328"/>
<path d="M16.8083 26.002H15.8873C15.8873 26.312 15.8873 26.622 15.9641 26.932H16.9234C16.8467 26.622 16.8083 26.3507 16.8083 26.002ZM21.3365 31.9309V32.1247C21.3365 32.4347 21.3365 32.6672 21.2214 32.8997C21.49 33.0159 21.7587 33.0935 22.0657 33.171C22.1808 32.8609 22.2575 32.5897 22.2575 32.2409C21.9122 32.2409 21.6435 32.0859 21.3365 31.9309ZM18.8038 34.6823H3.41555C2.03406 34.6823 0.921193 33.5585 0.921193 32.1247V29.4896C0.921193 28.0558 2.03406 26.932 3.41555 26.932H14.1605C14.1605 26.622 14.0837 26.3507 14.0837 26.002H3.41555C2.80155 26.002 2.22593 26.1957 1.72706 26.467C0.729319 27.0482 0.0385742 28.172 0.0385742 29.4896V32.1247C0.0385742 34.0235 1.57356 35.6123 3.45392 35.6123H18.8422C19.2643 35.6123 19.6864 35.5348 20.0318 35.341C20.4155 35.2248 20.7993 34.9923 21.0679 34.721C20.7225 34.6435 20.3388 34.5272 20.0318 34.3722C19.6864 34.6048 19.2643 34.721 18.8422 34.721L18.8038 34.6823Z" fill="#ED2328"/>
<path d="M23.6003 17.6704C22.6793 17.6704 21.8351 17.8254 21.0292 18.1354C20.6838 18.2129 20.3768 18.3679 20.0315 18.5229C17.5755 19.8017 15.8486 22.3981 15.8486 25.4594C15.8486 25.6532 15.8486 25.8082 15.8486 25.9632C15.8486 26.2732 15.8486 26.5832 15.9254 26.8932C16.4626 29.7221 18.4965 32.0084 21.1827 32.8609C21.4513 32.9772 21.72 33.0547 22.027 33.1322C22.5258 33.2485 23.0247 33.2872 23.562 33.2872C27.8215 33.2872 31.2753 29.7608 31.2753 25.4982C31.2753 21.2355 27.7832 17.7092 23.562 17.7092L23.6003 17.6704ZM23.6003 32.3572C23.1398 32.3572 22.6793 32.3572 22.2572 32.2022C21.9118 32.2022 21.6432 32.0472 21.3362 31.8922C19.0721 31.1559 17.422 29.2571 16.9231 26.8545C16.8464 26.5445 16.808 26.2732 16.808 25.9244C16.808 25.7694 16.808 25.5757 16.808 25.4207C16.808 22.6306 18.4581 20.228 20.8373 19.143C21.1443 18.988 21.413 18.8717 21.7583 18.7942C22.334 18.6004 22.9863 18.4842 23.6387 18.4842C27.361 18.4842 30.4694 21.5455 30.4694 25.3819C30.4694 29.2183 27.3994 32.2797 23.6387 32.2797L23.6003 32.3572Z" fill="#ED2328"/>
<path d="M16.9231 17.322H18.6116C19.3791 16.8182 20.2233 16.4307 21.106 16.1982C21.2978 15.8495 21.4513 15.5007 21.4513 15.1519C19.7629 15.5007 18.2279 16.2757 16.9615 17.322H16.9231ZM17.3069 18.2133H16.0021C14.2369 20.1121 13.1624 22.631 13.1624 25.421V25.9248H14.1218C14.1218 25.9248 14.1218 25.5761 14.1218 25.421C14.1218 22.5534 15.3498 19.9571 17.3452 18.2133H17.3069ZM16.9231 17.322H18.6116C19.3791 16.8182 20.2233 16.4307 21.106 16.1982C21.2978 15.8495 21.4513 15.5007 21.4513 15.1519C19.7629 15.5007 18.2279 16.2757 16.9615 17.322H16.9231ZM17.3069 18.2133H16.0021C14.2369 20.1121 13.1624 22.631 13.1624 25.421V25.9248H14.1218C14.1218 25.9248 14.1218 25.5761 14.1218 25.421C14.1218 22.5534 15.3498 19.9571 17.3452 18.2133H17.3069ZM16.9231 17.322H18.6116C19.3791 16.8182 20.2233 16.4307 21.106 16.1982C21.2978 15.8495 21.4513 15.5007 21.4513 15.1519C19.7629 15.5007 18.2279 16.2757 16.9615 17.322H16.9231ZM15.9638 18.252C14.1985 20.1509 13.124 22.6697 13.124 25.4598V25.9636H14.0834C14.0834 25.9636 14.0834 25.6148 14.0834 25.4598C14.0834 22.5922 15.3114 19.9959 17.3069 18.252H16.0021H15.9638ZM23.6003 14.9194C23.1782 14.9194 22.7561 14.9194 22.334 14.9969C22.027 14.9969 21.72 15.0744 21.413 15.1519C19.7245 15.5007 18.1895 16.2757 16.9231 17.322L16.0405 18.2133C14.2753 20.1121 13.2008 22.631 13.2008 25.421V25.9248C13.2008 26.2736 13.2775 26.5448 13.3159 26.8548C13.738 30.1875 15.7719 33.0551 18.5732 34.6439C19.0337 34.9151 19.571 35.1476 20.0698 35.3026C21.1827 35.7289 22.4107 35.9614 23.6771 35.9614C29.3949 35.9614 34.0766 31.2338 34.0766 25.4598C34.0766 19.6859 29.3949 14.9194 23.6771 14.9194H23.6003ZM23.6003 35.0701C22.7177 35.0701 21.8735 34.9539 21.0676 34.7214C20.7222 34.6439 20.3385 34.5276 20.0315 34.3726C16.9615 33.1326 14.6974 30.3425 14.1985 26.9324C14.1985 26.6223 14.1218 26.3511 14.1218 26.0023C14.1218 25.8086 14.1218 25.6536 14.1218 25.4986C14.1218 22.631 15.3498 20.0346 17.3452 18.2908C17.6906 17.942 18.1127 17.632 18.5349 17.3608C19.3024 16.857 20.1466 16.4695 21.0292 16.237C21.3746 16.1207 21.7967 16.0432 22.1421 15.9657C22.6026 15.8882 23.1014 15.8495 23.5619 15.8495C28.8193 15.8495 33.0789 20.1896 33.0789 25.4986C33.0789 30.8075 28.8193 35.1089 23.5619 35.1089L23.6003 35.0701ZM17.3069 18.2133H16.0021C14.2369 20.1121 13.1624 22.631 13.1624 25.421V25.9248H14.1218C14.1218 25.9248 14.1218 25.5761 14.1218 25.421C14.1218 22.5534 15.3498 19.9571 17.3452 18.2133H17.3069ZM16.9231 17.322H18.6116C19.3791 16.8182 20.2233 16.4307 21.106 16.1982C21.2978 15.8495 21.4513 15.5007 21.4513 15.1519C19.7629 15.5007 18.2279 16.2757 16.9615 17.322H16.9231ZM17.3069 18.2133H16.0021C14.2369 20.1121 13.1624 22.631 13.1624 25.421V25.9248H14.1218C14.1218 25.9248 14.1218 25.5761 14.1218 25.421C14.1218 22.5534 15.3498 19.9571 17.3452 18.2133H17.3069ZM16.9231 17.322H18.6116C19.3791 16.8182 20.2233 16.4307 21.106 16.1982C21.2978 15.8495 21.4513 15.5007 21.4513 15.1519C19.7629 15.5007 18.2279 16.2757 16.9615 17.322H16.9231Z" fill="#ED2328"/>
</g>
<defs>
<clipPath id="clip0_576_317">
<rect width="34" height="36" fill="white"/>
</clipPath>
</defs>
</svg>
