<svg width="33" height="34" viewBox="0 0 33 34" fill="none" xmlns="http://www.w3.org/2000/svg">
<g clip-path="url(#clip0_576_342)">
<path d="M23.2347 19.6822C17.847 19.6822 13.5068 15.2622 13.5068 9.86C13.5068 4.45778 17.8844 0 23.2347 0C28.5851 0 32.9626 4.42 32.9626 9.82222C32.9626 15.2244 28.5851 19.6444 23.2347 19.6444V19.6822ZM23.2347 1.7C18.7823 1.7 15.1531 5.36444 15.1531 9.82222C15.1531 14.28 18.7823 17.9444 23.2347 17.9444C27.6871 17.9444 31.3164 14.28 31.3164 9.82222C31.3164 5.36444 27.6871 1.7 23.2347 1.7Z" fill="#ED2328"/>
<path d="M0.860468 33.2064C0.635978 33.2064 0.411488 33.1309 0.261828 32.942C-0.0749063 32.602 -0.0749063 32.0731 0.261828 31.7331L16.1632 15.6398C16.4999 15.2998 17.0237 15.2998 17.3605 15.6398C17.6972 15.9798 17.6972 16.5087 17.3605 16.8487L1.42169 32.9798C1.42169 32.9798 1.04754 33.2442 0.823053 33.2442L0.860468 33.2064Z" fill="#ED2328"/>
<path d="M9.20408 34.0001C8.9796 34.0001 8.75511 33.9246 8.60544 33.7357L4.07823 29.1646C3.7415 28.8246 3.7415 28.2957 4.07823 27.9557C4.41497 27.6157 4.93878 27.6157 5.27551 27.9557L9.80272 32.5268C10.1395 32.8668 10.1395 33.3957 9.80272 33.7357C9.65306 33.8868 9.42857 34.0001 9.20408 34.0001Z" fill="#ED2328"/>
<path d="M10.8879 28.6733C10.6634 28.6733 10.4763 28.5978 10.2893 28.4467L7.70763 25.9155C7.37089 25.5755 7.37089 25.0467 7.70763 24.7067C8.04436 24.3667 8.56817 24.3667 8.90491 24.7067L11.4865 27.2378C11.8233 27.5778 11.8233 28.1067 11.4865 28.4467C11.3369 28.5978 11.1124 28.7111 10.8879 28.7111V28.6733Z" fill="#ED2328"/>
</g>
<defs>
<clipPath id="clip0_576_342">
<rect width="33" height="34" fill="white"/>
</clipPath>
</defs>
</svg>
