<svg width="38" height="39" viewBox="0 0 38 39" fill="none" xmlns="http://www.w3.org/2000/svg">
<path d="M1.70251 21.5942C0.783154 21.5942 0 20.8463 0 19.8944C0 18.9426 0.749104 18.1947 1.70251 18.1947C2.65591 18.1947 3.40502 18.9426 3.40502 19.8944C3.40502 20.8463 2.65591 21.5942 1.70251 21.5942ZM1.70251 19.2145C1.32796 19.2145 1.02151 19.5205 1.02151 19.8944C1.02151 20.2684 1.32796 20.5743 1.70251 20.5743C2.07706 20.5743 2.38351 20.2684 2.38351 19.8944C2.38351 19.5205 2.07706 19.2145 1.70251 19.2145Z" fill="#ED2328"/>
<path d="M10.1129 20.3704H2.89425C2.62185 20.3704 2.3835 20.1325 2.3835 19.8605C2.3835 19.5886 2.62185 19.3506 2.89425 19.3506H10.1129C10.3853 19.3506 10.6236 19.5886 10.6236 19.8605C10.6236 20.1325 10.3853 20.3704 10.1129 20.3704Z" fill="#ED2328"/>
<path d="M5.14119 26.5571C4.18779 26.5571 3.43868 25.8092 3.43868 24.8573C3.43868 23.9055 4.18779 23.1576 5.14119 23.1576C6.0946 23.1576 6.8437 23.9055 6.8437 24.8573C6.8437 25.8092 6.0946 26.5571 5.14119 26.5571ZM5.14119 24.1774C4.76664 24.1774 4.46019 24.4834 4.46019 24.8573C4.46019 25.2313 4.76664 25.5373 5.14119 25.5373C5.51575 25.5373 5.8222 25.2313 5.8222 24.8573C5.8222 24.4834 5.51575 24.1774 5.14119 24.1774Z" fill="#ED2328"/>
<path d="M6.12851 24.5176C6.12851 24.5176 5.85611 24.4836 5.75396 24.3816C5.54966 24.1776 5.54966 23.8717 5.75396 23.6677L7.72887 21.696H10.4529C10.7253 21.696 10.9636 21.934 10.9636 22.2059C10.9636 22.4779 10.7253 22.7158 10.4529 22.7158H8.13747L6.46901 24.3816C6.46901 24.3816 6.23066 24.5176 6.09446 24.5176H6.12851Z" fill="#ED2328"/>
<path d="M5.14133 16.4947C4.18793 16.4947 3.43882 15.7468 3.43882 14.795C3.43882 13.8431 4.18793 13.0952 5.14133 13.0952C6.09474 13.0952 6.84384 13.8431 6.84384 14.795C6.84384 15.7468 6.09474 16.4947 5.14133 16.4947ZM5.14133 14.1491C4.76678 14.1491 4.46033 14.455 4.46033 14.829C4.46033 15.2029 4.76678 15.5089 5.14133 15.5089C5.51589 15.5089 5.82234 15.2029 5.82234 14.829C5.82234 14.455 5.51589 14.1491 5.14133 14.1491Z" fill="#ED2328"/>
<path d="M10.521 17.9905H7.72887L5.75396 16.0187C5.54966 15.8148 5.54966 15.5088 5.75396 15.3048C5.95826 15.1009 6.26471 15.1009 6.46901 15.3048L8.13747 16.9706H10.4869C10.7593 16.9706 10.9977 17.2086 10.9977 17.4805C10.9977 17.7525 10.7593 17.9905 10.4869 17.9905H10.521Z" fill="#ED2328"/>
<path d="M36.2974 21.5942C35.378 21.5942 34.5949 20.8463 34.5949 19.8944C34.5949 18.9426 35.344 18.1947 36.2974 18.1947C37.2508 18.1947 37.9999 18.9426 37.9999 19.8944C37.9999 20.8463 37.2508 21.5942 36.2974 21.5942ZM36.2974 19.2145C35.9228 19.2145 35.6164 19.5205 35.6164 19.8944C35.6164 20.2684 35.9228 20.5743 36.2974 20.5743C36.6719 20.5743 36.9784 20.2684 36.9784 19.8944C36.9784 19.5205 36.6719 19.2145 36.2974 19.2145Z" fill="#ED2328"/>
<path d="M35.1058 20.3704H27.9212C27.6488 20.3704 27.4105 20.1325 27.4105 19.8605C27.4105 19.5886 27.6488 19.3506 27.9212 19.3506H35.1058C35.3782 19.3506 35.6166 19.5886 35.6166 19.8605C35.6166 20.1325 35.3782 20.3704 35.1058 20.3704Z" fill="#ED2328"/>
<path d="M32.8578 26.5571C31.9384 26.5571 31.1553 25.8092 31.1553 24.8573C31.1553 23.9055 31.9044 23.1576 32.8578 23.1576C33.8112 23.1576 34.5603 23.9055 34.5603 24.8573C34.5603 25.8092 33.8112 26.5571 32.8578 26.5571ZM32.8578 24.1774C32.4832 24.1774 32.1768 24.4834 32.1768 24.8573C32.1768 25.2313 32.4832 25.5373 32.8578 25.5373C33.2323 25.5373 33.5388 25.2313 33.5388 24.8573C33.5388 24.4834 33.2323 24.1774 32.8578 24.1774Z" fill="#ED2328"/>
<path d="M31.8707 24.5174C31.8707 24.5174 31.5983 24.4834 31.4962 24.3814L29.8277 22.7157H27.6145C27.3421 22.7157 27.1037 22.4777 27.1037 22.2057C27.1037 21.9338 27.3421 21.6958 27.6145 21.6958H30.2363L32.2112 23.6675C32.4155 23.8715 32.4155 24.1775 32.2112 24.3814C32.1091 24.4834 31.9729 24.5174 31.8367 24.5174H31.8707Z" fill="#ED2328"/>
<path d="M32.8585 16.4947C31.9392 16.4947 31.156 15.7468 31.156 14.795C31.156 13.8431 31.9051 13.0952 32.8585 13.0952C33.812 13.0952 34.5611 13.8431 34.5611 14.795C34.5611 15.7468 33.812 16.4947 32.8585 16.4947ZM32.8585 14.1491C32.484 14.1491 32.1775 14.455 32.1775 14.829C32.1775 15.2029 32.484 15.5089 32.8585 15.5089C33.2331 15.5089 33.5395 15.2029 33.5395 14.829C33.5395 14.455 33.2331 14.1491 32.8585 14.1491Z" fill="#ED2328"/>
<path d="M30.2705 17.9903H27.3421C27.0697 17.9903 26.8314 17.7524 26.8314 17.4804C26.8314 17.2084 27.0697 16.9705 27.3421 16.9705H29.8278L31.4963 15.3047C31.7006 15.1007 32.007 15.1007 32.2113 15.3047C32.4156 15.5087 32.4156 15.8146 32.2113 16.0186L30.2364 17.9903H30.2705Z" fill="#ED2328"/>
<path d="M19.0003 8.03C18.0469 8.03 17.2978 7.2821 17.2978 6.33023C17.2978 5.37836 18.0469 4.63047 19.0003 4.63047C19.9537 4.63047 20.7028 5.37836 20.7028 6.33023C20.7028 7.2821 19.9537 8.03 19.0003 8.03ZM19.0003 5.68432C18.6258 5.68432 18.3193 5.99028 18.3193 6.36423C18.3193 6.73818 18.6258 7.04414 19.0003 7.04414C19.3749 7.04414 19.6813 6.73818 19.6813 6.36423C19.6813 5.99028 19.3749 5.68432 19.0003 5.68432Z" fill="#ED2328"/>
<path d="M19.0006 11.4635C18.7282 11.4635 18.4898 11.2256 18.4898 10.9536V7.52007C18.4898 7.24811 18.7282 7.01014 19.0006 7.01014C19.273 7.01014 19.5113 7.24811 19.5113 7.52007V10.9536C19.5113 11.2256 19.273 11.4635 19.0006 11.4635Z" fill="#ED2328"/>
<path d="M19.0006 5.44618C18.7282 5.44618 18.4898 5.20822 18.4898 4.93625V1.43473C18.4898 1.16277 18.7282 0.924805 19.0006 0.924805C19.273 0.924805 19.5113 1.16277 19.5113 1.43473V4.93625C19.5113 5.20822 19.273 5.44618 19.0006 5.44618Z" fill="#ED2328"/>
<path d="M21.3156 11.9392C21.0432 11.9392 20.8049 11.7012 20.8049 11.4293V8.84564L22.6095 7.04389V4.46024C22.6095 4.18828 22.8479 3.95031 23.1203 3.95031C23.3927 3.95031 23.631 4.18828 23.631 4.46024V7.45183L21.8264 9.25358V11.3953C21.8264 11.6673 21.588 11.9052 21.3156 11.9052V11.9392Z" fill="#ED2328"/>
<path d="M16.6166 11.9391C16.3442 11.9391 16.1059 11.7012 16.1059 11.4292V9.28749L14.3012 7.48573V4.49414C14.3012 4.22218 14.5396 3.98421 14.812 3.98421C15.0844 3.98421 15.3227 4.22218 15.3227 4.49414V7.07779L17.1274 8.87954V11.4632C17.1274 11.7351 16.889 11.9731 16.6166 11.9731V11.9391Z" fill="#ED2328"/>
<path d="M18.932 35.2604C17.9786 35.2604 17.2295 34.5125 17.2295 33.5606C17.2295 32.6087 17.9786 31.8609 18.932 31.8609C19.8854 31.8609 20.6345 32.6087 20.6345 33.5606C20.6345 34.5125 19.8854 35.2604 18.932 35.2604ZM18.932 32.8807C18.5574 32.8807 18.251 33.1867 18.251 33.5606C18.251 33.9346 18.5574 34.2405 18.932 34.2405C19.3065 34.2405 19.613 33.9346 19.613 33.5606C19.613 33.1867 19.3065 32.8807 18.932 32.8807Z" fill="#ED2328"/>
<path d="M18.932 32.8807C18.6596 32.8807 18.4215 32.6428 18.4215 32.3708V28.5973C18.4215 28.3254 18.6598 28.0874 18.9322 28.0874C19.2046 28.0874 19.443 28.3254 19.443 28.5973V32.3708C19.443 32.6428 19.2044 32.8807 18.932 32.8807Z" fill="#ED2328"/>
<path d="M18.9322 38.9998C18.6598 38.9998 18.4215 38.7618 18.4215 38.4898V34.9883C18.4215 34.7164 18.6598 34.4784 18.9322 34.4784C19.2046 34.4784 19.443 34.7164 19.443 34.9883V38.4898C19.443 38.7618 19.2046 38.9998 18.9322 38.9998Z" fill="#ED2328"/>
<path d="M14.8118 35.9739C14.5394 35.9739 14.301 35.7359 14.301 35.464V32.4724L16.1057 30.6706V28.2909C16.1057 28.019 16.344 27.781 16.6164 27.781C16.8888 27.781 17.1272 28.019 17.1272 28.2909V31.0786L15.3225 32.8803V35.464C15.3225 35.7359 15.0842 35.9739 14.8118 35.9739Z" fill="#ED2328"/>
<path d="M23.1542 35.9739C22.8818 35.9739 22.6434 35.7359 22.6434 35.4639V32.8803L20.8388 31.0785V28.3249C20.8388 28.0529 21.0771 27.815 21.3495 27.815C21.6219 27.815 21.8603 28.0529 21.8603 28.3249V30.6706L23.6649 32.4723V35.4639C23.6649 35.7359 23.4266 35.9739 23.1542 35.9739Z" fill="#ED2328"/>
<path d="M18.9661 29.073C13.8586 29.073 9.73851 24.9256 9.73851 19.8603C9.73851 14.795 13.8926 10.6476 18.9661 10.6476C24.0396 10.6476 28.1937 14.795 28.1937 19.8603C28.1937 24.9256 24.0396 29.073 18.9661 29.073ZM18.9661 11.6334C14.4374 11.6334 10.76 15.3049 10.76 19.8263C10.76 24.3477 14.4374 28.0192 18.9661 28.0192C23.4948 28.0192 27.1722 24.3477 27.1722 19.8263C27.1722 15.3049 23.4948 11.6334 18.9661 11.6334Z" fill="#ED2328"/>
<path d="M17.1611 23.906L14.7435 21.4924C14.5392 21.2884 14.5392 20.9824 14.7435 20.7785C14.9478 20.5745 15.2542 20.5745 15.4585 20.7785L17.1611 22.4782L22.7793 16.869C22.9836 16.665 23.2901 16.665 23.4944 16.869C23.6987 17.073 23.6987 17.3789 23.4944 17.5829L17.1611 23.906Z" fill="#ED2328"/>
</svg>
