<svg width="26" height="35" viewBox="0 0 26 35" fill="none" xmlns="http://www.w3.org/2000/svg">
<path d="M20.0478 0.344727C16.7613 0.344727 14.0956 3.66241 14.0956 7.74571C14.0956 11.3551 16.177 14.4175 19.0253 15.0373H19.2079V33.3028C19.2079 33.7767 19.5731 34.1413 20.0478 34.1413C20.5225 34.1413 20.8877 33.7767 20.8877 33.3028V15.1102H21.0703C23.9186 14.454 26.0001 11.3915 26.0001 7.78216C26.0001 3.69886 23.3343 0.381185 20.0478 0.381185V0.344727ZM20.0478 13.4696C17.6742 13.4696 15.7753 10.9176 15.7753 7.74571C15.7753 4.57386 17.7107 2.0218 20.0478 2.0218C22.3849 2.0218 24.3203 4.57386 24.3203 7.74571C24.3203 10.9176 22.3849 13.4696 20.0478 13.4696Z" fill="#ED2328"/>
<path d="M9.89607 0.344727C9.42135 0.344727 9.05618 0.709307 9.05618 1.18326V7.74571C9.05618 10.1155 8.32584 11.2092 6.5 11.428H6.20787V1.18326C6.20787 0.709307 5.8427 0.344727 5.36798 0.344727C4.89326 0.344727 4.52809 0.709307 4.52809 1.18326V11.4644H4.23595C2.44663 11.1728 1.67978 10.1155 1.67978 7.74571V1.18326C1.67978 0.745765 1.27809 0.381185 0.839888 0.381185C0.365169 0.381185 0 0.745765 0 1.18326V7.74571C0 11.1363 1.35112 12.8134 4.27247 13.105H4.49157V33.2663C4.49157 33.7403 4.85674 34.1049 5.33146 34.1049C5.80618 34.1049 6.17135 33.7403 6.17135 33.2663V13.1415H6.39045C9.3118 12.8134 10.6629 11.0998 10.6629 7.74571V1.18326C10.6629 0.709307 10.2978 0.344727 9.82303 0.344727H9.89607Z" fill="#ED2328"/>
</svg>
