<svg width="37" height="36" viewBox="0 0 37 36" fill="none" xmlns="http://www.w3.org/2000/svg">
<g clip-path="url(#clip0_576_171)">
<path d="M34.0031 31.9H3.03531C1.38318 31.9 0 30.5334 0 28.8154V9.37073C0 7.69177 1.34476 6.28613 3.03531 6.28613H34.0031C35.6552 6.28613 37.0384 7.65273 37.0384 9.37073V28.8545C37.0384 30.5334 35.6937 31.9391 34.0031 31.9391V31.9ZM3.03531 7.57464C2.07477 7.57464 1.26791 8.39459 1.26791 9.37073V28.8545C1.26791 29.8306 2.03634 30.6506 3.03531 30.6506H34.0031C34.9637 30.6506 35.7705 29.8306 35.7705 28.8545V9.37073C35.7705 8.39459 35.0021 7.57464 34.0031 7.57464H3.03531Z" fill="#ED2328"/>
<path d="M18.4807 7.34057L12.3717 1.09328C12.1027 0.859011 12.1411 0.42951 12.3717 0.195236C12.6406 -0.0390371 13.0248 -0.0390371 13.2554 0.195236L18.4807 5.54448L23.7445 0.195236C24.0134 -0.0390371 24.3976 -0.0390371 24.6282 0.195236C24.8587 0.42951 24.8587 0.859011 24.6282 1.09328L18.4423 7.34057H18.4807Z" fill="#ED2328"/>
<path d="M18.5194 35.5706C18.1736 35.5706 17.8662 35.2973 17.8662 34.9068V31.2756C17.8662 30.9242 18.1352 30.6118 18.5194 30.6118C18.9036 30.6118 19.1725 30.8851 19.1725 31.2756V34.9068C19.1725 35.2582 18.9036 35.5706 18.5194 35.5706Z" fill="#ED2328"/>
<path d="M23.6678 35.9999H13.3324C12.9866 35.9999 12.6792 35.7266 12.6792 35.3361C12.6792 34.9457 12.9482 34.6724 13.3324 34.6724H23.6678C24.0136 34.6724 24.3209 34.9457 24.3209 35.3361C24.3209 35.7266 24.052 35.9999 23.6678 35.9999Z" fill="#ED2328"/>
</g>
<defs>
<clipPath id="clip0_576_171">
<rect width="37" height="36" fill="white"/>
</clipPath>
</defs>
</svg>
