<svg width="165" height="78" viewBox="0 0 165 78" fill="none" xmlns="http://www.w3.org/2000/svg">
<path d="M98.0972 0.136363C98.0972 0.136363 97.8691 0 97.7322 0H79.8043C79.4849 0 79.2569 0.227272 79.2569 0.545454V3.45455C77.7971 3.81818 76.4285 4.40909 75.1512 5.13636L73.0984 3.09091C73.0984 3.09091 72.8703 2.95454 72.7334 2.95454C72.7334 2.95454 72.4597 3 72.3685 3.09091L67.3961 8.04545C67.3961 8.04545 67.168 8.59091 67.3961 8.81818L69.4489 10.8636C68.719 12.1364 68.126 13.5 67.7611 14.9545H64.8415C64.5222 14.9545 64.294 15.1818 64.294 15.5V22.5C64.294 22.8182 64.5222 23.0455 64.8415 23.0455H67.7611C68.126 24.4545 68.719 25.8636 69.4489 27.1364L67.3961 29.1818C67.3961 29.1818 67.168 29.7273 67.3961 29.9545L72.3685 34.9091C72.3685 34.9091 72.5966 35.0455 72.7334 35.0455C72.8703 35.0455 73.0071 35 73.0984 34.9091L75.1512 32.8636C76.4285 33.5909 77.7971 34.1818 79.2569 34.5455V37.4545C79.2569 37.7727 79.4849 38 79.8043 38H101.747C102.066 38 102.294 37.7727 102.294 37.4545V4.54545C102.294 4.54545 102.248 4.27273 102.157 4.18182L98.0972 0.136363ZM98.2797 1.81818L100.469 4H98.2797V1.81818ZM79.9411 33.4545C78.3445 33.0909 76.7935 32.4545 75.3793 31.5909C75.1512 31.4545 74.8775 31.5 74.6951 31.6818L72.7334 33.6364L68.5366 29.4545L70.4981 27.5C70.4981 27.5 70.7262 27.0455 70.5894 26.8182C69.7226 25.4091 69.084 23.9091 68.719 22.2727C68.6734 22.0455 68.4453 21.8636 68.2172 21.8636H65.4345V15.9545H68.2172C68.4453 15.9545 68.6734 15.7727 68.719 15.5455C69.084 13.9545 69.7226 12.4091 70.5894 11C70.7262 10.7727 70.6806 10.5 70.4981 10.3182L68.5366 8.36364L72.7334 4.18182L74.6951 6.13636C74.6951 6.13636 75.1512 6.36364 75.3793 6.22727C76.7935 5.36364 78.2989 4.72727 79.9411 4.36364C80.1692 4.31818 80.3517 4.09091 80.3517 3.86364V1.09091H82.7694V9.81818C80.5341 9.95455 78.4357 10.9091 76.8391 12.5C75.1056 14.2273 74.1476 16.5455 74.1476 19C74.1476 21.4545 75.1056 23.7727 76.8391 25.5C78.4357 27.0909 80.5341 28.0455 82.7694 28.1818V36.7273H80.3517V33.9545C80.3517 33.7273 80.1692 33.5 79.9411 33.4545ZM82.7694 27.0909C80.8078 26.9545 78.9832 26.1364 77.6146 24.7273C76.0636 23.1818 75.2425 21.1364 75.2425 18.9545C75.2425 16.7727 76.1092 14.7273 77.6146 13.1818C79.0288 11.7727 80.8078 10.9545 82.7694 10.8182V27.0909ZM83.8643 36.7273V1.09091H97.2304V4.54545C97.2304 4.86364 97.4585 5.09091 97.7779 5.09091H101.245V36.7727H83.9099L83.8643 36.7273ZM89.0192 17C91.5282 17 93.581 14.9545 93.581 12.4545C93.581 9.95454 91.5282 7.90909 89.0192 7.90909C86.5102 7.90909 84.4574 9.95454 84.4574 12.4545C84.4574 14.9545 86.5102 17 89.0192 17ZM89.0192 15.9091C88.2437 15.9091 87.5137 15.6364 86.9663 15.2273L89.2016 13L92.2124 13.8636C91.665 15.0455 90.4333 15.8636 89.0648 15.8636L89.0192 15.9091ZM92.5317 12.4545C92.5317 12.4545 92.5317 12.7727 92.5317 12.9091L89.6122 12.0455V9C91.3 9.27273 92.5774 10.7273 92.5774 12.4545H92.5317ZM88.4717 9V12.2273L86.1908 14.5C85.7802 13.9091 85.5066 13.2273 85.5066 12.4545C85.5066 10.7273 86.7838 9.27273 88.4717 9ZM100.606 10.1364C100.606 10.4545 100.378 10.6818 100.059 10.6818H95.4513C95.132 10.6818 94.9039 10.4545 94.9039 10.1364C94.9039 9.81818 95.132 9.59091 95.4513 9.59091H100.059C100.378 9.59091 100.606 9.81818 100.606 10.1364ZM100.606 12.4545C100.606 12.7727 100.378 13 100.059 13H95.4513C95.132 13 94.9039 12.7727 94.9039 12.4545C94.9039 12.1364 95.132 11.9091 95.4513 11.9091H100.059C100.378 11.9091 100.606 12.1364 100.606 12.4545ZM100.606 14.7727C100.606 15.0909 100.378 15.3182 100.059 15.3182H95.4513C95.132 15.3182 94.9039 15.0909 94.9039 14.7727C94.9039 14.4545 95.132 14.2273 95.4513 14.2273H100.059C100.378 14.2273 100.606 14.4545 100.606 14.7727ZM100.606 33.4091C100.606 33.7273 100.378 33.9545 100.059 33.9545H84.9592C84.6398 33.9545 84.4117 33.7273 84.4117 33.4091C84.4117 33.0909 84.6398 32.8636 84.9592 32.8636H86.4189V28.7273C86.4189 28.4091 86.647 28.1818 86.9663 28.1818C87.2856 28.1818 87.5138 28.4091 87.5138 28.7273V32.8636H90.114V25.3182C90.114 25 90.3421 24.7727 90.6614 24.7727C90.9808 24.7727 91.2088 25 91.2088 25.3182V32.8636H93.809V28.7273C93.809 28.4091 94.0372 28.1818 94.3565 28.1818C94.6758 28.1818 94.9039 28.4091 94.9039 28.7273V32.8636H97.5042V25.3182C97.5042 25 97.7322 24.7727 98.0516 24.7727C98.3709 24.7727 98.599 25 98.599 25.3182V32.8636H100.104C100.424 32.8636 100.652 33.0909 100.652 33.4091H100.606ZM93.0792 20.4091L94.4934 22L98.0516 19.6818C98.2797 19.5 98.6446 19.5909 98.7815 19.8182C98.964 20.0455 98.8727 20.4091 98.6446 20.5455L94.6758 23.1364C94.6758 23.1364 94.174 23.2273 93.9916 23.0455L92.5774 21.4545L87.1944 24.5455C87.1944 24.5455 87.0119 24.6364 86.9207 24.6364C86.7382 24.6364 86.5557 24.5455 86.4645 24.3636C86.3276 24.0909 86.4189 23.7727 86.647 23.6364L92.4406 20.3182C92.4406 20.3182 92.9423 20.2273 93.1248 20.4091H93.0792Z" fill="#ED2328"/>
<path d="M9.53551 71.9091C9.53551 73.0194 9.32505 73.964 8.90412 74.7429C8.48651 75.5218 7.91643 76.1167 7.19389 76.5277C6.47467 76.9354 5.66596 77.1392 4.76776 77.1392C3.86293 77.1392 3.0509 76.9337 2.33168 76.5227C1.61245 76.1117 1.04403 75.5168 0.626421 74.7379C0.208807 73.959 0 73.0161 0 71.9091C0 70.7988 0.208807 69.8542 0.626421 69.0753C1.04403 68.2964 1.61245 67.7031 2.33168 67.2955C3.0509 66.8845 3.86293 66.679 4.76776 66.679C5.66596 66.679 6.47467 66.8845 7.19389 67.2955C7.91643 67.7031 8.48651 68.2964 8.90412 69.0753C9.32505 69.8542 9.53551 70.7988 9.53551 71.9091ZM7.35298 71.9091C7.35298 71.1899 7.24527 70.5833 7.02983 70.0895C6.81771 69.5956 6.51776 69.2211 6.12997 68.9659C5.74219 68.7107 5.28812 68.5831 4.76776 68.5831C4.2474 68.5831 3.79332 68.7107 3.40554 68.9659C3.01776 69.2211 2.71615 69.5956 2.50071 70.0895C2.28859 70.5833 2.18253 71.1899 2.18253 71.9091C2.18253 72.6283 2.28859 73.2348 2.50071 73.7287C2.71615 74.2225 3.01776 74.5971 3.40554 74.8523C3.79332 75.1075 4.2474 75.2351 4.76776 75.2351C5.28812 75.2351 5.74219 75.1075 6.12997 74.8523C6.51776 74.5971 6.81771 74.2225 7.02983 73.7287C7.24527 73.2348 7.35298 72.6283 7.35298 71.9091Z" fill="#413D3D"/>
<path d="M11.1301 77V66.8182H15.1472C15.9194 66.8182 16.5774 66.9657 17.1209 67.2607C17.6645 67.5523 18.0788 67.9583 18.3638 68.4787C18.6522 68.9957 18.7963 69.5923 18.7963 70.2685C18.7963 70.9446 18.6505 71.5412 18.3588 72.0582C18.0672 72.5753 17.6446 72.978 17.0911 73.2663C16.5409 73.5547 15.8747 73.6989 15.0925 73.6989H12.5321V71.9737H14.7445C15.1588 71.9737 15.5002 71.9025 15.7686 71.7599C16.0404 71.6141 16.2426 71.4136 16.3752 71.1584C16.5111 70.8999 16.579 70.6032 16.579 70.2685C16.579 69.9304 16.5111 69.6354 16.3752 69.3835C16.2426 69.1283 16.0404 68.9311 15.7686 68.7919C15.4969 68.6494 15.1522 68.5781 14.7346 68.5781H13.2828V77H11.1301Z" fill="#413D3D"/>
<path d="M20.1946 77V66.8182H27.0554V68.593H22.3473V71.0192H26.7024V72.794H22.3473V75.2251H27.0753V77H20.1946Z" fill="#413D3D"/>
<path d="M28.7669 77V66.8182H32.7839C33.5529 66.8182 34.2091 66.9557 34.7527 67.2308C35.2995 67.5026 35.7155 67.8887 36.0005 68.3892C36.2889 68.8864 36.4331 69.4714 36.4331 70.1442C36.4331 70.8203 36.2872 71.402 35.9956 71.8892C35.7039 72.3731 35.2813 72.7443 34.7278 73.0028C34.1776 73.2614 33.5114 73.3906 32.7292 73.3906H30.0396V71.6605H32.3812C32.7922 71.6605 33.1336 71.6042 33.4054 71.4915C33.6771 71.3788 33.8793 71.2098 34.0119 70.9844C34.1478 70.759 34.2157 70.4789 34.2157 70.1442C34.2157 69.8061 34.1478 69.5211 34.0119 69.2891C33.8793 69.0571 33.6755 68.8814 33.4004 68.7621C33.1286 68.6394 32.7856 68.5781 32.3713 68.5781H30.9196V77H28.7669ZM34.2654 72.3665L36.796 77H34.4196L31.9437 72.3665H34.2654Z" fill="#413D3D"/>
<path d="M39.7093 77H37.4025L40.9174 66.8182H43.6916L47.2015 77H44.8947L42.3443 69.1449H42.2647L39.7093 77ZM39.5652 72.9979H45.014V74.6783H39.5652V72.9979Z" fill="#413D3D"/>
<path d="M53.1451 71.0689V72.7493H48.5016V71.0689H53.1451Z" fill="#413D3D"/>
<path d="M58.8226 77.14C56.4006 77.14 55.0846 75.796 55.0846 73.458V67.004H57.2406V73.598C57.2406 74.732 57.7726 75.404 58.8086 75.404C59.8026 75.404 60.3066 74.676 60.3066 73.864C60.3066 73.01 59.9706 72.52 59.6066 72.002C59.2146 71.442 58.8786 70.798 58.9626 69.762H61.1326C61.1046 70.462 61.3846 70.882 61.7626 71.456C62.1406 72.03 62.5186 72.66 62.5186 73.752C62.5186 75.768 61.0766 77.14 58.8226 77.14Z" fill="#413D3D"/>
<path d="M70.9856 77.14C68.6336 77.14 67.2056 75.782 67.2056 73.57C67.2056 71.288 68.4376 70.07 70.2716 70.07C71.3636 70.07 72.0356 70.476 72.4696 71.008H72.5396C72.4836 70.686 72.4416 70.35 72.4416 70.028V69.58C72.4416 68.908 71.9376 68.488 71.0836 68.488C70.3416 68.488 69.7816 68.81 69.7816 69.412V69.524H67.6116C67.5976 69.356 67.5976 69.314 67.5976 69.216C67.5976 67.746 69.2216 66.864 71.0696 66.864C73.2256 66.864 74.5976 68.054 74.5976 69.748V73.528C74.5976 75.81 73.3096 77.14 70.9856 77.14ZM70.9856 75.418C72.0776 75.418 72.5816 74.718 72.5816 73.738V73.514C72.5816 72.674 72.3156 71.792 70.9296 71.792C69.9776 71.792 69.4036 72.492 69.4036 73.598C69.4036 74.648 69.9076 75.418 70.9856 75.418Z" fill="#413D3D"/>
<path d="M80.1614 77.14C77.8514 77.14 76.5494 75.81 76.5494 73.43V67.004H78.6914V69.16C78.6914 69.636 78.6354 70.364 78.5794 70.7H78.6494C79.0974 70.084 79.7834 69.622 80.8614 69.622C82.6814 69.622 83.9414 70.91 83.9414 73.388C83.9414 75.782 82.4854 77.14 80.1614 77.14ZM80.1894 75.404C81.3094 75.404 81.7714 74.578 81.7714 73.43C81.7714 72.17 81.1694 71.456 80.2454 71.456C78.8454 71.456 78.5654 72.394 78.5654 73.36V73.584C78.5654 74.704 79.1114 75.404 80.1894 75.404Z" fill="#413D3D"/>
<path d="M89.0009 77.14C86.8169 77.14 85.3189 75.866 85.3189 73.78C85.3189 73.276 85.3609 72.8 85.6269 72.072H87.7829C87.5729 72.73 87.5309 73.262 87.5309 73.654C87.5309 74.662 88.0069 75.39 89.0009 75.39C90.0649 75.39 90.4849 74.648 90.4849 73.584C90.4849 72.366 89.9109 71.54 89.3089 70.756C88.4969 69.706 87.6569 68.712 87.8949 67.004H90.0509C89.9249 68.082 90.5689 68.866 91.2409 69.776C91.9409 70.714 92.6969 71.792 92.6969 73.528C92.6969 75.726 91.3109 77.14 89.0009 77.14Z" fill="#413D3D"/>
<path d="M94.8949 77C94.3209 75.502 94.1529 74.55 94.1529 72.94C94.1529 69.692 95.2029 67.802 98.6189 67.27C99.6129 67.116 100.775 66.976 101.993 66.85L102.231 68.628C100.761 68.796 99.5989 68.922 98.7869 69.034C97.6809 69.188 96.3649 69.482 95.9169 70.434H95.9589C96.3789 69.986 96.9529 69.846 97.5409 69.846C98.5489 69.846 99.3189 70.406 99.6549 71.358H99.6969C100.047 70.406 100.831 69.846 102.105 69.846C104.107 69.846 105.199 71.372 105.199 73.388C105.199 74.704 104.933 75.782 104.443 77H102.273C102.735 75.866 103.015 74.76 103.015 73.43C103.015 72.394 102.693 71.484 101.797 71.484C101.027 71.484 100.705 72.198 100.705 73.122V74.844H98.6329V73.122C98.6329 72.044 98.2689 71.484 97.5409 71.484C96.7429 71.484 96.3229 72.086 96.3229 73.472C96.3229 74.704 96.5889 75.838 97.0649 77H94.8949Z" fill="#413D3D"/>
<path d="M113.313 77C113.173 76.16 111.913 75.782 110.737 75.782C109.855 75.782 108.945 75.992 108.245 76.356L107.517 75.012C107.867 74.788 108.343 74.578 108.875 74.536V74.48C107.195 73.822 106.061 72.31 106.061 70.364C106.061 68.376 107.181 66.864 109.295 66.864C110.471 66.864 111.367 67.354 111.759 68.208H111.829C112.235 67.368 113.243 66.864 114.447 66.864C116.589 66.864 118.017 68.194 118.017 70.294C118.017 72.338 116.491 73.654 114.391 73.654C112.123 73.654 110.737 72.338 110.737 70.364V70.042C110.737 69.16 110.345 68.516 109.533 68.516C108.637 68.516 108.245 69.356 108.245 70.364C108.245 72.842 110.093 73.668 111.983 74.13C113.607 74.536 115.231 75.082 115.399 77H113.313ZM114.363 72.016C115.357 72.016 115.805 71.288 115.805 70.266C115.805 69.23 115.343 68.516 114.377 68.516C113.383 68.516 112.935 69.23 112.935 70.266C112.935 71.274 113.383 72.016 114.363 72.016Z" fill="#413D3D"/>
<path d="M122.292 77.14C120.108 77.14 118.61 75.866 118.61 73.78C118.61 73.276 118.652 72.8 118.918 72.072H121.074C120.864 72.73 120.822 73.262 120.822 73.654C120.822 74.662 121.298 75.39 122.292 75.39C123.356 75.39 123.776 74.648 123.776 73.584C123.776 72.366 123.202 71.54 122.6 70.756C121.788 69.706 120.948 68.712 121.186 67.004H123.342C123.216 68.082 123.86 68.866 124.532 69.776C125.232 70.714 125.988 71.792 125.988 73.528C125.988 75.726 124.602 77.14 122.292 77.14Z" fill="#413D3D"/>
<path d="M131.038 77.14C128.854 77.14 127.412 76.02 127.412 74.312C127.412 74.158 127.426 74.004 127.468 73.78H129.582C129.568 73.934 129.568 74.018 129.568 74.088C129.568 74.9 130.086 75.474 131.038 75.474C132.088 75.474 132.494 74.76 132.494 73.976C132.494 73.122 132.018 72.674 131.598 71.96H131.556C130.982 72.646 130.17 72.856 129.372 72.856C128.098 72.856 126.936 72.016 126.936 70.672C126.936 69.398 127.972 68.502 129.428 68.502H130.8V67.004H132.942V68.502H134.202V70.112H132.998V70.28C133.208 71.372 134.692 72.114 134.692 73.976C134.692 75.852 133.348 77.14 131.038 77.14ZM129.82 71.302C130.436 71.302 130.842 70.994 130.842 70.504V70.042H129.834C129.26 70.042 128.882 70.28 128.882 70.672C128.882 71.092 129.288 71.302 129.82 71.302Z" fill="#413D3D"/>
<path d="M139.737 77.14C137.483 77.14 136.069 75.81 136.069 74.004C136.069 73.528 136.139 73.15 136.251 72.758H138.407C138.323 73.08 138.281 73.472 138.281 73.808C138.281 74.69 138.757 75.39 139.765 75.39C140.857 75.39 141.249 74.718 141.249 73.724V69.986C141.249 69.076 140.717 68.614 139.947 68.614C139.149 68.614 138.645 69.048 138.645 69.874C138.645 70.126 138.673 70.42 138.729 70.714H136.573C136.489 70.406 136.433 70.07 136.433 69.622C136.433 67.844 137.945 66.864 139.905 66.864C142.019 66.864 143.405 68.026 143.405 69.93V73.752C143.405 75.866 142.075 77.14 139.737 77.14Z" fill="#413D3D"/>
<path d="M145.836 77C145.262 75.502 145.094 74.55 145.094 72.94C145.094 69.692 146.144 67.802 149.56 67.27C150.554 67.116 151.716 66.976 152.934 66.85L153.172 68.628C151.702 68.796 150.54 68.922 149.728 69.034C148.622 69.188 147.306 69.482 146.858 70.434H146.9C147.32 69.986 147.894 69.846 148.482 69.846C149.49 69.846 150.26 70.406 150.596 71.358H150.638C150.988 70.406 151.772 69.846 153.046 69.846C155.048 69.846 156.14 71.372 156.14 73.388C156.14 74.704 155.874 75.782 155.384 77H153.214C153.676 75.866 153.956 74.76 153.956 73.43C153.956 72.394 153.634 71.484 152.738 71.484C151.968 71.484 151.646 72.198 151.646 73.122V74.844H149.574V73.122C149.574 72.044 149.21 71.484 148.482 71.484C147.684 71.484 147.264 72.086 147.264 73.472C147.264 74.704 147.53 75.838 148.006 77H145.836Z" fill="#413D3D"/>
<path d="M161.188 77.14C159.004 77.14 157.506 75.866 157.506 73.78C157.506 73.276 157.548 72.8 157.814 72.072H159.97C159.76 72.73 159.718 73.262 159.718 73.654C159.718 74.662 160.194 75.39 161.188 75.39C162.252 75.39 162.672 74.648 162.672 73.584C162.672 72.366 162.098 71.54 161.496 70.756C160.684 69.706 159.844 68.712 160.082 67.004H162.238C162.112 68.082 162.756 68.866 163.428 69.776C164.128 70.714 164.884 71.792 164.884 73.528C164.884 75.726 163.498 77.14 161.188 77.14Z" fill="#413D3D"/>
</svg>
