<svg width="29" height="36" viewBox="0 0 29 36" fill="none" xmlns="http://www.w3.org/2000/svg">
<g clip-path="url(#clip0_576_299)">
<path d="M12.5759 35.3782C13.0917 35.8058 13.7661 36.0391 14.5198 36.0391C15.2736 36.0391 15.9083 35.8058 16.4637 35.3782C16.5828 35.2615 19.6375 32.8123 22.7319 29.0023C26.9371 23.8317 29.0397 18.8555 29.0397 14.2291C29.0397 6.41487 22.5335 0.0390625 14.5595 0.0390625C6.5855 0.0390625 0 6.376 0 14.1903C0 18.8166 2.14227 23.7928 6.3078 28.9635C9.40219 32.7734 12.4172 35.2226 12.5759 35.3393V35.3782ZM14.4802 1.36088C21.6211 1.36088 27.4528 7.07578 27.4528 14.0736C27.4528 24.4537 15.3133 34.3674 15.1546 34.4451C14.9959 34.6006 14.7182 34.6784 14.4802 34.6784C14.2421 34.6784 13.9644 34.6006 13.8057 34.4451C13.6867 34.3285 1.50752 24.4537 1.50752 14.0736C1.50752 7.07578 7.33926 1.36088 14.4802 1.36088Z" fill="#ED2328"/>
<path d="M21.6212 14.1902C21.6212 10.3414 18.4078 7.19238 14.4803 7.19238C10.5528 7.19238 7.33936 10.3414 7.33936 14.1902C7.33936 18.039 10.5528 21.1881 14.4803 21.1881C18.4078 21.1881 21.6212 18.039 21.6212 14.1902ZM8.96589 14.1902C8.96589 11.1967 11.4652 8.74746 14.5199 8.74746C17.5746 8.74746 20.074 11.1967 20.074 14.1902C20.074 17.1837 17.5746 19.633 14.5199 19.633C11.4652 19.633 8.96589 17.1837 8.96589 14.1902Z" fill="#ED2328"/>
</g>
<defs>
<clipPath id="clip0_576_299">
<rect width="29" height="36" fill="white"/>
</clipPath>
</defs>
</svg>
