<svg width="19" height="36" viewBox="0 0 19 36" fill="none" xmlns="http://www.w3.org/2000/svg">
<g clip-path="url(#clip0_576_263)">
<path d="M8.40966 16.1137C8.40966 16.1137 8.13712 16.0744 8.02032 15.9565L5.76212 13.677C5.52851 13.4412 5.52851 13.0875 5.76212 12.891C5.99573 12.6944 6.34614 12.6551 6.54081 12.891L8.40966 14.7774L13.6269 10.0613C13.8605 9.86475 14.2109 9.86475 14.4056 10.1006C14.6002 10.3364 14.6002 10.6901 14.3666 10.8866L8.76007 15.9565C8.76007 15.9565 8.52646 16.1137 8.37073 16.1137H8.40966Z" fill="#ED2328"/>
<path d="M13.7828 36H5.21721C2.33607 36 0 33.6419 0 30.7336V5.26638C0 2.35808 2.33607 0 5.21721 0H13.7828C16.6639 0 19 2.35808 19 5.26638V30.6943C19 33.6026 16.6639 35.9607 13.7828 35.9607V36ZM5.21721 1.17904C2.99795 1.17904 1.16803 3.0262 1.16803 5.26638V30.6943C1.16803 32.9738 2.99795 34.7817 5.21721 34.7817H13.7828C16.041 34.7817 17.832 32.9345 17.832 30.6943V5.26638C17.832 2.9869 16.002 1.17904 13.7828 1.17904H5.21721Z" fill="#ED2328"/>
<path d="M12.2252 22.1265H6.93011C4.94446 22.1265 3.34814 20.5151 3.34814 18.5108V9.66797C3.34814 7.6636 4.94446 6.05225 6.93011 6.05225H12.2252C14.2109 6.05225 15.8072 7.6636 15.8072 9.66797V18.5108C15.8072 20.5151 14.2109 22.1265 12.2252 22.1265ZM6.89118 7.15268C5.52847 7.15268 4.39937 8.29242 4.39937 9.66797V18.5108C4.39937 19.8863 5.52847 21.026 6.89118 21.026H12.1863C13.549 21.026 14.6781 19.8863 14.6781 18.5108V9.66797C14.6781 8.29242 13.549 7.15268 12.1863 7.15268H6.89118Z" fill="#ED2328"/>
</g>
<defs>
<clipPath id="clip0_576_263">
<rect width="19" height="36" fill="white"/>
</clipPath>
</defs>
</svg>
