<svg width="33" height="33" viewBox="0 0 33 33" fill="none" xmlns="http://www.w3.org/2000/svg">
<g clip-path="url(#clip0_576_71)">
<path d="M32.1314 15.2367C32.6446 11.2498 31.3024 7.34195 28.4998 4.49984C25.6577 1.69721 21.7498 0.355105 17.763 0.868263C17.4077 0.907737 17.1709 1.22353 17.2103 1.57879C17.2498 1.93405 17.5656 2.17089 17.9209 2.13142C21.513 1.65774 25.0261 2.88142 27.5524 5.40774C30.0788 7.97353 31.3024 11.4867 30.8288 15.0393C30.7893 15.3946 31.0261 15.7104 31.3814 15.7498C31.3814 15.7498 31.4209 15.7498 31.4603 15.7498C31.7761 15.7498 32.0524 15.513 32.0919 15.1972L32.1314 15.2367Z" fill="#ED2328"/>
<path d="M28.5788 14.7632C28.9735 11.9606 27.9867 9.079 25.9735 7.02636C23.9604 5.01321 21.0788 4.02636 18.2762 4.4211C17.9209 4.46057 17.6841 4.77636 17.7235 5.13163C17.763 5.48689 18.1183 5.72373 18.4341 5.68426C20.8419 5.36847 23.3288 6.19742 25.0656 7.93426C26.8419 9.71057 27.6709 12.1185 27.3156 14.5658C27.2762 14.9211 27.513 15.2369 27.8683 15.2764C27.8683 15.2764 27.9077 15.2764 27.9472 15.2764C28.263 15.2764 28.5393 15.0395 28.5788 14.7237V14.7632Z" fill="#ED2328"/>
<path d="M24.987 14.3288C25.2238 12.592 24.6317 10.8551 23.408 9.59198C22.1449 8.32882 20.4475 7.77619 18.6712 8.01303C18.3159 8.05251 18.0791 8.3683 18.1185 8.72356C18.158 9.07882 18.4738 9.31566 18.8291 9.27619C20.1712 9.07882 21.5133 9.55251 22.4607 10.4999C23.408 11.4472 23.8817 12.7893 23.6843 14.1315C23.6449 14.4867 23.8817 14.8025 24.237 14.842C24.237 14.842 24.2764 14.842 24.3159 14.842C24.6317 14.842 24.908 14.6051 24.9475 14.2893L24.987 14.3288Z" fill="#ED2328"/>
<path d="M32.0132 24.8684L26.9606 20.3684C25.9343 19.4211 24.3554 19.3816 23.2896 20.25C22.7369 20.6842 22.0659 21.2368 21.2369 21.8684C20.6054 22.3816 19.7764 22.4211 19.1054 21.9868C17.2501 20.8026 15.7501 19.6184 14.5264 18.3947C13.3027 17.1711 12.1185 15.6711 10.9343 13.8158C10.5001 13.1447 10.5396 12.3158 11.0527 11.6842C11.7238 10.8553 12.2764 10.1842 12.6711 9.63158C13.5396 8.52632 13.5001 6.98684 12.5527 5.96053L8.0922 0.947368C7.53956 0.355263 6.82904 0 6.03956 0C5.21062 0 4.50009 0.276316 3.94746 0.868421L1.42114 3.43421C-0.473594 5.4079 -0.473594 8.56579 1.38167 12.5921C2.96062 16.0263 5.8422 19.9342 9.4343 23.5263C13.0264 27.1184 16.9343 30 20.3685 31.5789C22.3817 32.4868 24.158 32.9605 25.6975 32.9605C27.2369 32.9605 28.5396 32.4868 29.5264 31.5395L32.0922 29.0526C32.6843 28.5 32.9606 27.75 32.9606 26.9605C32.9606 26.1316 32.6054 25.4211 32.0132 24.8684ZM31.3817 28.3421L28.8159 30.8289C26.7633 32.8026 23.329 31.8553 20.8027 30.6711C17.4475 29.1316 13.6975 26.3289 10.1448 22.8158C6.63167 19.3026 3.82904 15.5132 2.28956 12.1579C1.14483 9.63158 0.157985 6.19737 2.13167 4.14474L4.61851 1.57895C4.97377 1.18421 5.44746 1.02632 5.96062 1.02632C6.47377 1.02632 6.94746 1.22368 7.30272 1.61842L11.8027 6.67105C12.3948 7.34211 12.4343 8.32895 11.8817 9.03947C11.4475 9.59211 10.8948 10.2632 10.2632 11.0921C9.47377 12.0789 9.4343 13.3816 10.1054 14.4079C11.329 16.3421 12.5527 17.8816 13.8554 19.1842C15.158 20.4868 16.6975 21.7105 18.6317 22.9342C19.6975 23.6053 21.0001 23.5263 21.9475 22.7763C22.7764 22.1053 23.4475 21.5921 24.0001 21.1579C24.7106 20.6053 25.6975 20.6447 26.3685 21.2368L31.4211 25.7368C31.8159 26.0921 32.0132 26.5263 32.0132 27.0789C32.0132 27.5921 31.8554 28.0658 31.4606 28.4211L31.3817 28.3421ZM4.77641 11.9211C4.89483 12.1579 4.77641 12.4737 4.53956 12.6316C4.46062 12.6316 4.38167 12.6711 4.30272 12.6711C4.10535 12.6711 3.94746 12.5526 3.82904 12.3947C2.96062 10.6974 1.65799 7.53947 2.64483 5.64474C2.76325 5.44737 2.88167 5.25 3.07904 5.09211C3.27641 4.89474 3.5922 4.89474 3.78956 5.09211C3.98693 5.28947 3.98693 5.60526 3.78956 5.80263C3.67114 5.92105 3.5922 6 3.55272 6.15789C2.72377 7.73684 4.26325 11.0132 4.73693 11.9605L4.77641 11.9211Z" fill="#ED2328"/>
</g>
<defs>
<clipPath id="clip0_576_71">
<rect width="33" height="33" fill="white"/>
</clipPath>
</defs>
</svg>
