<svg width="42" height="28" viewBox="0 0 42 28" fill="none" xmlns="http://www.w3.org/2000/svg">
<g clip-path="url(#clip0_576_11)">
<path d="M10.1452 27.9999H4.93066V24.3057H10.1452V27.9999ZM6.10127 26.8605H8.97458V25.4105H6.10127V26.8605Z" fill="#ED2328"/>
<path d="M36.8918 27.9999H31.6772V24.3057H36.8918V27.9999ZM32.8479 26.8605H35.7212V25.4105H32.8479V26.8605Z" fill="#ED2328"/>
<path d="M36.8209 25.3416H5.21453C2.34122 25.3416 0 23.0629 0 20.2664V11.7041C0 8.90758 2.34122 6.62891 5.21453 6.62891H11.9899V7.69919H5.21453C2.94426 7.69919 1.09966 9.49451 1.09966 11.7041V20.2664C1.09966 22.476 2.94426 24.2713 5.21453 24.2713H36.8209C39.0912 24.2713 40.9358 22.476 40.9358 20.2664V11.7041C40.9358 9.49451 39.0912 7.69919 36.8209 7.69919H29.7973V6.62891H36.8209C39.6943 6.62891 42.0355 8.90758 42.0355 11.7041V20.2664C42.0355 23.0629 39.6943 25.3416 36.8209 25.3416Z" fill="#ED2328"/>
<path d="M20.9999 15.2948C17.8073 15.2948 15.2178 12.7744 15.2178 9.66717C15.2178 6.5599 17.8073 4.03955 20.9999 4.03955C24.1924 4.03955 26.782 6.5599 26.782 9.66717C26.782 12.7744 24.1924 15.2948 20.9999 15.2948ZM20.9999 5.24794C18.4813 5.24794 16.4593 7.2504 16.4593 9.7017C16.4593 12.153 18.5168 14.1209 20.9999 14.1209C23.483 14.1209 25.5404 12.1185 25.5404 9.7017C25.5404 7.28493 23.483 5.24794 20.9999 5.24794Z" fill="#ED2328"/>
<path d="M20.9998 19.3687C15.5015 19.3687 11.0674 15.0185 11.0674 9.7016C11.0674 4.38471 15.537 0 20.9998 0C26.4627 0 30.9677 4.35019 30.9677 9.66708C30.9677 14.984 26.4981 19.3342 20.9998 19.3342V19.3687ZM20.9998 1.17386C16.1755 1.17386 12.2735 5.00617 12.2735 9.66708C12.2735 14.328 16.1755 18.1603 20.9998 18.1603C25.8241 18.1603 29.7262 14.328 29.7262 9.66708C29.7262 5.00617 25.8241 1.17386 20.9998 1.17386Z" fill="#ED2328"/>
</g>
<defs>
<clipPath id="clip0_576_11">
<rect width="42" height="28" fill="white"/>
</clipPath>
</defs>
</svg>
