<svg width="33" height="37" viewBox="0 0 33 37" fill="none" xmlns="http://www.w3.org/2000/svg">
<path fill-rule="evenodd" clip-rule="evenodd" d="M26.583 31.1502C26.363 31.1502 26.1797 30.9673 26.1797 30.748V28.5543C26.1797 28.0424 26.9864 28.0424 26.9864 28.5543V30.748C26.9864 30.9673 26.803 31.1502 26.583 31.1502ZM6.52638 31.1502C6.30638 31.1502 6.12305 30.9673 6.12305 30.748V28.5543C6.12305 28.0424 6.92971 28.0424 6.92971 28.5543V30.748C6.92971 30.9673 6.74638 31.1502 6.52638 31.1502Z" fill="#ED2328"/>
<path d="M26.5833 31.333C26.2533 31.333 25.9966 31.0771 25.9966 30.748V28.5544C25.9966 27.7866 27.1699 27.8231 27.1699 28.5544V30.748C27.1699 31.0771 26.9133 31.333 26.5833 31.333ZM26.5833 28.3716C26.5833 28.3716 26.3633 28.3716 26.3633 28.5909V30.7846C26.3633 30.7846 26.4733 31.004 26.5833 31.004C26.6933 31.004 26.8033 30.8943 26.8033 30.7846V28.5909C26.8033 28.4081 26.6199 28.3716 26.5833 28.3716ZM6.52661 31.333C6.19661 31.333 5.93994 31.0771 5.93994 30.748V28.5544C5.93994 27.7866 7.07661 27.7866 7.07661 28.5544V30.748C7.07661 31.0771 6.81994 31.333 6.48994 31.333H6.52661ZM6.52661 28.3716C6.52661 28.3716 6.30661 28.3716 6.30661 28.5909V30.7846C6.30661 30.7846 6.41661 31.004 6.52661 31.004C6.63661 31.004 6.74661 30.8943 6.74661 30.7846V28.5909C6.74661 28.4081 6.56327 28.3716 6.52661 28.3716Z" fill="#ED2328"/>
<path fill-rule="evenodd" clip-rule="evenodd" d="M19.4336 11.7363H13.6769C13.1636 11.7363 13.2736 11.0782 13.2736 10.6029C13.2736 9.10392 14.4836 7.86084 16.0236 7.86084H17.0869C18.5902 7.86084 19.8369 9.06736 19.8369 10.6029C19.8369 11.0782 19.9469 11.7363 19.4336 11.7363ZM14.0802 10.9685H19.0302V10.6395C19.0302 9.57922 18.1502 8.70175 17.0869 8.70175H16.0236C14.9602 8.70175 14.0802 9.57922 14.0802 10.6395V10.9685Z" fill="#ED2328"/>
<path d="M19.4335 11.9189H13.6768C13.6768 11.9189 13.3835 11.8823 13.2735 11.7727C13.0535 11.5533 13.0902 11.1877 13.0902 10.8586C13.0902 10.7855 13.0902 10.7124 13.0902 10.6393C13.0902 9.03056 14.4102 7.71436 16.0235 7.71436H17.0868C18.7002 7.71436 20.0202 9.03056 20.0202 10.6393C20.0202 10.7124 20.0202 10.7855 20.0202 10.8586C20.0202 11.2242 20.0202 11.5533 19.8368 11.7727C19.7268 11.8823 19.6168 11.9189 19.4335 11.9189ZM16.0235 8.07997C14.6302 8.07997 13.4568 9.21337 13.4568 10.6393C13.4568 10.7124 13.4568 10.7855 13.4568 10.8586C13.4568 11.1146 13.4568 11.407 13.5302 11.5167C13.5302 11.5167 13.5668 11.5533 13.6768 11.5533H19.4335C19.4335 11.5533 19.5435 11.5533 19.5802 11.5167C19.6902 11.407 19.6535 11.1146 19.6535 10.8586C19.6535 10.7855 19.6535 10.7124 19.6535 10.6393C19.6535 9.24993 18.5168 8.07997 17.0868 8.07997H16.0235ZM19.2135 11.1511H13.8968V10.6393C13.8968 9.4693 14.8502 8.5187 16.0235 8.5187H17.0868C18.2602 8.5187 19.2135 9.4693 19.2135 10.6393V11.1511ZM14.2635 10.7855H18.8468V10.6393C18.8468 9.6521 18.0402 8.88432 17.0868 8.88432H16.0235C15.0335 8.88432 14.2635 9.68866 14.2635 10.6393V10.7855Z" fill="#ED2328"/>
<path fill-rule="evenodd" clip-rule="evenodd" d="M17.7099 13.5641H15.4365C15.2165 13.5641 15.0332 13.3812 15.0332 13.1619V11.3338C15.0332 11.1144 15.2165 10.9316 15.4365 10.9316H17.7099C17.9299 10.9316 18.1132 11.1144 18.1132 11.3338V13.1619C18.1132 13.3812 17.9299 13.5641 17.7099 13.5641ZM15.8032 12.7963H17.3065V11.736H15.8032V12.7963Z" fill="#ED2328"/>
<path d="M17.7101 13.747H15.4368C15.1068 13.747 14.8501 13.4911 14.8501 13.1621V11.334C14.8501 11.005 15.1068 10.749 15.4368 10.749H17.7101C18.0401 10.749 18.2968 11.005 18.2968 11.334V13.1621C18.2968 13.4911 18.0401 13.747 17.7101 13.747ZM15.4368 11.1512C15.4368 11.1512 15.2168 11.2609 15.2168 11.3706V13.1986C15.2168 13.1986 15.3268 13.418 15.4368 13.418H17.7101C17.7101 13.418 17.9301 13.3083 17.9301 13.1986V11.3706C17.9301 11.3706 17.8201 11.1512 17.7101 11.1512H15.4368ZM17.4901 12.9793H15.6201V11.5534H17.4901V12.9793ZM15.9868 12.6136H17.1234V11.919H15.9868V12.6136Z" fill="#ED2328"/>
<path fill-rule="evenodd" clip-rule="evenodd" d="M23.9063 5.30158C23.613 5.30158 23.393 4.93597 23.5763 4.68004L25.263 2.15732C25.5563 1.71858 26.2163 2.15732 25.923 2.59605L24.2363 5.11878C24.2363 5.11878 24.053 5.30158 23.9063 5.30158Z" fill="#ED2328"/>
<path d="M23.9065 5.48425C23.6865 5.48425 23.5032 5.37457 23.3932 5.19176C23.2832 5.00896 23.3198 4.78959 23.3932 4.60678L25.0798 2.08405C25.0798 2.08405 25.3732 1.82812 25.5565 1.82812C25.7765 1.82812 25.9598 1.97437 26.0698 2.15718C26.1432 2.33998 26.1432 2.52279 26.0332 2.7056L24.3465 5.22832C24.3465 5.22832 24.0532 5.48425 23.8698 5.48425H23.9065ZM25.5565 2.15718C25.5565 2.15718 25.4465 2.15718 25.4098 2.26686L23.7232 4.78959C23.7232 4.78959 23.6865 4.93583 23.7232 5.00896C23.7965 5.11864 24.0165 5.1552 24.0898 5.00896L25.7765 2.48623C25.7765 2.48623 25.8132 2.33998 25.7765 2.30342C25.7765 2.2303 25.6665 2.19374 25.5932 2.15718H25.5565Z" fill="#ED2328"/>
<path fill-rule="evenodd" clip-rule="evenodd" d="M29.5169 9.76185C29.1136 9.76185 28.9669 9.21343 29.3336 9.03062L32.2302 7.56817C32.7069 7.3488 33.0369 8.04347 32.5969 8.26284C32.1936 8.44564 29.7369 9.76185 29.5169 9.76185Z" fill="#ED2328"/>
<path d="M29.5168 9.9448C29.2602 9.9448 29.0035 9.76199 28.9668 9.50607C28.8935 9.25014 29.0402 8.99421 29.2602 8.84796L32.1568 7.38551C32.4868 7.20271 32.8168 7.38551 32.9268 7.64144C33.0368 7.89737 33.0002 8.26298 32.6702 8.40923C32.5968 8.44579 32.4135 8.51891 32.2302 8.62859C30.1035 9.72543 29.6635 9.90824 29.5168 9.90824V9.9448ZM32.4135 7.678C32.4135 7.678 32.3402 7.678 32.3035 7.678L29.4068 9.14045C29.4068 9.14045 29.2968 9.2867 29.2968 9.35982C29.2968 9.43294 29.3702 9.50607 29.4802 9.50607C29.7368 9.43294 31.3868 8.59203 32.0468 8.26298C32.2668 8.1533 32.4135 8.08018 32.4868 8.04362C32.6702 7.97049 32.5968 7.78769 32.5602 7.75112C32.5602 7.75112 32.4868 7.64144 32.3768 7.64144L32.4135 7.678Z" fill="#ED2328"/>
<path fill-rule="evenodd" clip-rule="evenodd" d="M16.4995 3.87552C16.2795 3.87552 16.0962 3.69271 16.0962 3.47335V0.548444C16.0962 0.0365864 16.9029 0.0365864 16.9029 0.548444V3.47335C16.9029 3.69271 16.7195 3.87552 16.4995 3.87552Z" fill="#ED2328"/>
<path d="M16.4998 4.05838C16.1698 4.05838 15.9131 3.80245 15.9131 3.4734V0.548496C15.9131 -0.21929 17.0498 -0.21929 17.0498 0.548496V3.4734C17.0498 3.80245 16.7931 4.05838 16.4631 4.05838H16.4998ZM16.4998 0.36569C16.4998 0.36569 16.2798 0.36569 16.2798 0.585057V3.50996C16.2798 3.50996 16.3898 3.72933 16.4998 3.72933C16.6098 3.72933 16.7198 3.61964 16.7198 3.50996V0.548496C16.7198 0.36569 16.5364 0.329129 16.4998 0.329129V0.36569Z" fill="#ED2328"/>
<path fill-rule="evenodd" clip-rule="evenodd" d="M9.09357 5.30158C9.09357 5.30158 8.83691 5.22846 8.76357 5.11878L7.0769 2.59605C6.78357 2.15732 7.44357 1.71858 7.7369 2.15732L9.42357 4.68004C9.6069 4.93597 9.42357 5.30158 9.09357 5.30158Z" fill="#ED2328"/>
<path d="M9.09345 5.48425C8.91011 5.48425 8.72678 5.37457 8.61678 5.22832L6.93011 2.7056C6.93011 2.7056 6.78345 2.33998 6.89345 2.15718C7.00345 1.97437 7.18678 1.82812 7.40678 1.82812C7.62678 1.82812 7.77345 1.90125 7.92012 2.08405L9.60678 4.60678C9.60678 4.60678 9.75345 5.00896 9.60678 5.19176C9.49678 5.37457 9.31345 5.48425 9.09345 5.48425ZM7.44345 2.15718C7.44345 2.15718 7.26011 2.2303 7.22345 2.30342C7.22345 2.37654 7.22345 2.41311 7.22345 2.48623L8.91012 5.00896C8.91012 5.00896 9.20345 5.11864 9.27678 5.00896C9.27678 5.00896 9.31345 4.89927 9.27678 4.78959L7.59011 2.26686C7.59011 2.26686 7.48011 2.15718 7.44345 2.15718Z" fill="#ED2328"/>
<path fill-rule="evenodd" clip-rule="evenodd" d="M3.4834 9.76196C3.2634 9.76196 0.806734 8.44575 0.403401 8.26295C-0.0732658 8.04358 0.293401 7.31236 0.770068 7.56828L3.66673 9.03073C4.0334 9.21354 3.88673 9.76196 3.4834 9.76196Z" fill="#ED2328"/>
<path d="M3.48332 9.9448C3.48332 9.9448 2.85999 9.72543 0.733321 8.62859C0.549988 8.51891 0.403321 8.44579 0.329988 8.40923C-1.23661e-05 8.22642 -0.036679 7.89737 0.073321 7.64144C0.219988 7.38551 0.513321 7.20271 0.843321 7.38551L3.73999 8.84796C3.99665 8.95765 4.10665 9.21358 4.03332 9.50607C3.95999 9.76199 3.73999 9.9448 3.48332 9.9448ZM0.586654 7.678C0.586654 7.678 0.439988 7.78769 0.403321 7.78769C0.403321 7.78769 0.329988 7.97049 0.476654 8.08018C0.549988 8.08018 0.696654 8.18986 0.879988 8.29954C1.53999 8.62859 3.22665 9.50607 3.48332 9.57919C3.59332 9.57919 3.66665 9.50607 3.66665 9.43294C3.66665 9.35982 3.66665 9.25014 3.55665 9.21358L0.659988 7.75112C0.659988 7.75112 0.586654 7.75112 0.549988 7.75112L0.586654 7.678Z" fill="#ED2328"/>
<path fill-rule="evenodd" clip-rule="evenodd" d="M1.063 28.9563C0.843001 28.9563 0.659668 28.7735 0.659668 28.5542C0.659668 19.816 7.80967 12.7231 16.573 12.7231C25.3363 12.7231 32.4863 19.8526 32.4863 28.5907C32.4863 28.8101 32.303 28.9929 32.083 28.9929H1.063V28.9563ZM16.573 13.4909C8.35967 13.4909 1.64967 20.0354 1.46633 28.1886H31.6797C31.4597 20.072 24.7863 13.4909 16.573 13.4909Z" fill="#ED2328"/>
<path d="M1.06323 29.1393C0.733229 29.1393 0.476562 28.8834 0.476562 28.5544C0.476563 19.7065 7.6999 12.5405 16.5732 12.5405C25.4466 12.5405 32.6699 19.7431 32.6699 28.5909C32.6699 28.92 32.4132 29.1759 32.0832 29.1759H1.06323V29.1393ZM16.5732 12.9061C7.88323 12.9061 0.843229 19.9259 0.843229 28.5544C0.843229 28.664 0.953229 28.7737 1.06323 28.7737H32.0832C32.0832 28.7737 32.3032 28.664 32.3032 28.5544C32.3032 19.9259 25.2632 12.8696 16.5732 12.8696V12.9061ZM1.28323 28.3716V28.1887C1.50323 19.999 8.3599 13.3449 16.5732 13.3449C24.7866 13.3449 31.6432 19.999 31.8632 28.1887V28.3716H1.28323ZM16.5732 13.6739C8.61656 13.6739 1.94323 20.0721 1.6499 28.0059H31.4966C31.2032 20.1087 24.5299 13.6739 16.5732 13.6739Z" fill="#ED2328"/>
<path fill-rule="evenodd" clip-rule="evenodd" d="M30.0666 36.8171H3.04325C2.05325 36.8171 1.24658 36.0128 1.24658 35.0256V33.5632C1.24658 31.8082 2.67658 30.3823 4.43658 30.3823H28.6733C30.4332 30.3823 31.8632 31.8082 31.8632 33.5632V35.0256C31.8632 36.0128 31.0566 36.8171 30.0666 36.8171ZM4.43658 31.1501C3.11658 31.1501 2.01658 32.2104 2.01658 33.5632V35.0256C2.01658 35.574 2.45658 36.0128 3.00658 36.0128H30.0299C30.5799 36.0128 31.0199 35.574 31.0199 35.0256V33.5632C31.0199 32.2469 29.9566 31.1501 28.5999 31.1501H4.43658Z" fill="#ED2328"/>
<path d="M30.0668 37.0001H3.04348C1.94348 37.0001 1.06348 36.1226 1.06348 35.0258V33.5633C1.06348 31.6987 2.56681 30.1997 4.43681 30.1997H28.6735C30.5435 30.1997 32.0468 31.6987 32.0468 33.5633V35.0258C32.0468 36.1226 31.1668 37.0001 30.0668 37.0001ZM4.43681 30.5288C2.78681 30.5288 1.43014 31.8815 1.43014 33.5268V34.9892C1.43014 35.8667 2.16348 36.5979 3.04348 36.5979H30.0668C30.9468 36.5979 31.6801 35.8667 31.6801 34.9892V33.5268C31.6801 31.8815 30.3235 30.5288 28.6735 30.5288H4.43681ZM30.0668 36.1958H3.04348C2.38348 36.1958 1.87014 35.6473 1.87014 35.0258V33.5633C1.87014 32.1375 3.04348 30.9675 4.47348 30.9675H28.7101C30.1401 30.9675 31.3135 32.1375 31.3135 33.5633V35.0258C31.3135 35.6839 30.7635 36.1958 30.1401 36.1958H30.0668ZM4.43681 31.3331C3.22681 31.3331 2.20014 32.3203 2.20014 33.5633V35.0258C2.20014 35.4645 2.56681 35.8301 3.00681 35.8301H30.0301C30.4701 35.8301 30.8368 35.4645 30.8368 35.0258V33.5633C30.8368 32.3568 29.8468 31.3331 28.6001 31.3331H4.43681Z" fill="#ED2328"/>
</svg>
