<svg width="39" height="34" viewBox="0 0 39 34" fill="none" xmlns="http://www.w3.org/2000/svg">
<g clip-path="url(#clip0_576_178)">
<path d="M29.6788 34.0002H6.48757C2.90822 34.0002 0 31.0601 0 27.4414V9.19753C0 5.54121 2.90822 2.60107 6.48757 2.60107H30.2753C33.8547 2.60107 36.7629 5.54121 36.7629 9.15983V18.3949C36.7629 18.6964 36.5392 18.9226 36.2409 18.9226C35.9426 18.9226 35.7189 18.6964 35.7189 18.3949V9.15983C35.7189 6.14431 33.2954 3.65651 30.2753 3.65651H6.48757C3.50478 3.6942 1.04398 6.14431 1.04398 9.19753V27.4791C1.04398 30.4946 3.4675 32.9824 6.48757 32.9824H29.6788C29.9771 32.9824 30.2008 33.2086 30.2008 33.5102C30.2008 33.8117 29.9771 34.0379 29.6788 34.0379V34.0002Z" fill="#ED2328"/>
<path d="M35.9427 11.2703H0.820328C0.522049 11.2703 0.29834 11.0441 0.29834 10.7426C0.29834 10.441 0.522049 10.2148 0.820328 10.2148H35.9427C36.241 10.2148 36.4647 10.441 36.4647 10.7426C36.4647 11.0441 36.241 11.2703 35.9427 11.2703Z" fill="#ED2328"/>
<path d="M10.4771 6.67184C10.1788 6.67184 9.95508 6.44568 9.95508 6.14412V0.527716C9.95508 0.226164 10.1788 0 10.4771 0C10.7753 0 10.9991 0.226164 10.9991 0.527716V6.14412C10.9991 6.44568 10.7753 6.67184 10.4771 6.67184Z" fill="#ED2328"/>
<path d="M25.8755 6.67184C25.5772 6.67184 25.3535 6.44568 25.3535 6.14412V0.527716C25.3535 0.226164 25.5772 0 25.8755 0C26.1738 0 26.3975 0.226164 26.3975 0.527716V6.14412C26.3975 6.44568 26.1738 6.67184 25.8755 6.67184Z" fill="#ED2328"/>
<path d="M29.7906 33.9623C24.6826 33.9623 20.5439 29.7783 20.5439 24.6142C20.5439 19.4501 24.6826 15.2661 29.7906 15.2661C34.8986 15.2661 39.0373 19.4501 39.0373 24.6142C39.0373 29.7783 34.8986 33.9623 29.7906 33.9623ZM29.7906 16.2839C25.2418 16.2839 21.5506 20.0156 21.5506 24.6142C21.5506 29.2129 25.2418 32.9446 29.7906 32.9446C34.3394 32.9446 38.0306 29.2129 38.0306 24.6142C38.0306 20.0156 34.3394 16.2839 29.7906 16.2839Z" fill="#ED2328"/>
<path d="M33.4072 25.7451H29.2686V19.7894C29.2686 19.5256 29.4923 19.2617 29.7905 19.2617C30.0888 19.2617 30.3125 19.4879 30.3125 19.7894V24.7273H33.4072C33.7055 24.7273 33.9292 24.9535 33.9292 25.2551C33.9292 25.5566 33.7055 25.7828 33.4072 25.7828V25.7451Z" fill="#ED2328"/>
<path d="M29.9398 26.1976C30.4958 26.1976 30.9465 25.7419 30.9465 25.1798C30.9465 24.6178 30.4958 24.1621 29.9398 24.1621C29.3838 24.1621 28.9331 24.6178 28.9331 25.1798C28.9331 25.7419 29.3838 26.1976 29.9398 26.1976Z" fill="#ED2328"/>
</g>
<defs>
<clipPath id="clip0_576_178">
<rect width="39" height="34" fill="white"/>
</clipPath>
</defs>
</svg>
