<svg width="34" height="34" viewBox="0 0 34 34" fill="none" xmlns="http://www.w3.org/2000/svg">
<g clip-path="url(#clip0_576_109)">
<path d="M22.5088 33.9998C16.6354 33.9998 11.8564 29.2208 11.8564 23.3474C11.8564 23.1285 11.8564 22.8732 11.8564 22.6543C11.8564 22.3624 12.1118 22.1436 12.4401 22.1436C12.732 22.1436 12.9873 22.4354 12.9509 22.7272C12.9509 22.9461 12.9509 23.1285 12.9509 23.3474C12.9509 28.6006 17.2191 32.9054 22.5088 32.9054C27.7985 32.9054 32.0667 28.6371 32.0667 23.3474C32.0667 23.1285 32.0667 22.9096 32.0667 22.7272C32.0667 22.4354 32.2856 22.18 32.5775 22.1436C32.9058 22.1436 33.1247 22.3624 33.1612 22.6543C33.1612 22.8732 33.1612 23.1285 33.1612 23.3474C33.1612 29.2208 28.3822 33.9998 22.5088 33.9998Z" fill="#ED2328"/>
<path d="M22.5088 28.8925C21.8522 28.8925 21.1955 28.7466 20.5753 28.4912C18.3135 27.5062 17.1826 24.8796 17.9487 22.5448C18.0582 22.253 18.35 22.1071 18.6419 22.2165C18.9337 22.326 19.0796 22.6178 18.9702 22.9096C18.35 24.6972 19.262 26.7401 20.9766 27.5062C21.8886 27.9075 22.8736 27.944 23.8221 27.5792C24.7341 27.2144 25.4637 26.5212 25.865 25.6092C26.2298 24.7702 26.2663 23.8217 25.9745 22.9461C25.865 22.6543 26.011 22.3624 26.3028 22.253C26.5947 22.1436 26.8865 22.326 26.9959 22.5813C27.3972 23.7122 27.3243 24.9526 26.85 26.047C26.0474 27.8345 24.2964 28.929 22.4359 28.929L22.5088 28.8925Z" fill="#ED2328"/>
<path d="M22.5085 26.2297C22.2166 26.2297 21.9248 26.1568 21.6329 26.0473C21.1222 25.8284 20.7209 25.3907 20.502 24.8434C20.2832 24.2962 20.3196 23.749 20.5385 23.2018C20.6844 22.837 20.9398 22.5452 21.2681 22.2898C21.5235 22.1074 21.8518 22.1804 22.0342 22.4357C22.2166 22.6911 22.1437 23.0194 21.8883 23.2018C21.7424 23.3113 21.5965 23.4572 21.5235 23.6396C21.4141 23.895 21.4141 24.1868 21.5235 24.4422C21.6329 24.6975 21.8153 24.9164 22.0707 25.0259C22.3261 25.1353 22.6179 25.1353 22.8733 25.0259C23.1286 24.9164 23.3475 24.734 23.457 24.4786C23.6394 24.0044 23.4935 23.4937 23.0922 23.2018C22.8368 23.0194 22.7638 22.6911 22.9462 22.4357C23.1286 22.1804 23.457 22.1074 23.7123 22.2898C24.5514 22.8735 24.8797 23.9679 24.442 24.9164C24.2231 25.4271 23.7853 25.8284 23.2746 26.0473C23.0192 26.1568 22.7638 26.1932 22.5085 26.1932V26.2297Z" fill="#ED2328"/>
<path d="M23.8221 9.55816C23.5303 9.55816 23.2749 9.3028 23.2749 9.01095V6.20194C23.2749 5.21696 22.4723 4.45087 21.5239 4.45087H7.58823C7.29638 4.45087 7.04102 4.1955 7.04102 3.90366C7.04102 3.61181 7.29638 3.35645 7.58823 3.35645H21.5239C23.0925 3.35645 24.3693 4.63327 24.3693 6.20194V9.01095C24.3693 9.3028 24.114 9.55816 23.8221 9.55816Z" fill="#ED2328"/>
<path d="M21.1589 9.63098C20.867 9.63098 20.6117 9.37562 20.6117 9.08377V7.07734H2.55371V3.31982H8.68247C8.97431 3.31982 9.22968 3.57519 9.22968 3.86703C9.22968 4.15888 8.97431 4.41424 8.68247 4.41424H3.64813V5.98291H20.7941C21.3048 5.98291 21.7061 6.3842 21.7061 6.89493V9.04729C21.7061 9.33914 21.4507 9.5945 21.1589 9.5945V9.63098Z" fill="#ED2328"/>
<path d="M32.8689 23.2745H12.1114C11.4912 23.2745 10.9805 22.7637 10.9805 22.1436V20.1736C10.9805 13.7895 16.1242 8.57275 22.4719 8.57275C25.5363 8.57275 28.4182 9.77662 30.6071 11.929C32.7959 14.0813 33.9633 16.9998 33.9633 20.0642V22.1436C33.9633 22.7637 33.4526 23.2745 32.8324 23.2745H32.8689ZM31.8839 22.18H32.8689V20.0642C32.8689 17.2916 31.8109 14.665 29.841 12.6951C27.871 10.7251 25.2809 9.66718 22.4719 9.66718C16.7444 9.66718 12.0749 14.3732 12.0749 20.1736V22.1436H31.8839V22.18Z" fill="#ED2328"/>
<path d="M2.2618 10.47H0.693133C0.328326 10.47 0 10.1781 0 9.77682V0.693133C0 0.328326 0.291846 0 0.693133 0H2.2618C3.0279 0 3.64807 0.620172 3.64807 1.38627V9.04721C3.64807 9.81331 3.0279 10.4335 2.2618 10.4335V10.47ZM1.09442 9.37554H2.2618C2.2618 9.37554 2.55365 9.22961 2.55365 9.08369V1.38627C2.55365 1.38627 2.40773 1.09442 2.2618 1.09442H1.09442V9.37554Z" fill="#ED2328"/>
</g>
<defs>
<clipPath id="clip0_576_109">
<rect width="34" height="34" fill="white"/>
</clipPath>
</defs>
</svg>
