<svg width="214" height="186" viewBox="0 0 214 186" fill="none" xmlns="http://www.w3.org/2000/svg">
<rect width="214" height="186" fill="#F5F5F5"/>
<path d="M88.7025 71.5942C87.7832 71.5942 87 70.8463 87 69.8944C87 68.9426 87.7491 68.1947 88.7025 68.1947C89.6559 68.1947 90.405 68.9426 90.405 69.8944C90.405 70.8463 89.6559 71.5942 88.7025 71.5942ZM88.7025 69.2145C88.328 69.2145 88.0215 69.5205 88.0215 69.8944C88.0215 70.2684 88.328 70.5743 88.7025 70.5743C89.0771 70.5743 89.3835 70.2684 89.3835 69.8944C89.3835 69.5205 89.0771 69.2145 88.7025 69.2145Z" fill="#ED2328"/>
<path d="M97.1129 70.3704H89.8943C89.6219 70.3704 89.3835 70.1325 89.3835 69.8605C89.3835 69.5886 89.6219 69.3506 89.8943 69.3506H97.1129C97.3853 69.3506 97.6236 69.5886 97.6236 69.8605C97.6236 70.1325 97.3853 70.3704 97.1129 70.3704Z" fill="#ED2328"/>
<path d="M92.1412 76.5571C91.1878 76.5571 90.4387 75.8092 90.4387 74.8573C90.4387 73.9055 91.1878 73.1576 92.1412 73.1576C93.0946 73.1576 93.8437 73.9055 93.8437 74.8573C93.8437 75.8092 93.0946 76.5571 92.1412 76.5571ZM92.1412 74.1774C91.7666 74.1774 91.4602 74.4834 91.4602 74.8573C91.4602 75.2313 91.7666 75.5373 92.1412 75.5373C92.5157 75.5373 92.8222 75.2313 92.8222 74.8573C92.8222 74.4834 92.5157 74.1774 92.1412 74.1774Z" fill="#ED2328"/>
<path d="M93.1285 74.5176C93.1285 74.5176 92.8561 74.4836 92.754 74.3816C92.5497 74.1776 92.5497 73.8717 92.754 73.6677L94.7289 71.696H97.4529C97.7253 71.696 97.9636 71.934 97.9636 72.2059C97.9636 72.4779 97.7253 72.7158 97.4529 72.7158H95.1375L93.469 74.3816C93.469 74.3816 93.2307 74.5176 93.0945 74.5176H93.1285Z" fill="#ED2328"/>
<path d="M92.1413 66.4947C91.1879 66.4947 90.4388 65.7468 90.4388 64.795C90.4388 63.8431 91.1879 63.0952 92.1413 63.0952C93.0947 63.0952 93.8438 63.8431 93.8438 64.795C93.8438 65.7468 93.0947 66.4947 92.1413 66.4947ZM92.1413 64.1491C91.7668 64.1491 91.4603 64.455 91.4603 64.829C91.4603 65.2029 91.7668 65.5089 92.1413 65.5089C92.5159 65.5089 92.8223 65.2029 92.8223 64.829C92.8223 64.455 92.5159 64.1491 92.1413 64.1491Z" fill="#ED2328"/>
<path d="M97.521 67.9905H94.7289L92.754 66.0187C92.5497 65.8148 92.5497 65.5088 92.754 65.3048C92.9583 65.1009 93.2647 65.1009 93.469 65.3048L95.1375 66.9706H97.4869C97.7593 66.9706 97.9977 67.2086 97.9977 67.4805C97.9977 67.7525 97.7593 67.9905 97.4869 67.9905H97.521Z" fill="#ED2328"/>
<path d="M123.297 71.5942C122.378 71.5942 121.595 70.8463 121.595 69.8944C121.595 68.9426 122.344 68.1947 123.297 68.1947C124.251 68.1947 125 68.9426 125 69.8944C125 70.8463 124.251 71.5942 123.297 71.5942ZM123.297 69.2145C122.923 69.2145 122.616 69.5205 122.616 69.8944C122.616 70.2684 122.923 70.5743 123.297 70.5743C123.672 70.5743 123.978 70.2684 123.978 69.8944C123.978 69.5205 123.672 69.2145 123.297 69.2145Z" fill="#ED2328"/>
<path d="M122.106 70.3704H114.921C114.649 70.3704 114.41 70.1325 114.41 69.8605C114.41 69.5886 114.649 69.3506 114.921 69.3506H122.106C122.378 69.3506 122.617 69.5886 122.617 69.8605C122.617 70.1325 122.378 70.3704 122.106 70.3704Z" fill="#ED2328"/>
<path d="M119.858 76.5571C118.938 76.5571 118.155 75.8092 118.155 74.8573C118.155 73.9055 118.904 73.1576 119.858 73.1576C120.811 73.1576 121.56 73.9055 121.56 74.8573C121.56 75.8092 120.811 76.5571 119.858 76.5571ZM119.858 74.1774C119.483 74.1774 119.177 74.4834 119.177 74.8573C119.177 75.2313 119.483 75.5373 119.858 75.5373C120.232 75.5373 120.539 75.2313 120.539 74.8573C120.539 74.4834 120.232 74.1774 119.858 74.1774Z" fill="#ED2328"/>
<path d="M118.871 74.5174C118.871 74.5174 118.598 74.4834 118.496 74.3814L116.828 72.7157H114.614C114.342 72.7157 114.104 72.4777 114.104 72.2057C114.104 71.9338 114.342 71.6958 114.614 71.6958H117.236L119.211 73.6675C119.416 73.8715 119.416 74.1775 119.211 74.3814C119.109 74.4834 118.973 74.5174 118.837 74.5174H118.871Z" fill="#ED2328"/>
<path d="M119.859 66.4947C118.939 66.4947 118.156 65.7468 118.156 64.795C118.156 63.8431 118.905 63.0952 119.859 63.0952C120.812 63.0952 121.561 63.8431 121.561 64.795C121.561 65.7468 120.812 66.4947 119.859 66.4947ZM119.859 64.1491C119.484 64.1491 119.178 64.455 119.178 64.829C119.178 65.2029 119.484 65.5089 119.859 65.5089C120.233 65.5089 120.54 65.2029 120.54 64.829C120.54 64.455 120.233 64.1491 119.859 64.1491Z" fill="#ED2328"/>
<path d="M117.27 67.9903H114.342C114.07 67.9903 113.831 67.7524 113.831 67.4804C113.831 67.2084 114.07 66.9705 114.342 66.9705H116.828L118.496 65.3047C118.701 65.1007 119.007 65.1007 119.211 65.3047C119.416 65.5087 119.416 65.8146 119.211 66.0186L117.236 67.9903H117.27Z" fill="#ED2328"/>
<path d="M106 58.03C105.047 58.03 104.298 57.2821 104.298 56.3302C104.298 55.3784 105.047 54.6305 106 54.6305C106.954 54.6305 107.703 55.3784 107.703 56.3302C107.703 57.2821 106.954 58.03 106 58.03ZM106 55.6843C105.626 55.6843 105.319 55.9903 105.319 56.3642C105.319 56.7382 105.626 57.0441 106 57.0441C106.375 57.0441 106.681 56.7382 106.681 56.3642C106.681 55.9903 106.375 55.6843 106 55.6843Z" fill="#ED2328"/>
<path d="M106.001 61.4635C105.728 61.4635 105.49 61.2256 105.49 60.9536V57.5201C105.49 57.2481 105.728 57.0101 106.001 57.0101C106.273 57.0101 106.511 57.2481 106.511 57.5201V60.9536C106.511 61.2256 106.273 61.4635 106.001 61.4635Z" fill="#ED2328"/>
<path d="M106.001 55.4462C105.728 55.4462 105.49 55.2082 105.49 54.9363V51.4347C105.49 51.1628 105.728 50.9248 106.001 50.9248C106.273 50.9248 106.511 51.1628 106.511 51.4347V54.9363C106.511 55.2082 106.273 55.4462 106.001 55.4462Z" fill="#ED2328"/>
<path d="M108.316 61.9392C108.043 61.9392 107.805 61.7012 107.805 61.4293V58.8456L109.61 57.0439V54.4602C109.61 54.1883 109.848 53.9503 110.12 53.9503C110.393 53.9503 110.631 54.1883 110.631 54.4602V57.4518L108.826 59.2536V61.3953C108.826 61.6673 108.588 61.9052 108.316 61.9052V61.9392Z" fill="#ED2328"/>
<path d="M103.617 61.9391C103.344 61.9391 103.106 61.7012 103.106 61.4292V59.2875L101.301 57.4857V54.4941C101.301 54.2222 101.54 53.9842 101.812 53.9842C102.084 53.9842 102.323 54.2222 102.323 54.4941V57.0778L104.127 58.8795V61.4632C104.127 61.7351 103.889 61.9731 103.617 61.9731V61.9391Z" fill="#ED2328"/>
<path d="M105.932 85.2604C104.979 85.2604 104.229 84.5125 104.229 83.5606C104.229 82.6087 104.979 81.8609 105.932 81.8609C106.885 81.8609 107.634 82.6087 107.634 83.5606C107.634 84.5125 106.885 85.2604 105.932 85.2604ZM105.932 82.8807C105.557 82.8807 105.251 83.1867 105.251 83.5606C105.251 83.9346 105.557 84.2405 105.932 84.2405C106.307 84.2405 106.613 83.9346 106.613 83.5606C106.613 83.1867 106.307 82.8807 105.932 82.8807Z" fill="#ED2328"/>
<path d="M105.932 82.8807C105.66 82.8807 105.421 82.6428 105.421 82.3708V78.5973C105.421 78.3254 105.66 78.0874 105.932 78.0874C106.205 78.0874 106.443 78.3254 106.443 78.5973V82.3708C106.443 82.6428 106.204 82.8807 105.932 82.8807Z" fill="#ED2328"/>
<path d="M105.932 88.9998C105.66 88.9998 105.421 88.7618 105.421 88.4898V84.9883C105.421 84.7164 105.66 84.4784 105.932 84.4784C106.205 84.4784 106.443 84.7164 106.443 84.9883V88.4898C106.443 88.7618 106.205 88.9998 105.932 88.9998Z" fill="#ED2328"/>
<path d="M101.812 85.9739C101.539 85.9739 101.301 85.7359 101.301 85.464V82.4724L103.106 80.6706V78.2909C103.106 78.019 103.344 77.781 103.616 77.781C103.889 77.781 104.127 78.019 104.127 78.2909V81.0786L102.323 82.8803V85.464C102.323 85.7359 102.084 85.9739 101.812 85.9739Z" fill="#ED2328"/>
<path d="M110.154 85.9739C109.882 85.9739 109.643 85.7359 109.643 85.4639V82.8803L107.839 81.0785V78.3249C107.839 78.0529 108.077 77.815 108.35 77.815C108.622 77.815 108.86 78.0529 108.86 78.3249V80.6706L110.665 82.4723V85.4639C110.665 85.7359 110.427 85.9739 110.154 85.9739Z" fill="#ED2328"/>
<path d="M105.966 79.073C100.859 79.073 96.7385 74.9256 96.7385 69.8603C96.7385 64.795 100.893 60.6476 105.966 60.6476C111.04 60.6476 115.194 64.795 115.194 69.8603C115.194 74.9256 111.04 79.073 105.966 79.073ZM105.966 61.6334C101.437 61.6334 97.76 65.3049 97.76 69.8263C97.76 74.3477 101.437 78.0192 105.966 78.0192C110.495 78.0192 114.172 74.3477 114.172 69.8263C114.172 65.3049 110.495 61.6334 105.966 61.6334Z" fill="#ED2328"/>
<path d="M104.161 73.906L101.743 71.4924C101.539 71.2884 101.539 70.9824 101.743 70.7785C101.948 70.5745 102.254 70.5745 102.459 70.7785L104.161 72.4782L109.779 66.869C109.984 66.665 110.29 66.665 110.494 66.869C110.699 67.073 110.699 67.3789 110.494 67.5829L104.161 73.906Z" fill="#ED2328"/>
<path d="M30.8293 117.818H33.4841L36.2881 124.659H36.4074L39.2114 117.818H41.8662V128H39.7781V121.373H39.6936L37.0587 127.95H35.6368L33.0019 121.348H32.9173V128H30.8293V117.818ZM45.3948 128H43.088L46.6029 117.818H49.377L52.887 128H50.5802L48.0297 120.145H47.9502L45.3948 128ZM45.2506 123.998H50.6995V125.678H45.2506V123.998ZM52.4806 119.593V117.818H60.8428V119.593H57.7256V128H55.5977V119.593H52.4806ZM62.2199 128V117.818H69.0807V119.593H64.3726V122.019H68.7277V123.794H64.3726V126.225H69.1006V128H62.2199ZM70.7922 128V117.818H74.8092C75.5782 117.818 76.2344 117.956 76.778 118.231C77.3248 118.503 77.7408 118.889 78.0258 119.389C78.3142 119.886 78.4584 120.471 78.4584 121.144C78.4584 121.82 78.3125 122.402 78.0209 122.889C77.7292 123.373 77.3066 123.744 76.7531 124.003C76.2029 124.261 75.5367 124.391 74.7545 124.391H72.0649V122.661H74.4065C74.8175 122.661 75.1589 122.604 75.4307 122.491C75.7024 122.379 75.9046 122.21 76.0372 121.984C76.1731 121.759 76.241 121.479 76.241 121.144C76.241 120.806 76.1731 120.521 76.0372 120.289C75.9046 120.057 75.7008 119.881 75.4257 119.762C75.1539 119.639 74.8109 119.578 74.3966 119.578H72.9449V128H70.7922ZM76.2907 123.366L78.8213 128H76.4449L73.969 123.366H76.2907ZM82.1324 117.818V128H79.9797V117.818H82.1324ZM85.6585 128H83.3517L86.8666 117.818H89.6407L93.1507 128H90.8438L88.2934 120.145H88.2139L85.6585 128ZM85.5143 123.998H90.9632V125.678H85.5143V123.998ZM94.3762 128V117.818H96.5289V126.225H100.894V128H94.3762ZM107.843 120.746C107.803 120.345 107.632 120.034 107.331 119.812C107.029 119.59 106.62 119.479 106.103 119.479C105.752 119.479 105.455 119.528 105.213 119.628C104.971 119.724 104.785 119.858 104.656 120.031C104.53 120.203 104.467 120.398 104.467 120.617C104.461 120.799 104.499 120.959 104.582 121.094C104.668 121.23 104.785 121.348 104.935 121.447C105.084 121.544 105.256 121.628 105.452 121.701C105.647 121.771 105.856 121.83 106.078 121.88L106.993 122.099C107.437 122.198 107.845 122.331 108.216 122.496C108.587 122.662 108.909 122.866 109.18 123.108C109.452 123.35 109.663 123.635 109.812 123.963C109.964 124.291 110.042 124.667 110.045 125.092C110.042 125.715 109.883 126.255 109.568 126.712C109.257 127.166 108.806 127.519 108.216 127.771C107.629 128.02 106.922 128.144 106.093 128.144C105.271 128.144 104.555 128.018 103.945 127.766C103.339 127.514 102.865 127.142 102.523 126.648C102.185 126.151 102.008 125.536 101.991 124.803H104.074C104.098 125.145 104.195 125.43 104.368 125.658C104.543 125.884 104.777 126.054 105.069 126.17C105.364 126.283 105.697 126.339 106.068 126.339C106.433 126.339 106.749 126.286 107.018 126.18C107.289 126.074 107.5 125.927 107.649 125.738C107.798 125.549 107.873 125.332 107.873 125.087C107.873 124.858 107.805 124.666 107.669 124.51C107.536 124.354 107.341 124.222 107.082 124.112C106.827 124.003 106.514 123.903 106.143 123.814L105.034 123.536C104.176 123.327 103.498 123 103.001 122.556C102.503 122.112 102.257 121.514 102.26 120.761C102.257 120.145 102.421 119.606 102.752 119.146C103.087 118.685 103.546 118.325 104.129 118.067C104.713 117.808 105.375 117.679 106.118 117.679C106.873 117.679 107.533 117.808 108.097 118.067C108.663 118.325 109.104 118.685 109.419 119.146C109.734 119.606 109.896 120.14 109.906 120.746H107.843ZM123.717 121.383H121.54C121.5 121.101 121.419 120.851 121.296 120.632C121.173 120.41 121.016 120.221 120.824 120.065C120.632 119.91 120.409 119.79 120.158 119.707C119.909 119.625 119.639 119.583 119.347 119.583C118.82 119.583 118.361 119.714 117.97 119.976C117.579 120.234 117.276 120.612 117.06 121.109C116.845 121.603 116.737 122.203 116.737 122.909C116.737 123.635 116.845 124.245 117.06 124.739C117.279 125.232 117.584 125.605 117.975 125.857C118.366 126.109 118.819 126.235 119.332 126.235C119.621 126.235 119.887 126.197 120.133 126.121C120.381 126.045 120.602 125.933 120.794 125.788C120.986 125.638 121.145 125.458 121.271 125.246C121.4 125.034 121.49 124.792 121.54 124.52L123.717 124.53C123.661 124.997 123.52 125.448 123.295 125.882C123.073 126.313 122.773 126.699 122.395 127.04C122.02 127.379 121.573 127.647 121.052 127.846C120.535 128.041 119.95 128.139 119.297 128.139C118.389 128.139 117.577 127.934 116.861 127.523C116.149 127.112 115.585 126.517 115.171 125.738C114.76 124.959 114.555 124.016 114.555 122.909C114.555 121.799 114.763 120.854 115.181 120.075C115.599 119.296 116.165 118.703 116.881 118.295C117.597 117.884 118.403 117.679 119.297 117.679C119.887 117.679 120.434 117.762 120.938 117.928C121.445 118.093 121.894 118.335 122.285 118.653C122.677 118.968 122.995 119.354 123.24 119.812C123.489 120.269 123.648 120.793 123.717 121.383ZM134.617 122.909C134.617 124.019 134.407 124.964 133.986 125.743C133.568 126.522 132.998 127.117 132.276 127.528C131.557 127.935 130.748 128.139 129.85 128.139C128.945 128.139 128.133 127.934 127.414 127.523C126.694 127.112 126.126 126.517 125.708 125.738C125.291 124.959 125.082 124.016 125.082 122.909C125.082 121.799 125.291 120.854 125.708 120.075C126.126 119.296 126.694 118.703 127.414 118.295C128.133 117.884 128.945 117.679 129.85 117.679C130.748 117.679 131.557 117.884 132.276 118.295C132.998 118.703 133.568 119.296 133.986 120.075C134.407 120.854 134.617 121.799 134.617 122.909ZM132.435 122.909C132.435 122.19 132.327 121.583 132.112 121.089C131.9 120.596 131.6 120.221 131.212 119.966C130.824 119.711 130.37 119.583 129.85 119.583C129.329 119.583 128.875 119.711 128.487 119.966C128.1 120.221 127.798 120.596 127.583 121.089C127.371 121.583 127.264 122.19 127.264 122.909C127.264 123.628 127.371 124.235 127.583 124.729C127.798 125.223 128.1 125.597 128.487 125.852C128.875 126.107 129.329 126.235 129.85 126.235C130.37 126.235 130.824 126.107 131.212 125.852C131.6 125.597 131.9 125.223 132.112 124.729C132.327 124.235 132.435 123.628 132.435 122.909ZM144.728 117.818V128H142.869L138.439 121.592H138.365V128H136.212V117.818H138.101L142.496 124.222H142.586V117.818H144.728ZM146.119 119.593V117.818H154.481V119.593H151.364V128H149.236V119.593H146.119ZM155.859 128V117.818H159.876C160.645 117.818 161.301 117.956 161.844 118.231C162.391 118.503 162.807 118.889 163.092 119.389C163.381 119.886 163.525 120.471 163.525 121.144C163.525 121.82 163.379 122.402 163.087 122.889C162.796 123.373 162.373 123.744 161.82 124.003C161.269 124.261 160.603 124.391 159.821 124.391H157.131V122.661H159.473C159.884 122.661 160.225 122.604 160.497 122.491C160.769 122.379 160.971 122.21 161.104 121.984C161.239 121.759 161.307 121.479 161.307 121.144C161.307 120.806 161.239 120.521 161.104 120.289C160.971 120.057 160.767 119.881 160.492 119.762C160.22 119.639 159.877 119.578 159.463 119.578H158.011V128H155.859ZM161.357 123.366L163.888 128H161.511L159.035 123.366H161.357ZM174.403 122.909C174.403 124.019 174.192 124.964 173.771 125.743C173.354 126.522 172.784 127.117 172.061 127.528C171.342 127.935 170.533 128.139 169.635 128.139C168.73 128.139 167.918 127.934 167.199 127.523C166.48 127.112 165.911 126.517 165.494 125.738C165.076 124.959 164.867 124.016 164.867 122.909C164.867 121.799 165.076 120.854 165.494 120.075C165.911 119.296 166.48 118.703 167.199 118.295C167.918 117.884 168.73 117.679 169.635 117.679C170.533 117.679 171.342 117.884 172.061 118.295C172.784 118.703 173.354 119.296 173.771 120.075C174.192 120.854 174.403 121.799 174.403 122.909ZM172.22 122.909C172.22 122.19 172.112 121.583 171.897 121.089C171.685 120.596 171.385 120.221 170.997 119.966C170.609 119.711 170.155 119.583 169.635 119.583C169.114 119.583 168.66 119.711 168.273 119.966C167.885 120.221 167.583 120.596 167.368 121.089C167.156 121.583 167.05 122.19 167.05 122.909C167.05 123.628 167.156 124.235 167.368 124.729C167.583 125.223 167.885 125.597 168.273 125.852C168.66 126.107 169.114 126.235 169.635 126.235C170.155 126.235 170.609 126.107 170.997 125.852C171.385 125.597 171.685 125.223 171.897 124.729C172.112 124.235 172.22 123.628 172.22 122.909ZM175.997 128V117.818H178.15V126.225H182.515V128H175.997Z" fill="#413D3D"/>
</svg>
