<svg width="214" height="186" viewBox="0 0 214 186" fill="none" xmlns="http://www.w3.org/2000/svg">
<rect width="214" height="186" fill="#F5F5F5"/>
<path d="M115.048 54.3447C111.761 54.3447 109.096 57.6624 109.096 61.7457C109.096 65.3551 111.177 68.4175 114.025 69.0373H114.208V87.3028C114.208 87.7767 114.573 88.1413 115.048 88.1413C115.523 88.1413 115.888 87.7767 115.888 87.3028V69.1102H116.07C118.919 68.454 121 65.3915 121 61.7822C121 57.6989 118.334 54.3812 115.048 54.3812V54.3447ZM115.048 67.4696C112.674 67.4696 110.775 64.9176 110.775 61.7457C110.775 58.5739 112.711 56.0218 115.048 56.0218C117.385 56.0218 119.32 58.5739 119.32 61.7457C119.32 64.9176 117.385 67.4696 115.048 67.4696Z" fill="#ED2328"/>
<path d="M104.896 54.3447C104.421 54.3447 104.056 54.7093 104.056 55.1833V61.7457C104.056 64.1155 103.326 65.2092 101.5 65.428H101.208V55.1833C101.208 54.7093 100.843 54.3447 100.368 54.3447C99.8933 54.3447 99.5281 54.7093 99.5281 55.1833V65.4644H99.236C97.4466 65.1728 96.6798 64.1155 96.6798 61.7457V55.1833C96.6798 54.7458 96.2781 54.3812 95.8399 54.3812C95.3652 54.3812 95 54.7458 95 55.1833V61.7457C95 65.1363 96.3511 66.8134 99.2725 67.105H99.4916V87.2663C99.4916 87.7403 99.8567 88.1049 100.331 88.1049C100.806 88.1049 101.171 87.7403 101.171 87.2663V67.1415H101.39C104.312 66.8134 105.663 65.0998 105.663 61.7457V55.1833C105.663 54.7093 105.298 54.3447 104.823 54.3447H104.896Z" fill="#ED2328"/>
<path d="M32.1154 117.818H34.7702L37.5742 124.659H37.6935L40.4975 117.818H43.1523V128H41.0643V121.373H40.9798L38.3448 127.95H36.9229L34.288 121.348H34.2035V128H32.1154V117.818ZM47.0787 117.818V128H44.926V117.818H47.0787ZM57.8335 121.383H55.6559C55.6161 121.101 55.5349 120.851 55.4123 120.632C55.2897 120.41 55.1322 120.221 54.94 120.065C54.7478 119.91 54.5257 119.79 54.2738 119.707C54.0252 119.625 53.7551 119.583 53.4634 119.583C52.9364 119.583 52.4774 119.714 52.0863 119.976C51.6952 120.234 51.3919 120.612 51.1765 121.109C50.9611 121.603 50.8533 122.203 50.8533 122.909C50.8533 123.635 50.9611 124.245 51.1765 124.739C51.3952 125.232 51.7002 125.605 52.0913 125.857C52.4824 126.109 52.9348 126.235 53.4485 126.235C53.7369 126.235 54.0037 126.197 54.2489 126.121C54.4975 126.045 54.7179 125.933 54.9102 125.788C55.1024 125.638 55.2615 125.458 55.3874 125.246C55.5167 125.034 55.6062 124.792 55.6559 124.52L57.8335 124.53C57.7771 124.997 57.6362 125.448 57.4109 125.882C57.1888 126.313 56.8888 126.699 56.511 127.04C56.1365 127.379 55.689 127.647 55.1687 127.846C54.6516 128.041 54.0666 128.139 53.4137 128.139C52.5056 128.139 51.6935 127.934 50.9776 127.523C50.265 127.112 49.7016 126.517 49.2873 125.738C48.8763 124.959 48.6708 124.016 48.6708 122.909C48.6708 121.799 48.8796 120.854 49.2972 120.075C49.7148 119.296 50.2816 118.703 50.9975 118.295C51.7134 117.884 52.5188 117.679 53.4137 117.679C54.0037 117.679 54.5505 117.762 55.0543 117.928C55.5614 118.093 56.0105 118.335 56.4016 118.653C56.7927 118.968 57.1109 119.354 57.3562 119.812C57.6048 120.269 57.7638 120.793 57.8335 121.383ZM59.3771 128V117.818H63.3942C64.1631 117.818 64.8194 117.956 65.3629 118.231C65.9098 118.503 66.3258 118.889 66.6108 119.389C66.8991 119.886 67.0433 120.471 67.0433 121.144C67.0433 121.82 66.8975 122.402 66.6058 122.889C66.3142 123.373 65.8916 123.744 65.3381 124.003C64.7879 124.261 64.1217 124.391 63.3395 124.391H60.6499V122.661H62.9915C63.4025 122.661 63.7438 122.604 64.0156 122.491C64.2874 122.379 64.4896 122.21 64.6222 121.984C64.758 121.759 64.826 121.479 64.826 121.144C64.826 120.806 64.758 120.521 64.6222 120.289C64.4896 120.057 64.2857 119.881 64.0107 119.762C63.7389 119.639 63.3958 119.578 62.9815 119.578H61.5298V128H59.3771ZM64.8757 123.366L67.4062 128H65.0298L62.554 123.366H64.8757ZM77.9212 122.909C77.9212 124.019 77.7107 124.964 77.2898 125.743C76.8722 126.522 76.3021 127.117 75.5795 127.528C74.8603 127.935 74.0516 128.139 73.1534 128.139C72.2486 128.139 71.4366 127.934 70.7173 127.523C69.9981 127.112 69.4297 126.517 69.0121 125.738C68.5945 124.959 68.3857 124.016 68.3857 122.909C68.3857 121.799 68.5945 120.854 69.0121 120.075C69.4297 119.296 69.9981 118.703 70.7173 118.295C71.4366 117.884 72.2486 117.679 73.1534 117.679C74.0516 117.679 74.8603 117.884 75.5795 118.295C76.3021 118.703 76.8722 119.296 77.2898 120.075C77.7107 120.854 77.9212 121.799 77.9212 122.909ZM75.7386 122.909C75.7386 122.19 75.6309 121.583 75.4155 121.089C75.2034 120.596 74.9034 120.221 74.5156 119.966C74.1278 119.711 73.6738 119.583 73.1534 119.583C72.633 119.583 72.179 119.711 71.7912 119.966C71.4034 120.221 71.1018 120.596 70.8864 121.089C70.6742 121.583 70.5682 122.19 70.5682 122.909C70.5682 123.628 70.6742 124.235 70.8864 124.729C71.1018 125.223 71.4034 125.597 71.7912 125.852C72.179 126.107 72.633 126.235 73.1534 126.235C73.6738 126.235 74.1278 126.107 74.5156 125.852C74.9034 125.597 75.2034 125.223 75.4155 124.729C75.6309 124.235 75.7386 123.628 75.7386 122.909ZM85.0392 120.746C84.9995 120.345 84.8288 120.034 84.5272 119.812C84.2256 119.59 83.8162 119.479 83.2992 119.479C82.9479 119.479 82.6512 119.528 82.4093 119.628C82.1673 119.724 81.9817 119.858 81.8525 120.031C81.7265 120.203 81.6635 120.398 81.6635 120.617C81.6569 120.799 81.695 120.959 81.7779 121.094C81.8641 121.23 81.9817 121.348 82.1309 121.447C82.28 121.544 82.4524 121.628 82.6479 121.701C82.8435 121.771 83.0523 121.83 83.2743 121.88L84.1891 122.099C84.6332 122.198 85.0409 122.331 85.4121 122.496C85.7833 122.662 86.1048 122.866 86.3766 123.108C86.6484 123.35 86.8588 123.635 87.008 123.963C87.1605 124.291 87.2383 124.667 87.2417 125.092C87.2383 125.715 87.0793 126.255 86.7644 126.712C86.4528 127.166 86.0021 127.519 85.4121 127.771C84.8255 128.02 84.1178 128.144 83.2892 128.144C82.4673 128.144 81.7514 128.018 81.1415 127.766C80.535 127.514 80.061 127.142 79.7196 126.648C79.3816 126.151 79.2042 125.536 79.1877 124.803H81.2708C81.294 125.145 81.3917 125.43 81.5641 125.658C81.7398 125.884 81.9734 126.054 82.2651 126.17C82.5601 126.283 82.8932 126.339 83.2644 126.339C83.629 126.339 83.9455 126.286 84.214 126.18C84.4857 126.074 84.6962 125.927 84.8453 125.738C84.9945 125.549 85.0691 125.332 85.0691 125.087C85.0691 124.858 85.0011 124.666 84.8652 124.51C84.7327 124.354 84.5371 124.222 84.2786 124.112C84.0234 124.003 83.7102 123.903 83.339 123.814L82.2303 123.536C81.3719 123.327 80.6941 123 80.1969 122.556C79.6998 122.112 79.4528 121.514 79.4561 120.761C79.4528 120.145 79.6169 119.606 79.9483 119.146C80.2831 118.685 80.7421 118.325 81.3255 118.067C81.9088 117.808 82.5717 117.679 83.3141 117.679C84.0698 117.679 84.7293 117.808 85.2928 118.067C85.8596 118.325 86.3004 118.685 86.6152 119.146C86.9301 119.606 87.0925 120.14 87.1025 120.746H85.0392ZM96.3248 117.341L93.0435 129.531H91.2189L94.5002 117.341H96.3248ZM106.149 120.746C106.109 120.345 105.938 120.034 105.637 119.812C105.335 119.59 104.926 119.479 104.409 119.479C104.057 119.479 103.761 119.528 103.519 119.628C103.277 119.724 103.091 119.858 102.962 120.031C102.836 120.203 102.773 120.398 102.773 120.617C102.766 120.799 102.804 120.959 102.887 121.094C102.973 121.23 103.091 121.348 103.24 121.447C103.389 121.544 103.562 121.628 103.757 121.701C103.953 121.771 104.162 121.83 104.384 121.88L105.298 122.099C105.743 122.198 106.15 122.331 106.521 122.496C106.893 122.662 107.214 122.866 107.486 123.108C107.758 123.35 107.968 123.635 108.117 123.963C108.27 124.291 108.348 124.667 108.351 125.092C108.348 125.715 108.189 126.255 107.874 126.712C107.562 127.166 107.111 127.519 106.521 127.771C105.935 128.02 105.227 128.144 104.399 128.144C103.577 128.144 102.861 128.018 102.251 127.766C101.644 127.514 101.17 127.142 100.829 126.648C100.491 126.151 100.314 125.536 100.297 124.803H102.38C102.403 125.145 102.501 125.43 102.673 125.658C102.849 125.884 103.083 126.054 103.374 126.17C103.669 126.283 104.003 126.339 104.374 126.339C104.738 126.339 105.055 126.286 105.323 126.18C105.595 126.074 105.806 125.927 105.955 125.738C106.104 125.549 106.178 125.332 106.178 125.087C106.178 124.858 106.11 124.666 105.975 124.51C105.842 124.354 105.646 124.222 105.388 124.112C105.133 124.003 104.82 123.903 104.448 123.814L103.34 123.536C102.481 123.327 101.803 123 101.306 122.556C100.809 122.112 100.562 121.514 100.566 120.761C100.562 120.145 100.726 119.606 101.058 119.146C101.392 118.685 101.852 118.325 102.435 118.067C103.018 117.808 103.681 117.679 104.423 117.679C105.179 117.679 105.839 117.808 106.402 118.067C106.969 118.325 107.41 118.685 107.725 119.146C108.039 119.606 108.202 120.14 108.212 120.746H106.149ZM109.202 117.818H111.614L113.935 122.203H114.035L116.357 117.818H118.768L115.054 124.401V128H112.916V124.401L109.202 117.818ZM119.944 117.818H122.598L125.402 124.659H125.522L128.326 117.818H130.98V128H128.892V121.373H128.808L126.173 127.95H124.751L122.116 121.348H122.032V128H119.944V117.818ZM132.754 128V117.818H136.771C137.543 117.818 138.201 117.966 138.745 118.261C139.288 118.552 139.703 118.958 139.988 119.479C140.276 119.996 140.42 120.592 140.42 121.268C140.42 121.945 140.274 122.541 139.983 123.058C139.691 123.575 139.269 123.978 138.715 124.266C138.165 124.555 137.499 124.699 136.716 124.699H134.156V122.974H136.368C136.783 122.974 137.124 122.902 137.393 122.76C137.664 122.614 137.867 122.414 137.999 122.158C138.135 121.9 138.203 121.603 138.203 121.268C138.203 120.93 138.135 120.635 137.999 120.384C137.867 120.128 137.664 119.931 137.393 119.792C137.121 119.649 136.776 119.578 136.358 119.578H134.907V128H132.754ZM141.819 128V117.818H143.971V122.019H148.341V117.818H150.489V128H148.341V123.794H143.971V128H141.819ZM161.62 122.909C161.62 124.019 161.41 124.964 160.989 125.743C160.571 126.522 160.001 127.117 159.279 127.528C158.56 127.935 157.751 128.139 156.853 128.139C155.948 128.139 155.136 127.934 154.417 127.523C153.697 127.112 153.129 126.517 152.711 125.738C152.294 124.959 152.085 124.016 152.085 122.909C152.085 121.799 152.294 120.854 152.711 120.075C153.129 119.296 153.697 118.703 154.417 118.295C155.136 117.884 155.948 117.679 156.853 117.679C157.751 117.679 158.56 117.884 159.279 118.295C160.001 118.703 160.571 119.296 160.989 120.075C161.41 120.854 161.62 121.799 161.62 122.909ZM159.438 122.909C159.438 122.19 159.33 121.583 159.115 121.089C158.903 120.596 158.603 120.221 158.215 119.966C157.827 119.711 157.373 119.583 156.853 119.583C156.332 119.583 155.878 119.711 155.49 119.966C155.103 120.221 154.801 120.596 154.586 121.089C154.373 121.583 154.267 122.19 154.267 122.909C154.267 123.628 154.373 124.235 154.586 124.729C154.801 125.223 155.103 125.597 155.49 125.852C155.878 126.107 156.332 126.235 156.853 126.235C157.373 126.235 157.827 126.107 158.215 125.852C158.603 125.597 158.903 125.223 159.115 124.729C159.33 124.235 159.438 123.628 159.438 122.909ZM171.731 117.818V128H169.872L165.442 121.592H165.368V128H163.215V117.818H165.104L169.499 124.222H169.589V117.818H171.731ZM172.913 117.818H175.325L177.646 122.203H177.746L180.067 117.818H182.479L178.765 124.401V128H176.627V124.401L172.913 117.818Z" fill="#413D3D"/>
</svg>
