<svg width="72" height="55" viewBox="0 0 72 55" fill="none" xmlns="http://www.w3.org/2000/svg">
<g clip-path="url(#clip0_202_421)">
<path d="M45.5314 49.2841H25.8012L22.6709 46.2628H3.79443V4.57908C3.79443 2.0299 5.88128 0 8.39499 0H63.5068C66.068 0 68.1074 2.07711 68.1074 4.57908V46.31H48.8989L45.484 49.3313L45.5314 49.2841ZM26.6549 47.2542H44.7252L48.14 44.2329H66.0205V4.57908C66.0205 3.21007 64.8822 2.07711 63.5068 2.07711H8.39499C7.01957 2.07711 5.88128 3.21007 5.88128 4.57908V44.2329H23.5247L26.6549 47.2542Z" fill="#FFBB00"/>
<path d="M66.9211 14.4453H56.1074V16.5224H66.9211V14.4453Z" fill="#FFBB00"/>
<path d="M53.6887 19.1189C51.6019 19.1189 49.9419 17.4666 49.9419 15.3895C49.9419 13.3124 51.6019 11.6602 53.6887 11.6602C55.7756 11.6602 57.4356 13.3124 57.4356 15.3895C57.4356 17.4666 55.7756 19.1189 53.6887 19.1189ZM53.6887 13.7373C52.7876 13.7373 52.0287 14.4926 52.0287 15.3895C52.0287 16.2864 52.7876 17.0418 53.6887 17.0418C54.5899 17.0418 55.3487 16.2864 55.3487 15.3895C55.3487 14.4926 54.5899 13.7373 53.6887 13.7373Z" fill="#FFBB00"/>
<path d="M66.9211 32.4312H56.1074V34.5083H66.9211V32.4312Z" fill="#FFBB00"/>
<path d="M53.6887 37.1521C51.6019 37.1521 49.9419 35.4998 49.9419 33.4227C49.9419 31.3456 51.6019 29.6934 53.6887 29.6934C55.7756 29.6934 57.4356 31.3456 57.4356 33.4227C57.4356 35.4998 55.7756 37.1521 53.6887 37.1521ZM53.6887 31.7233C52.7876 31.7233 52.0287 32.4786 52.0287 33.3755C52.0287 34.2724 52.7876 35.0277 53.6887 35.0277C54.5899 35.0277 55.3487 34.2724 55.3487 33.3755C55.3487 32.4786 54.5899 31.7233 53.6887 31.7233Z" fill="#FFBB00"/>
<path d="M67.0638 23.4614H51.1753V25.5385H67.0638V23.4614Z" fill="#FFBB00"/>
<path d="M48.7566 28.1823C46.6698 28.1823 45.0098 26.5301 45.0098 24.453C45.0098 22.3759 46.6698 20.7236 48.7566 20.7236C50.8435 20.7236 52.5035 22.3759 52.5035 24.453C52.5035 26.5301 50.8435 28.1823 48.7566 28.1823ZM48.7566 22.8007C47.8555 22.8007 47.0966 23.5561 47.0966 24.453C47.0966 25.3499 47.8555 26.1052 48.7566 26.1052C49.6578 26.1052 50.4166 25.3499 50.4166 24.453C50.4166 23.5561 49.6578 22.8007 48.7566 22.8007Z" fill="#FFBB00"/>
<path d="M66.1627 54.1462H5.5017C2.46628 54.1462 0 51.6915 0 48.6702V44.1855H4.8377V46.2627H2.08685V48.6702C2.08685 50.5585 3.60456 52.0691 5.5017 52.0691H66.1627C68.0598 52.0691 69.5775 50.5585 69.5775 48.6702V46.3099H62.2261V44.2328H71.6644V48.6702C71.6644 51.6915 69.1981 54.1462 66.1627 54.1462Z" fill="#FFBB00"/>
</g>
<defs>
<clipPath id="clip0_202_421">
<rect width="71.6644" height="54.1464" fill="white"/>
</clipPath>
</defs>
</svg>
