<svg width="55" height="54" viewBox="0 0 55 54" fill="none" xmlns="http://www.w3.org/2000/svg">
<g clip-path="url(#clip0_202_449)">
<path d="M9.93262 5.48877C7.66697 5.48877 5.82373 7.34417 5.82373 9.62477C5.82373 11.9054 7.66697 13.7608 9.93262 13.7608C12.1983 13.7608 14.0415 11.9054 14.0415 9.62477C14.0415 7.34417 12.1983 5.48877 9.93262 5.48877ZM9.93262 11.9054C8.6654 11.9054 7.66697 10.8617 7.66697 9.62477C7.66697 8.38784 8.7038 7.34417 9.93262 7.34417C11.1615 7.34417 12.1983 8.38784 12.1983 9.62477C12.1983 10.8617 11.1615 11.9054 9.93262 11.9054Z" fill="#004A8C"/>
<path d="M45.8371 9.16107C46.3461 9.16107 46.7588 8.74572 46.7588 8.23337C46.7588 7.72101 46.3461 7.30566 45.8371 7.30566C45.3281 7.30566 44.9155 7.72101 44.9155 8.23337C44.9155 8.74572 45.3281 9.16107 45.8371 9.16107Z" fill="#004A8C"/>
<path d="M42.1892 9.16107C42.6982 9.16107 43.1108 8.74572 43.1108 8.23337C43.1108 7.72101 42.6982 7.30566 42.1892 7.30566C41.6802 7.30566 41.2676 7.72101 41.2676 8.23337C41.2676 8.74572 41.6802 9.16107 42.1892 9.16107Z" fill="#004A8C"/>
<path d="M47.6423 11.9057C48.1513 11.9057 48.5639 11.4904 48.5639 10.978C48.5639 10.4656 48.1513 10.0503 47.6423 10.0503C47.1333 10.0503 46.7207 10.4656 46.7207 10.978C46.7207 11.4904 47.1333 11.9057 47.6423 11.9057Z" fill="#004A8C"/>
<path d="M43.9939 11.9057C44.5029 11.9057 44.9155 11.4904 44.9155 10.978C44.9155 10.4656 44.5029 10.0503 43.9939 10.0503C43.4849 10.0503 43.0723 10.4656 43.0723 10.978C43.0723 11.4904 43.4849 11.9057 43.9939 11.9057Z" fill="#004A8C"/>
<path d="M38.5412 9.16107C39.0502 9.16107 39.4629 8.74572 39.4629 8.23337C39.4629 7.72101 39.0502 7.30566 38.5412 7.30566C38.0323 7.30566 37.6196 7.72101 37.6196 8.23337C37.6196 8.74572 38.0323 9.16107 38.5412 9.16107Z" fill="#004A8C"/>
<path d="M40.3845 11.9057C40.8935 11.9057 41.3061 11.4904 41.3061 10.978C41.3061 10.4656 40.8935 10.0503 40.3845 10.0503C39.8755 10.0503 39.4629 10.4656 39.4629 10.978C39.4629 11.4904 39.8755 11.9057 40.3845 11.9057Z" fill="#004A8C"/>
<path d="M34.9314 9.16107C35.4404 9.16107 35.853 8.74572 35.853 8.23337C35.853 7.72101 35.4404 7.30566 34.9314 7.30566C34.4224 7.30566 34.0098 7.72101 34.0098 8.23337C34.0098 8.74572 34.4224 9.16107 34.9314 9.16107Z" fill="#004A8C"/>
<path d="M36.7361 11.9057C37.2451 11.9057 37.6577 11.4904 37.6577 10.978C37.6577 10.4656 37.2451 10.0503 36.7361 10.0503C36.2271 10.0503 35.8145 10.4656 35.8145 10.978C35.8145 11.4904 36.2271 11.9057 36.7361 11.9057Z" fill="#004A8C"/>
<path d="M31.2834 9.16107C31.7924 9.16107 32.2051 8.74572 32.2051 8.23337C32.2051 7.72101 31.7924 7.30566 31.2834 7.30566C30.7744 7.30566 30.3618 7.72101 30.3618 8.23337C30.3618 8.74572 30.7744 9.16107 31.2834 9.16107Z" fill="#004A8C"/>
<path d="M33.0881 11.9057C33.5971 11.9057 34.0097 11.4904 34.0097 10.978C34.0097 10.4656 33.5971 10.0503 33.0881 10.0503C32.5791 10.0503 32.1665 10.4656 32.1665 10.978C32.1665 11.4904 32.5791 11.9057 33.0881 11.9057Z" fill="#004A8C"/>
<path d="M54.9382 14.9979V4.21331C54.9382 1.89406 53.0566 0 50.7526 0H4.5563C2.25225 0 0.370605 1.89406 0.370605 4.21331V14.9979C0.370605 16.3508 1.02342 17.5104 1.98344 18.2835C1.02342 19.0566 0.370605 20.2548 0.370605 21.5691V32.3536C0.370605 33.7065 1.02342 34.8661 1.98344 35.6392C1.02342 36.4123 0.370605 37.6106 0.370605 38.9248V49.7094C0.370605 52.0286 2.25225 53.9227 4.5563 53.9227H50.7141C53.0182 53.9227 54.8998 52.0286 54.8998 49.7094V38.9248C54.8998 37.5719 54.247 36.4123 53.287 35.6392C54.247 34.8661 54.8998 33.6679 54.8998 32.3536V21.5691C54.8998 20.2162 54.247 19.0566 53.287 18.2835C54.247 17.5104 54.8998 16.3121 54.8998 14.9979H54.9382ZM53.095 39.0021V49.7867C53.095 51.1009 52.0198 52.1833 50.7141 52.1833H4.5563C3.25067 52.1833 2.17545 51.1009 2.17545 49.7867V39.0021C2.17545 37.6879 3.25067 36.6056 4.5563 36.6056H50.7141C52.0198 36.6056 53.095 37.6879 53.095 39.0021ZM53.095 21.6077V32.3923C53.095 33.7065 52.0198 34.7888 50.7141 34.7888H4.5563C3.25067 34.7888 2.17545 33.7065 2.17545 32.3923V21.6077C2.17545 20.2935 3.25067 19.2112 4.5563 19.2112H50.7141C52.0198 19.2112 53.095 20.2935 53.095 21.6077ZM4.5563 17.3944C3.25067 17.3944 2.17545 16.3121 2.17545 14.9979V4.21331C2.17545 2.89907 3.25067 1.81675 4.5563 1.81675H50.7141C52.0198 1.81675 53.095 2.89907 53.095 4.21331V14.9979C53.095 16.3121 52.0198 17.3944 50.7141 17.3944H4.5563Z" fill="#004A8C"/>
<path d="M9.93262 31.1167C12.1983 31.1167 14.0415 29.2613 14.0415 26.9807C14.0415 24.7001 12.1983 22.8447 9.93262 22.8447C7.66697 22.8447 5.82373 24.7001 5.82373 26.9807C5.82373 29.2613 7.66697 31.1167 9.93262 31.1167ZM9.93262 24.7001C11.1999 24.7001 12.1983 25.7438 12.1983 26.9807C12.1983 28.2177 11.1615 29.2613 9.93262 29.2613C8.7038 29.2613 7.66697 28.2177 7.66697 26.9807C7.66697 25.7438 8.7038 24.7001 9.93262 24.7001Z" fill="#004A8C"/>
<path d="M45.8371 26.5556C46.3461 26.5556 46.7588 26.1403 46.7588 25.6279C46.7588 25.1155 46.3461 24.7002 45.8371 24.7002C45.3281 24.7002 44.9155 25.1155 44.9155 25.6279C44.9155 26.1403 45.3281 26.5556 45.8371 26.5556Z" fill="#004A8C"/>
<path d="M42.1892 26.5556C42.6982 26.5556 43.1108 26.1403 43.1108 25.6279C43.1108 25.1155 42.6982 24.7002 42.1892 24.7002C41.6802 24.7002 41.2676 25.1155 41.2676 25.6279C41.2676 26.1403 41.6802 26.5556 42.1892 26.5556Z" fill="#004A8C"/>
<path d="M47.6423 29.2997C48.1513 29.2997 48.5639 28.8844 48.5639 28.372C48.5639 27.8597 48.1513 27.4443 47.6423 27.4443C47.1333 27.4443 46.7207 27.8597 46.7207 28.372C46.7207 28.8844 47.1333 29.2997 47.6423 29.2997Z" fill="#004A8C"/>
<path d="M43.9939 29.2997C44.5029 29.2997 44.9155 28.8844 44.9155 28.372C44.9155 27.8597 44.5029 27.4443 43.9939 27.4443C43.4849 27.4443 43.0723 27.8597 43.0723 28.372C43.0723 28.8844 43.4849 29.2997 43.9939 29.2997Z" fill="#004A8C"/>
<path d="M38.5412 26.5556C39.0502 26.5556 39.4629 26.1403 39.4629 25.6279C39.4629 25.1155 39.0502 24.7002 38.5412 24.7002C38.0323 24.7002 37.6196 25.1155 37.6196 25.6279C37.6196 26.1403 38.0323 26.5556 38.5412 26.5556Z" fill="#004A8C"/>
<path d="M40.3845 29.2997C40.8935 29.2997 41.3061 28.8844 41.3061 28.372C41.3061 27.8597 40.8935 27.4443 40.3845 27.4443C39.8755 27.4443 39.4629 27.8597 39.4629 28.372C39.4629 28.8844 39.8755 29.2997 40.3845 29.2997Z" fill="#004A8C"/>
<path d="M34.9314 26.5556C35.4404 26.5556 35.853 26.1403 35.853 25.6279C35.853 25.1155 35.4404 24.7002 34.9314 24.7002C34.4224 24.7002 34.0098 25.1155 34.0098 25.6279C34.0098 26.1403 34.4224 26.5556 34.9314 26.5556Z" fill="#004A8C"/>
<path d="M36.7361 29.2997C37.2451 29.2997 37.6577 28.8844 37.6577 28.372C37.6577 27.8597 37.2451 27.4443 36.7361 27.4443C36.2271 27.4443 35.8145 27.8597 35.8145 28.372C35.8145 28.8844 36.2271 29.2997 36.7361 29.2997Z" fill="#004A8C"/>
<path d="M31.2834 26.5556C31.7924 26.5556 32.2051 26.1403 32.2051 25.6279C32.2051 25.1155 31.7924 24.7002 31.2834 24.7002C30.7744 24.7002 30.3618 25.1155 30.3618 25.6279C30.3618 26.1403 30.7744 26.5556 31.2834 26.5556Z" fill="#004A8C"/>
<path d="M33.0881 29.2997C33.5971 29.2997 34.0097 28.8844 34.0097 28.372C34.0097 27.8597 33.5971 27.4443 33.0881 27.4443C32.5791 27.4443 32.1665 27.8597 32.1665 28.372C32.1665 28.8844 32.5791 29.2997 33.0881 29.2997Z" fill="#004A8C"/>
<path d="M9.93262 48.5113C12.1983 48.5113 14.0415 46.6559 14.0415 44.3753C14.0415 42.0947 12.1983 40.2393 9.93262 40.2393C7.66697 40.2393 5.82373 42.0947 5.82373 44.3753C5.82373 46.6559 7.66697 48.5113 9.93262 48.5113ZM9.93262 42.0947C11.1999 42.0947 12.1983 43.1383 12.1983 44.3753C12.1983 45.6122 11.1615 46.6559 9.93262 46.6559C8.7038 46.6559 7.66697 45.6122 7.66697 44.3753C7.66697 43.1383 8.7038 42.0947 9.93262 42.0947Z" fill="#004A8C"/>
<path d="M45.8371 43.9501C46.3461 43.9501 46.7588 43.5348 46.7588 43.0224C46.7588 42.5101 46.3461 42.0947 45.8371 42.0947C45.3281 42.0947 44.9155 42.5101 44.9155 43.0224C44.9155 43.5348 45.3281 43.9501 45.8371 43.9501Z" fill="#004A8C"/>
<path d="M42.1892 43.9501C42.6982 43.9501 43.1108 43.5348 43.1108 43.0224C43.1108 42.5101 42.6982 42.0947 42.1892 42.0947C41.6802 42.0947 41.2676 42.5101 41.2676 43.0224C41.2676 43.5348 41.6802 43.9501 42.1892 43.9501Z" fill="#004A8C"/>
<path d="M47.6423 46.6943C48.1513 46.6943 48.5639 46.2789 48.5639 45.7666C48.5639 45.2542 48.1513 44.8389 47.6423 44.8389C47.1333 44.8389 46.7207 45.2542 46.7207 45.7666C46.7207 46.2789 47.1333 46.6943 47.6423 46.6943Z" fill="#004A8C"/>
<path d="M43.9939 46.6943C44.5029 46.6943 44.9155 46.2789 44.9155 45.7666C44.9155 45.2542 44.5029 44.8389 43.9939 44.8389C43.4849 44.8389 43.0723 45.2542 43.0723 45.7666C43.0723 46.2789 43.4849 46.6943 43.9939 46.6943Z" fill="#004A8C"/>
<path d="M38.5412 43.9501C39.0502 43.9501 39.4629 43.5348 39.4629 43.0224C39.4629 42.5101 39.0502 42.0947 38.5412 42.0947C38.0323 42.0947 37.6196 42.5101 37.6196 43.0224C37.6196 43.5348 38.0323 43.9501 38.5412 43.9501Z" fill="#004A8C"/>
<path d="M40.3845 46.6943C40.8935 46.6943 41.3061 46.2789 41.3061 45.7666C41.3061 45.2542 40.8935 44.8389 40.3845 44.8389C39.8755 44.8389 39.4629 45.2542 39.4629 45.7666C39.4629 46.2789 39.8755 46.6943 40.3845 46.6943Z" fill="#004A8C"/>
<path d="M34.9314 43.9501C35.4404 43.9501 35.853 43.5348 35.853 43.0224C35.853 42.5101 35.4404 42.0947 34.9314 42.0947C34.4224 42.0947 34.0098 42.5101 34.0098 43.0224C34.0098 43.5348 34.4224 43.9501 34.9314 43.9501Z" fill="#004A8C"/>
<path d="M36.7361 46.6943C37.2451 46.6943 37.6577 46.2789 37.6577 45.7666C37.6577 45.2542 37.2451 44.8389 36.7361 44.8389C36.2271 44.8389 35.8145 45.2542 35.8145 45.7666C35.8145 46.2789 36.2271 46.6943 36.7361 46.6943Z" fill="#004A8C"/>
<path d="M31.2834 43.9501C31.7924 43.9501 32.2051 43.5348 32.2051 43.0224C32.2051 42.5101 31.7924 42.0947 31.2834 42.0947C30.7744 42.0947 30.3618 42.5101 30.3618 43.0224C30.3618 43.5348 30.7744 43.9501 31.2834 43.9501Z" fill="#004A8C"/>
<path d="M33.0881 46.6943C33.5971 46.6943 34.0097 46.2789 34.0097 45.7666C34.0097 45.2542 33.5971 44.8389 33.0881 44.8389C32.5791 44.8389 32.1665 45.2542 32.1665 45.7666C32.1665 46.2789 32.5791 46.6943 33.0881 46.6943Z" fill="#004A8C"/>
</g>
<defs>
<clipPath id="clip0_202_449">
<rect width="54.5676" height="54" fill="white" transform="translate(0.370605)"/>
</clipPath>
</defs>
</svg>
