<svg width="58" height="52" viewBox="0 0 58 52" fill="none" xmlns="http://www.w3.org/2000/svg">
<path d="M52.431 0H5.59208C2.75908 0 0.492676 2.22539 0.492676 5.00713V46.9929C0.492676 49.7375 2.75908 52 5.59208 52H52.431C55.2263 52 57.5304 49.7746 57.5304 46.9929V5.00713C57.5304 2.26248 55.264 0 52.431 0ZM55.4529 46.9929C55.4529 48.6619 54.0931 49.9971 52.3933 49.9971H5.59208C3.89228 49.9971 2.53244 48.6619 2.53244 46.9929V11.6462H55.4907V46.9929H55.4529ZM2.53244 9.64337V5.00713C2.53244 3.33809 3.89228 2.00285 5.59208 2.00285H52.431C54.1308 2.00285 55.4907 3.33809 55.4907 5.00713V9.64337H2.53244ZM49.3714 6.82454C48.8048 6.82454 48.3515 6.34237 48.3893 5.82311C48.3893 5.30385 48.8426 4.85877 49.3714 4.85877C49.938 4.85877 50.3913 5.34094 50.3535 5.8602C50.3535 6.37946 49.9002 6.82454 49.3714 6.82454ZM45.2919 6.82454C44.7253 6.82454 44.272 6.34237 44.3098 5.82311C44.3098 5.30385 44.7631 4.85877 45.2919 4.85877C45.8585 4.85877 46.3118 5.34094 46.274 5.8602C46.274 6.37946 45.8207 6.82454 45.2919 6.82454ZM41.2124 6.82454C40.6458 6.82454 40.1925 6.34237 40.2303 5.82311C40.2303 5.30385 40.6835 4.85877 41.2124 4.85877C41.779 4.85877 42.2322 5.34094 42.1945 5.8602C42.1945 6.37946 41.7412 6.82454 41.2124 6.82454ZM16.773 6.82454H8.61395C8.04735 6.82454 7.59407 6.34237 7.63184 5.82311C7.63184 5.30385 8.08512 4.85877 8.61395 4.85877H16.773C17.3396 4.85877 17.7929 5.34094 17.7551 5.8602C17.7551 6.37946 17.3018 6.82454 16.773 6.82454ZM23.8744 35.5321L32.5623 24.8873C32.94 24.4793 33.5821 24.4051 33.9976 24.776C34.4132 25.1098 34.4887 25.7404 34.1487 26.1484L25.4609 36.7932C25.1209 37.2382 24.4788 37.3124 24.0255 36.9415C23.5722 36.6077 23.4967 35.9772 23.8744 35.5321ZM38.1149 35.3837L43.7054 30.8217L38.1149 26.2596C37.6994 25.8887 37.6239 25.2582 38.0016 24.8502C38.3416 24.4422 38.9837 24.4051 39.3992 24.7389L45.8963 30.0799C46.3118 30.4508 46.3873 31.0813 46.0096 31.4893C46.0096 31.5264 45.934 31.5635 45.8963 31.6006L39.3615 36.9415C38.9082 37.2753 38.3038 37.2382 37.9261 36.7932C37.5861 36.3852 37.6239 35.7546 38.0394 35.3837H38.1149ZM12.0513 31.5635C11.6358 31.1926 11.5603 30.5621 11.938 30.1541C11.9758 30.117 12.0135 30.0799 12.0513 30.0428L18.5861 24.7019C19.0394 24.368 19.6438 24.4051 20.0215 24.8502C20.3615 25.2582 20.3237 25.8887 19.9082 26.2596L14.3177 30.8217L19.9082 35.3837C20.3237 35.7546 20.3992 36.3852 20.0215 36.7932C19.6815 37.2011 19.0394 37.2382 18.6239 36.9044L12.1269 31.5635H12.0513Z" fill="#3FA8E9"/>
</svg>
