<svg width="57" height="36" viewBox="0 0 57 36" fill="none" xmlns="http://www.w3.org/2000/svg">
<g clip-path="url(#clip0_202_501)">
<path d="M56.0408 3.16722C55.6832 2.96288 55.2234 2.96288 54.8658 3.16722L41.8901 10.2681V6.028C41.8901 2.70745 39.1826 0.0510042 35.9131 0.0510042H5.977C2.70753 -8.12225e-05 0 2.70745 0 5.97692V29.6806C0 33.0011 2.70753 35.6576 5.977 35.6576H35.862C39.1826 35.6576 41.839 32.95 41.839 29.6806V25.4916L54.8147 32.5924C55.1723 32.7968 55.6321 32.7968 55.9897 32.5924C56.3473 32.3881 56.6027 31.9794 56.6027 31.5707V4.18893C56.6027 3.78024 56.3984 3.37156 55.9897 3.16722H56.0408ZM39.438 29.6806C39.438 31.6729 37.8032 33.2566 35.862 33.2566H5.977C3.98467 33.2566 2.40102 31.6218 2.40102 29.6806V5.97692C2.40102 3.98459 4.03575 2.40094 5.977 2.40094H35.862C37.8543 2.40094 39.438 4.03567 39.438 5.97692V29.6806ZM54.2528 29.5273L41.8901 22.784V12.9756L54.2528 6.23235V29.5273Z" fill="#9961DA"/>
</g>
<defs>
<clipPath id="clip0_202_501">
<rect width="56.6538" height="35.7087" fill="white"/>
</clipPath>
</defs>
</svg>
