<svg width="57" height="56" viewBox="0 0 57 56" fill="none" xmlns="http://www.w3.org/2000/svg">
<g clip-path="url(#clip0_202_437)">
<path d="M48.9755 9.10441C48.6615 8.75123 48.3083 8.39804 47.9551 8.04485C42.775 2.90399 35.7505 0 28.412 0C27.8234 0 27.1955 0 26.6069 0.0784863C19.9355 0.510161 13.6174 3.37491 8.90819 8.08409C8.555 8.43728 8.24105 8.79047 7.88786 9.14366C3.25717 14.206 0.745605 20.7989 0.745605 27.7057C0.745605 27.8626 0.745605 28.0196 0.745605 28.1766C0.745605 28.1766 0.745605 28.1766 0.745605 28.2158C0.745605 28.2943 0.745605 28.3336 0.784849 28.3728C0.784849 28.4121 0.784849 28.4905 0.824092 28.5298C0.824092 28.6083 0.902578 28.6475 0.941821 28.6868C0.941821 28.726 0.981064 28.7652 1.02031 28.8045C1.05955 28.8437 1.13804 28.883 1.21652 28.9222C1.21652 28.9222 1.29501 28.9615 1.33425 29.0007C1.45198 29.0399 1.56971 29.0792 1.68744 29.0792H55.1759C55.2936 29.0792 55.4113 29.0792 55.5291 29.0007C55.5683 29.0007 55.6076 28.9615 55.6468 28.9222C55.7253 28.9222 55.7645 28.8437 55.843 28.8045C55.843 28.8045 55.9215 28.726 55.9215 28.6868C55.9608 28.6475 56 28.569 56.0392 28.5298C56.0392 28.4905 56.0392 28.4121 56.0785 28.3728C56.0785 28.3336 56.1177 28.2551 56.1177 28.2158C56.1177 28.2158 56.1177 28.2158 56.1177 28.1766C56.1177 28.0196 56.1177 27.8626 56.1177 27.7057C56.1177 20.7989 53.5669 14.206 48.9755 9.10441ZM10.0462 9.57533C10.0462 9.57533 10.3602 9.30063 10.4779 9.14366C10.6741 8.98669 10.8311 8.79047 11.0273 8.6335C11.145 8.51577 11.302 8.39804 11.4197 8.28031C11.616 8.08409 11.8122 7.92712 12.0476 7.77015C12.1654 7.65242 12.3223 7.57393 12.4401 7.4562C12.6755 7.25999 12.8717 7.10301 13.1072 6.94604C13.2249 6.86755 13.3427 6.74983 13.4604 6.67134C13.6959 6.51437 13.9313 6.31815 14.206 6.16118C14.3237 6.08269 14.4415 6.0042 14.5592 5.92572C14.7947 5.76875 15.0694 5.61177 15.3441 5.4548C15.4618 5.37631 15.5795 5.29783 15.6973 5.25858C15.972 5.10161 16.2467 4.98388 16.4821 4.82691C16.5998 4.74842 16.7176 4.70918 16.8353 4.63069C17.11 4.51296 17.3847 4.35599 17.6594 4.23826C17.7771 4.19902 17.8949 4.12053 18.0518 4.08129C18.3265 3.96356 18.6012 3.84583 18.8759 3.7281C18.9937 3.68886 19.1507 3.61037 19.2684 3.57113C19.5431 3.4534 19.8178 3.37491 20.0925 3.25718C20.2495 3.21794 20.3672 3.1787 20.5242 3.10021C20.7989 3.02172 21.0736 2.94324 21.3483 2.86475C21.5052 2.82551 21.623 2.78626 21.7799 2.74702C21.9762 2.70778 22.1724 2.66854 22.3686 2.59005C19.7001 5.02313 17.4632 9.14366 16.0112 14.4415C13.7351 13.2249 11.6552 11.6552 9.81078 9.77155C9.85002 9.69306 9.92851 9.65382 9.96775 9.57533H10.0462ZM28.412 1.88367C32.768 1.88367 36.8886 7.14226 39.0469 15.3048C35.7113 16.8353 32.1401 17.6202 28.412 17.6202C24.6839 17.6202 21.1128 16.8353 17.7771 15.3048C19.9355 7.14226 24.056 1.88367 28.412 1.88367ZM40.7736 14.4415C39.3216 9.14366 37.0848 5.06237 34.4162 2.59005C34.6125 2.62929 34.8087 2.66854 35.0049 2.74702C35.1226 2.74702 35.2796 2.82551 35.3973 2.86475C35.7113 2.94324 35.986 3.02172 36.2999 3.13945C36.4176 3.1787 36.5354 3.21794 36.6531 3.25718C36.9671 3.37491 37.2418 3.4534 37.5165 3.57113C37.6342 3.61037 37.7519 3.64961 37.8696 3.7281C38.1443 3.84583 38.4583 3.96356 38.733 4.08129C38.8507 4.12053 38.9685 4.19902 39.0862 4.23826C39.3609 4.35599 39.6356 4.51296 39.9495 4.63069C40.0673 4.66994 40.185 4.74842 40.3027 4.82691C40.5774 4.98388 40.8521 5.10161 41.1268 5.25858C41.2446 5.33707 41.3623 5.37631 41.48 5.4548C41.7547 5.61177 41.9902 5.76875 42.2649 5.92572C42.3826 6.0042 42.5003 6.08269 42.6181 6.16118C42.8535 6.31815 43.1282 6.47512 43.3637 6.67134C43.4814 6.74983 43.5992 6.82831 43.7169 6.94604C43.9523 7.10301 44.1878 7.29923 44.384 7.4562C44.5017 7.57393 44.6587 7.65242 44.7764 7.77015C44.9727 7.92712 45.2081 8.12334 45.4043 8.28031C45.5613 8.39804 45.679 8.51577 45.7968 8.6335C45.993 8.79047 46.15 8.98669 46.3462 9.14366C46.5031 9.30063 46.6601 9.41836 46.7778 9.57533C46.8171 9.65382 46.8956 9.69306 46.9348 9.77155C45.0904 11.6552 43.0105 13.2249 40.7344 14.4415H40.7736ZM8.63348 11.1451C10.7134 13.2642 13.0287 14.9909 15.6188 16.3252C14.8339 19.7786 14.4415 23.4282 14.4022 27.2348H2.62928C2.74701 21.309 4.86614 15.658 8.63348 11.1451ZM16.2859 27.2348C16.2859 23.7421 16.7176 20.328 17.3847 17.1493C20.8381 18.6797 24.5662 19.4646 28.4513 19.4646C32.3364 19.4646 36.0645 18.6797 39.5179 17.1493C40.185 20.2887 40.5774 23.7421 40.6167 27.2348H16.2859ZM42.4611 27.2348C42.4611 23.4282 42.0294 19.7786 41.2446 16.3252C43.8346 14.9909 46.1892 13.2642 48.2298 11.1451C51.9972 15.658 54.1556 21.309 54.234 27.2348H42.4611Z" fill="#ED2328"/>
<path d="M53.5668 38.0661C52.0755 38.0661 50.8197 39.0864 50.4273 40.4992H49.6032V34.2988C49.6032 33.7886 49.1715 33.3569 48.6614 33.3569H39.4785C38.9683 33.3569 38.5366 33.7886 38.5366 34.2988C38.5366 34.8089 38.9683 35.2406 39.4785 35.2406H47.7195V41.441C47.7195 41.9512 48.1512 42.3829 48.6614 42.3829H50.4273C50.8197 43.7956 52.0755 44.8159 53.5668 44.8159C55.3719 44.8159 56.8632 43.2855 56.8632 41.441C56.8632 39.5966 55.3719 38.0661 53.5668 38.0661ZM53.5668 42.9715C52.7819 42.9715 52.154 42.3044 52.154 41.4803C52.154 40.6562 52.7819 39.989 53.5668 39.989C54.3516 39.989 54.9795 40.6562 54.9795 41.4803C54.9795 42.3044 54.3516 42.9715 53.5668 42.9715Z" fill="#ED2328"/>
<path d="M34.6122 32.2578C34.1021 32.2578 33.6704 32.6895 33.6704 33.1996V41.6369C33.6704 42.1471 34.1021 42.5788 34.6122 42.5788H40.8912V44.8549C39.5569 45.2865 38.5366 46.5423 38.5366 48.0728C38.5366 49.9565 40.0278 51.4477 41.833 51.4477C43.6382 51.4477 45.1294 49.9172 45.1294 48.0728C45.1294 46.5423 44.1483 45.2473 42.7748 44.8549V41.6369C42.7748 41.1268 42.3432 40.6951 41.833 40.6951H35.5541V33.1996C35.5541 32.6895 35.1224 32.2578 34.6122 32.2578ZM43.2457 48.1121C43.2457 48.9362 42.6179 49.6033 41.833 49.6033C41.0481 49.6033 40.4202 48.9362 40.4202 48.1121C40.4202 47.2879 41.0481 46.6208 41.833 46.6208C42.6179 46.6208 43.2457 47.2879 43.2457 48.1121Z" fill="#ED2328"/>
<path d="M29.354 33.1996C29.354 32.6895 28.9223 32.2578 28.4121 32.2578C27.902 32.2578 27.4703 32.6895 27.4703 33.1996V49.3678C26.136 49.7995 25.1157 51.0553 25.1157 52.5858C25.1157 54.4694 26.607 55.9607 28.4121 55.9607C30.2173 55.9607 31.7086 54.4302 31.7086 52.5858C31.7086 51.0553 30.7275 49.7603 29.354 49.3678V33.1996ZM29.8249 52.5858C29.8249 53.4099 29.197 54.077 28.4121 54.077C27.6273 54.077 26.9994 53.4099 26.9994 52.5858C26.9994 51.7617 27.6273 51.0945 28.4121 51.0945C29.197 51.0945 29.8249 51.7617 29.8249 52.5858Z" fill="#ED2328"/>
<path d="M3.29643 44.855C4.78767 44.855 6.04345 43.8347 6.43588 42.4219H8.20182C8.71198 42.4219 9.14366 41.9902 9.14366 41.4801V35.2797H17.3847C17.8949 35.2797 18.3266 34.848 18.3266 34.3378C18.3266 33.8277 17.8949 33.396 17.3847 33.396H8.20182C7.69166 33.396 7.25998 33.8277 7.25998 34.3378V40.5383H6.43588C6.04345 39.1255 4.78767 38.1052 3.29643 38.1052C1.49124 38.1052 0 39.6357 0 41.4801C0 43.3245 1.49124 44.855 3.29643 44.855ZM3.29643 39.9496C4.08129 39.9496 4.70918 40.6167 4.70918 41.4408C4.70918 42.265 4.08129 42.9321 3.29643 42.9321C2.51156 42.9321 1.88367 42.265 1.88367 41.4408C1.88367 40.6167 2.51156 39.9496 3.29643 39.9496Z" fill="#ED2328"/>
<path d="M22.2511 42.6183C22.7612 42.6183 23.1929 42.1866 23.1929 41.6765V33.2392C23.1929 32.729 22.7612 32.2974 22.2511 32.2974C21.7409 32.2974 21.3092 32.729 21.3092 33.2392V40.7346H15.0303C14.5202 40.7346 14.0885 41.1663 14.0885 41.6765V44.8944C12.7542 45.3261 11.7339 46.5819 11.7339 48.1124C11.7339 49.996 13.2251 51.4873 15.0303 51.4873C16.8355 51.4873 18.3267 49.9568 18.3267 48.1124C18.3267 46.5819 17.3457 45.2869 15.9721 44.8944V42.6183H22.2511ZM16.4431 48.1124C16.4431 48.9365 15.8152 49.6036 15.0303 49.6036C14.2454 49.6036 13.6176 48.9365 13.6176 48.1124C13.6176 47.2883 14.2454 46.6211 15.0303 46.6211C15.8152 46.6211 16.4431 47.2883 16.4431 48.1124Z" fill="#ED2328"/>
</g>
<defs>
<clipPath id="clip0_202_437">
<rect width="56.8633" height="56" fill="white"/>
</clipPath>
</defs>
</svg>
