<svg width="61" height="55" viewBox="0 0 61 55" fill="none" xmlns="http://www.w3.org/2000/svg">
<path d="M51.947 9.88381C51.6089 9.50039 51.2285 9.11696 50.8481 8.73354C45.2687 3.15259 37.7028 0 29.7987 0C29.1647 0 28.4884 0 27.8544 0.0852053C20.6689 0.553834 13.8638 3.66383 8.79169 8.77614C8.41128 9.15957 8.07314 9.54299 7.69273 9.92641C2.7474 15.4222 0 22.5794 0 30.0775C0 30.2479 0 30.4183 0 30.5887C0 30.5887 0 30.5887 0 30.6313C0 30.7165 0 30.7591 0.0422677 30.8017C0.0422677 30.8443 0.0422677 30.9295 0.0845355 30.9721C0.0845355 31.0573 0.169071 31.0999 0.211339 31.1425C0.211339 31.1851 0.253606 31.2277 0.295874 31.2703C0.338142 31.3129 0.422677 31.3555 0.507213 31.3981C0.507213 31.3981 0.591748 31.4407 0.634016 31.4833C0.760819 31.5259 0.887622 31.5686 1.01443 31.5686H58.6253C58.7521 31.5686 58.8789 31.5686 59.0057 31.4833C59.048 31.4833 59.0903 31.4407 59.1326 31.3981C59.2171 31.3981 59.2594 31.3129 59.3439 31.2703C59.3439 31.2703 59.4284 31.1851 59.4284 31.1425C59.4707 31.0999 59.513 31.0147 59.5552 30.9721C59.5552 30.9295 59.5552 30.8443 59.5975 30.8017C59.5975 30.7591 59.6398 30.6739 59.6398 30.6313C59.6398 30.6313 59.6398 30.6313 59.6398 30.5887C59.6398 30.4183 59.6398 30.2479 59.6398 30.0775C59.6398 22.5794 56.8924 15.4222 51.947 9.88381ZM10.0175 10.395C10.0175 10.395 10.3556 10.0968 10.4824 9.92641C10.6937 9.756 10.8628 9.54299 11.0741 9.37258C11.2009 9.24477 11.37 9.11696 11.4968 8.98916C11.7082 8.77614 11.9195 8.60573 12.1731 8.43532C12.2999 8.30751 12.469 8.22231 12.5958 8.0945C12.8494 7.88149 13.0607 7.71108 13.3143 7.54067C13.4411 7.45546 13.5679 7.32765 13.6947 7.24245C13.9483 7.07204 14.202 6.85902 14.4978 6.68861C14.6246 6.60341 14.7514 6.5182 14.8782 6.433C15.1318 6.26259 15.4277 6.09218 15.7236 5.92177C15.8504 5.83656 15.9772 5.75136 16.104 5.70875C16.3999 5.53834 16.6958 5.41053 16.9494 5.24012C17.0762 5.15492 17.203 5.11232 17.3298 5.02711C17.6256 4.8993 17.9215 4.72889 18.2174 4.60108C18.3442 4.55848 18.471 4.47328 18.6401 4.43067C18.9359 4.30287 19.2318 4.17506 19.5277 4.04725C19.6545 4.00465 19.8236 3.91944 19.9504 3.87684C20.2462 3.74903 20.5421 3.66383 20.838 3.53602C21.0071 3.49342 21.1339 3.45081 21.3029 3.36561C21.5988 3.2804 21.8947 3.1952 22.1906 3.10999C22.3596 3.06739 22.4864 3.02479 22.6555 2.98218C22.8668 2.93958 23.0782 2.89698 23.2895 2.81177C20.4153 5.45314 18.0061 9.92641 16.4421 15.6778C13.9906 14.3571 11.7504 12.653 9.76385 10.6081C9.80611 10.5229 9.89065 10.4802 9.93292 10.395H10.0175ZM29.841 2.04493C34.5327 2.04493 38.9708 7.75368 41.2956 16.615C37.7028 18.2765 33.8564 19.1286 29.841 19.1286C25.8256 19.1286 21.9792 18.2765 18.3865 16.615C20.7112 7.75368 25.1493 2.04493 29.841 2.04493ZM43.1131 15.6778C41.5492 9.92641 39.1399 5.49574 36.2657 2.81177C36.477 2.85438 36.6884 2.89698 36.8997 2.98218C37.0265 2.98218 37.1956 3.06739 37.3224 3.10999C37.6605 3.1952 37.9564 3.2804 38.2946 3.40821C38.4214 3.45081 38.5482 3.49342 38.675 3.53602C39.0131 3.66383 39.309 3.74903 39.6049 3.87684C39.7317 3.91944 39.8585 3.96204 39.9853 4.04725C40.2811 4.17506 40.6193 4.30287 40.9152 4.43067C41.042 4.47328 41.1688 4.55848 41.2956 4.60108C41.5914 4.72889 41.8873 4.8993 42.2255 5.02711C42.3523 5.06971 42.4791 5.15492 42.6059 5.24012C42.9017 5.41053 43.1976 5.53834 43.4935 5.70875C43.6203 5.79396 43.7471 5.83656 43.8739 5.92177C44.1698 6.09218 44.4234 6.26259 44.7193 6.433C44.8461 6.5182 44.9729 6.60341 45.0997 6.68861C45.3533 6.85902 45.6491 7.02943 45.9028 7.24245C46.0296 7.32765 46.1564 7.41286 46.2832 7.54067C46.5368 7.71108 46.7904 7.92409 47.0017 8.0945C47.1285 8.22231 47.2976 8.30751 47.4244 8.43532C47.6357 8.60573 47.8893 8.81875 48.1007 8.98916C48.2697 9.11696 48.3965 9.24477 48.5233 9.37258C48.7347 9.54299 48.9038 9.756 49.1151 9.92641C49.2842 10.0968 49.4532 10.2246 49.58 10.395C49.6223 10.4802 49.7069 10.5229 49.7491 10.6081C47.7625 12.653 45.5223 14.3571 43.0708 15.6778H43.1131ZM8.49581 12.0991C10.736 14.3997 13.2298 16.2742 16.0195 17.7227C15.1741 21.4717 14.7514 25.4338 14.7092 29.5662H2.02885C2.15565 23.1332 4.43811 16.9985 8.49581 12.0991ZM16.738 29.5662C16.738 25.7746 17.203 22.0682 17.9215 18.6174C21.6411 20.2789 25.6565 21.1309 29.841 21.1309C34.0255 21.1309 38.041 20.2789 41.7605 18.6174C42.4791 22.0256 42.9017 25.7746 42.944 29.5662H16.738ZM44.9306 29.5662C44.9306 25.4338 44.4656 21.4717 43.6203 17.7227C46.41 16.2742 48.946 14.3997 51.144 12.0991C55.2017 16.9985 57.5264 23.1332 57.6109 29.5662H44.9306Z" fill="#0299A4"/>
<path d="M58.7944 35.062C58.7944 35.062 58.7099 34.9768 58.4985 34.8064C58.0336 34.4229 56.9346 33.7839 55.1171 33.7839H4.86079C3.46595 33.8691 2.4938 34.4229 2.02885 34.8064C1.77524 35.0194 1.64844 35.1472 1.64844 35.1472C0.760819 35.9992 0.253606 37.1495 0.253606 38.4702V50.3563C0.253606 52.9125 2.32473 55 4.86079 55H55.6666C58.2027 55 60.2738 52.9125 60.2738 50.3563V38.4702C60.2738 37.1069 59.7243 35.914 58.7944 35.062ZM58.2872 50.3563C58.2872 51.8048 57.1037 52.9551 55.6666 52.9551H4.86079C3.42369 52.9551 2.24019 51.8048 2.24019 50.3563V38.4702C2.24019 37.0217 3.42369 35.8288 4.86079 35.8288H55.6666C57.1037 35.8288 58.2872 37.0217 58.2872 38.4702V50.3563Z" fill="#0299A4"/>
<path d="M10.736 39.8761C8.28448 39.8761 6.25562 41.8784 6.25562 44.3919C6.25562 46.9055 8.28448 48.9504 10.736 48.9504C13.1875 48.9504 15.2586 46.9055 15.2586 44.3919C15.2586 41.8784 13.2298 39.8761 10.736 39.8761ZM10.736 46.9055C9.38344 46.9055 8.24221 45.7978 8.24221 44.3919C8.24221 42.9861 9.38344 41.8784 10.736 41.8784C12.0886 41.8784 13.2721 42.9861 13.2721 44.3919C13.2721 45.7978 12.1308 46.9055 10.736 46.9055Z" fill="#0299A4"/>
<path d="M50.2563 43.8807C50.8166 43.8807 51.2708 43.4229 51.2708 42.8583C51.2708 42.2936 50.8166 41.8358 50.2563 41.8358C49.6961 41.8358 49.2419 42.2936 49.2419 42.8583C49.2419 43.4229 49.6961 43.8807 50.2563 43.8807Z" fill="#0299A4"/>
<path d="M46.2832 43.8807C46.8434 43.8807 47.2976 43.4229 47.2976 42.8583C47.2976 42.2936 46.8434 41.8358 46.2832 41.8358C45.7229 41.8358 45.2687 42.2936 45.2687 42.8583C45.2687 43.4229 45.7229 43.8807 46.2832 43.8807Z" fill="#0299A4"/>
<path d="M52.2852 46.9055C52.8454 46.9055 53.2996 46.4477 53.2996 45.883C53.2996 45.3183 52.8454 44.8606 52.2852 44.8606C51.7249 44.8606 51.2708 45.3183 51.2708 45.883C51.2708 46.4477 51.7249 46.9055 52.2852 46.9055Z" fill="#0299A4"/>
<path d="M48.2697 46.9055C48.83 46.9055 49.2842 46.4477 49.2842 45.883C49.2842 45.3183 48.83 44.8606 48.2697 44.8606C47.7095 44.8606 47.2553 45.3183 47.2553 45.883C47.2553 46.4477 47.7095 46.9055 48.2697 46.9055Z" fill="#0299A4"/>
<path d="M42.2677 43.8807C42.828 43.8807 43.2822 43.4229 43.2822 42.8583C43.2822 42.2936 42.828 41.8358 42.2677 41.8358C41.7075 41.8358 41.2533 42.2936 41.2533 42.8583C41.2533 43.4229 41.7075 43.8807 42.2677 43.8807Z" fill="#0299A4"/>
<path d="M44.2543 46.9055C44.8146 46.9055 45.2687 46.4477 45.2687 45.883C45.2687 45.3183 44.8146 44.8606 44.2543 44.8606C43.6941 44.8606 43.2399 45.3183 43.2399 45.883C43.2399 46.4477 43.6941 46.9055 44.2543 46.9055Z" fill="#0299A4"/>
<path d="M38.2523 43.8807C38.8125 43.8807 39.2667 43.4229 39.2667 42.8583C39.2667 42.2936 38.8125 41.8358 38.2523 41.8358C37.692 41.8358 37.2379 42.2936 37.2379 42.8583C37.2379 43.4229 37.692 43.8807 38.2523 43.8807Z" fill="#0299A4"/>
<path d="M40.2389 46.9055C40.7991 46.9055 41.2533 46.4477 41.2533 45.883C41.2533 45.3183 40.7991 44.8606 40.2389 44.8606C39.6786 44.8606 39.2244 45.3183 39.2244 45.883C39.2244 46.4477 39.6786 46.9055 40.2389 46.9055Z" fill="#0299A4"/>
<path d="M34.2369 43.8807C34.7971 43.8807 35.2513 43.4229 35.2513 42.8583C35.2513 42.2936 34.7971 41.8358 34.2369 41.8358C33.6766 41.8358 33.2224 42.2936 33.2224 42.8583C33.2224 43.4229 33.6766 43.8807 34.2369 43.8807Z" fill="#0299A4"/>
<path d="M36.2657 46.9055C36.826 46.9055 37.2801 46.4477 37.2801 45.883C37.2801 45.3183 36.826 44.8606 36.2657 44.8606C35.7055 44.8606 35.2513 45.3183 35.2513 45.883C35.2513 46.4477 35.7055 46.9055 36.2657 46.9055Z" fill="#0299A4"/>
</svg>
