<svg width="45" height="32" viewBox="0 0 45 32" fill="none" xmlns="http://www.w3.org/2000/svg">
<path d="M9.92304 20.7902C9.55035 20.7902 9.27084 20.5577 9.27084 20.2321V20.0926C9.27084 15.8135 12.7648 12.3252 17.0507 12.3252H28.4645C32.7504 12.3252 36.2444 15.8135 36.2444 20.0926C36.2444 20.4647 35.9649 20.7437 35.5922 20.7437C35.2195 20.7437 34.94 20.4647 34.94 20.0926C34.94 16.5112 32.0516 13.6275 28.4645 13.6275H17.0507C13.4636 13.6275 10.5753 16.5112 10.5753 20.0926C10.5753 20.4647 10.2957 20.8368 9.92304 20.8368V20.7902Z" fill="#ED2328"/>
<path d="M40.3901 26.4651C39.9708 26.4651 39.6447 26.1395 39.6447 25.7209V22.9767C39.6447 21.8604 38.7595 20.9767 37.6415 20.9767H7.96597C6.8479 20.9767 5.96279 21.8604 5.96279 22.9767V25.5348C5.96279 25.9534 5.63667 26.279 5.21739 26.279C4.79812 26.279 4.47199 25.9534 4.47199 25.5348V22.9767C4.47199 21.0232 6.05598 19.4419 8.0126 19.4419H37.6881C39.6447 19.4419 41.2286 21.0232 41.2286 22.9767V25.7209C41.2286 26.1395 40.9025 26.4651 40.4832 26.4651H40.3901Z" fill="#ED2328"/>
<path d="M43.6979 28.7904H0.652206C0.279515 28.7904 0 28.5114 0 28.1393C0 27.7672 0.279515 27.4881 0.652206 27.4881H43.6979C44.0706 27.4881 44.3502 27.7672 44.3502 28.1393C44.3502 28.5114 44.0706 28.7904 43.6979 28.7904Z" fill="#ED2328"/>
<path d="M10.4354 31.9535H4.56559V28.4651C4.56559 28.093 4.84511 27.814 5.2178 27.814C5.59049 27.814 5.87 28.093 5.87 28.4651V30.6512H9.92299L12.8114 28.0931C13.0909 27.8605 13.5102 27.8605 13.7431 28.1396C13.976 28.4186 13.976 28.8372 13.6965 29.0698L10.4354 32V31.9535Z" fill="#ED2328"/>
<path d="M41.0893 31.953H35.2195L31.9584 29.0227C31.6789 28.7902 31.6789 28.3716 31.9118 28.0925C32.1447 27.8134 32.564 27.8134 32.8435 28.046L35.7319 30.6041H39.7849V28.4181C39.7849 28.046 40.0644 27.7669 40.4371 27.7669C40.8098 27.7669 41.0893 28.046 41.0893 28.4181V31.953Z" fill="#ED2328"/>
<path d="M16.1656 5.72089C16.1656 5.72089 15.9792 5.72089 15.886 5.67438C15.5599 5.53485 15.4202 5.16276 15.5599 4.83718C16.8643 1.86045 19.7992 0 23.0137 0C23.0137 0 23.1069 0 23.1535 0C26.2748 0.0465113 29.0233 1.81394 30.3743 4.60462C30.5141 4.9302 30.3744 5.30229 30.0483 5.48833C29.7222 5.62787 29.3495 5.48833 29.1631 5.16275C28.0451 2.79068 25.7157 1.30232 23.1069 1.30232H22.9671C20.2651 1.30232 17.796 2.8837 16.678 5.39531C16.5848 5.62787 16.3519 5.7674 16.0724 5.7674L16.1656 5.72089Z" fill="#ED2328"/>
<path d="M16.1656 5.72089C16.1656 5.72089 15.9792 5.72089 15.886 5.67438C15.5599 5.53485 15.4202 5.16276 15.5599 4.83718C16.8643 1.86045 19.7992 0 23.0137 0C23.0137 0 23.1069 0 23.1535 0C26.2748 0.0465113 29.0233 1.81394 30.3743 4.60462C30.5141 4.9302 30.3744 5.30229 30.0483 5.48833C29.7222 5.62787 29.3495 5.48833 29.1631 5.16275C28.0451 2.79068 25.7157 1.30232 23.1069 1.30232H22.9671C20.2651 1.30232 17.796 2.8837 16.678 5.39531C16.5848 5.62787 16.3519 5.7674 16.0724 5.7674L16.1656 5.72089Z" fill="#ED2328"/>
<path d="M27.067 6.7904C27.067 6.7904 26.6944 6.69738 26.5546 6.55785C25.6695 5.48809 24.365 4.88344 22.9674 4.88344C21.5698 4.88344 20.2654 5.48809 19.3803 6.51134C19.1473 6.7904 18.7281 6.83691 18.4485 6.60436C18.169 6.3718 18.1224 5.9532 18.3554 5.67413C19.52 4.3253 21.1506 3.58112 22.9209 3.58112C24.6911 3.58112 26.3682 4.37182 27.5329 5.72064C27.7658 5.99971 27.7193 6.41831 27.4397 6.65087C27.3 6.74389 27.1602 6.7904 27.0204 6.7904H27.067Z" fill="#ED2328"/>
<path d="M22.9677 9.67451C23.6109 9.67451 24.1323 9.15392 24.1323 8.51173C24.1323 7.86954 23.6109 7.34895 22.9677 7.34895C22.3245 7.34895 21.803 7.86954 21.803 8.51173C21.803 9.15392 22.3245 9.67451 22.9677 9.67451Z" fill="#ED2328"/>
</svg>
