<svg width="14" height="13" viewBox="0 0 14 13" fill="none" xmlns="http://www.w3.org/2000/svg">
<g clip-path="url(#clip0_341_1886)">
<path d="M6.98293 12.5762C10.3441 12.5762 13.0689 9.85144 13.0689 6.49026C13.0689 3.12907 10.3441 0.404297 6.98293 0.404297C3.62175 0.404297 0.896973 3.12907 0.896973 6.49026C0.896973 9.85144 3.62175 12.5762 6.98293 12.5762Z" fill="#F31B24"/>
<path d="M4.9091 9.45635C4.42548 9.45635 3.98319 9.38375 3.58558 9.23967C3.18573 9.09336 2.84172 8.87891 2.55133 8.60081C2.27099 8.3361 2.05655 8.0189 1.9147 7.65368C1.77956 7.30633 1.71143 6.92546 1.71143 6.51333C1.71143 6.31676 1.72706 6.1213 1.75945 5.93366C1.79184 5.74156 1.8421 5.5595 1.9147 5.38415C2.05655 5.02116 2.27099 4.70396 2.55133 4.42809C2.84284 4.14775 3.18573 3.9333 3.58558 3.78922C3.98319 3.64291 4.42548 3.57031 4.9091 3.57031H6.61571C6.43142 3.6753 6.25719 3.79816 6.09524 3.93554H6.08854L5.94669 4.0651C5.92435 4.08743 5.90313 4.10866 5.88079 4.13323H5.87186L5.72331 4.30411C5.64066 4.4024 5.5636 4.50739 5.49323 4.61908H4.9091C4.57626 4.61908 4.27917 4.6604 4.01223 4.74975C3.74752 4.83687 3.51968 4.96196 3.33204 5.12838C3.14664 5.2948 3.00367 5.49137 2.90315 5.72592C2.8071 5.96047 2.75461 6.22294 2.75461 6.51333C2.75461 6.80372 2.8071 7.06954 2.90315 7.30074C3.00367 7.53529 3.14552 7.7341 3.33204 7.89828C3.51968 8.0647 3.74752 8.19091 4.01223 8.27914C4.27917 8.36626 4.57626 8.4087 4.9091 8.4087H5.50887C5.59375 8.5472 5.78474 8.8186 6.12316 9.10006C6.12428 9.10006 6.12539 9.10229 6.12651 9.10341C6.17677 9.14473 6.23038 9.18606 6.28734 9.22738C6.30521 9.24079 6.3242 9.25307 6.34207 9.26647C6.39792 9.30557 6.456 9.34577 6.51742 9.38375C6.55652 9.41055 6.59784 9.43401 6.63805 9.45635H4.91021H4.9091Z" fill="white"/>
<path d="M12.2057 5.92557C12.1734 5.73793 12.1209 5.55364 12.0505 5.37829C11.8952 5.00413 11.6853 4.6847 11.4161 4.42223C11.1235 4.14189 10.7795 3.92744 10.3819 3.78336C10.3204 3.76103 10.259 3.73981 10.1976 3.72194C10.1931 3.7197 10.1909 3.7197 10.1864 3.71747C9.91052 3.63705 9.61566 3.58567 9.3007 3.57115H9.28059C9.208 3.56669 9.13428 3.56445 9.05722 3.56445H8.63726C8.5602 3.56445 8.48648 3.56669 8.41388 3.57115C8.31336 3.57562 8.21731 3.58232 8.12126 3.59573C8.10562 3.59796 8.08887 3.59796 8.07323 3.60243C8.06206 3.60243 8.05313 3.60243 8.04308 3.60466C8.0185 3.60689 7.99505 3.61136 7.97271 3.61583C7.82193 3.63817 7.67785 3.67056 7.53489 3.71188C7.50473 3.72082 7.47123 3.72975 7.44107 3.74092C7.39974 3.75433 7.35618 3.76884 7.31374 3.78448C6.91501 3.92856 6.57436 4.143 6.28062 4.42335H6.27838C6.24599 4.4535 6.21472 4.48701 6.18456 4.5194C6.17339 4.5328 6.15999 4.54509 6.14994 4.55849C6.13207 4.57859 6.11531 4.59758 6.09744 4.61992H6.09521C5.90534 4.84553 5.75567 5.09907 5.64399 5.37941C5.57362 5.55476 5.52113 5.73793 5.48874 5.92669C5.45635 6.11656 5.43848 6.31201 5.43848 6.50859C5.43848 6.91961 5.50884 7.30047 5.64399 7.6467C5.73334 7.87678 5.84949 8.08676 5.99134 8.27663C6.00921 8.30232 6.03043 8.32689 6.05277 8.35146C6.1209 8.43635 6.19685 8.51788 6.27838 8.59383C6.41353 8.72339 6.55872 8.83843 6.7162 8.93783C6.73631 8.95124 6.75306 8.96241 6.77093 8.97246C6.93958 9.07521 7.12052 9.16233 7.31374 9.23269C7.71136 9.37901 8.15365 9.45161 8.63726 9.45161H9.05722C9.54083 9.45161 9.98312 9.37901 10.3807 9.23269C10.7784 9.08861 11.1224 8.87417 11.415 8.59383C11.5568 8.46204 11.6797 8.31572 11.7802 8.15824C11.883 7.99853 11.9701 7.82764 12.0494 7.6467C12.1845 7.30158 12.2549 6.92072 12.2549 6.50859C12.2549 6.31201 12.237 6.11656 12.2046 5.92669L12.2057 5.92557ZM11.0598 7.29488C10.9615 7.52943 10.8197 7.72824 10.6332 7.89242C10.4455 8.0566 10.2199 8.18393 9.95297 8.27105C9.68603 8.35817 9.38893 8.40396 9.05833 8.40396H8.63838C8.30778 8.40396 8.01069 8.35817 7.74375 8.27105C7.47681 8.18393 7.2512 8.0566 7.06356 7.89242C6.87815 7.72824 6.73519 7.52943 6.63467 7.29488C6.53638 7.06033 6.48836 6.79786 6.48836 6.50747C6.48836 6.21708 6.53638 5.95349 6.63467 5.72006C6.73519 5.48775 6.87704 5.28671 7.06356 5.12252C7.2512 4.95834 7.47681 4.83101 7.74375 4.74389C7.94255 4.678 8.15923 4.63667 8.39601 4.6188H8.39825C8.47531 4.6121 8.55573 4.60987 8.63838 4.60987H9.05833C9.14098 4.60987 9.22252 4.6121 9.29847 4.6188H9.3007C9.53748 4.63667 9.75304 4.678 9.95297 4.74389C10.2199 4.83101 10.4455 4.95834 10.6332 5.12252C10.8197 5.28671 10.9615 5.48775 11.0598 5.72006C11.1603 5.95461 11.2084 6.21708 11.2084 6.50747C11.2084 6.79786 11.1603 7.06145 11.0598 7.29488Z" fill="white"/>
</g>
<defs>
<clipPath id="clip0_341_1886">
<rect width="12.1719" height="12.1719" fill="white" transform="translate(0.896973 0.404297)"/>
</clipPath>
</defs>
</svg>
